<?xml version="1.0" encoding="UTF-8"?>
<!DOCTYPE svg PUBLIC "-//W3C//DTD SVG 1.1//EN" "http://www.w3.org/Graphics/SVG/1.1/DTD/svg11.dtd">
<!-- Creator: CorelDRAW -->
<svg xmlns="http://www.w3.org/2000/svg" xml:space="preserve" width="6.94444in" height="6.94444in" version="1.1" style="shape-rendering:geometricPrecision; text-rendering:geometricPrecision; image-rendering:optimizeQuality; fill-rule:evenodd; clip-rule:evenodd"
viewBox="0 0 193.47 193.47"
 xmlns:xlink="http://www.w3.org/1999/xlink"
 xmlns:xodm="http://www.corel.com/coreldraw/odm/2003">
 <defs>
  <style type="text/css">
   <![CDATA[
    .fil0 {fill:#091A35}
    .fil3 {fill:#EEC774;fill-rule:nonzero}
    .fil1 {fill:url(#id0)}
    .fil2 {fill:url(#id1);fill-rule:nonzero}
   ]]>
  </style>
  <linearGradient id="id0" gradientUnits="userSpaceOnUse" x1="94.66" y1="63.95" x2="97.27" y2="129.51">
   <stop offset="0" style="stop-opacity:1; stop-color:#CDA742"/>
   <stop offset="0.478431" style="stop-opacity:1; stop-color:#F4CD7B"/>
   <stop offset="1" style="stop-opacity:1; stop-color:#C49940"/>
  </linearGradient>
  <linearGradient id="id1" gradientUnits="userSpaceOnUse" xlink:href="#id0" x1="96.45" y1="89.52" x2="96.61" y2="113.06">
  </linearGradient>
 </defs>
 <g id="Layer_x0020_1">
  <metadata id="CorelCorpID_0Corel-Layer"/>
  <polygon class="fil0" points="193.47,193.47 -0,193.47 -0,0 193.47,0 "/>
  <path class="fil1" d="M96.89 85.9l1.28 0.81 -0.6 1.83c-0.38,-0.18 -0.4,-0.08 -0.77,-1.1 -0.22,-0.62 -0.15,-0.99 0.1,-1.54zm3.77 28.06c-0.32,-0.62 -0.38,-0.77 -1.17,-1.18 0.03,1.64 2.02,5.33 -1.46,4.81l-0.04 -0.9 0.59 -3.17 -0 -0.33c0.15,-0.99 0.46,0.08 1.66,-0.81 0.42,-0.31 0.77,-0.69 1.05,-1.11 -0.16,0.02 -0.32,0.02 -0.48,0.02 -0.12,0 -0.24,-0 -0.35,-0.01 -0.47,0.61 -1.11,1 -1.8,1.02l-0.09 -1.6c-0.12,-0.07 -0.24,-0.16 -0.36,-0.24 -0.33,-0.25 -0.6,-0.55 -0.81,-0.9 -0.55,1.06 -1.91,1.78 -3.31,1.14 -1.55,-0.71 -1.35,-1.85 -1.31,-3.04l-1.02 0c-0.22,0.84 -0.77,1.54 -1.51,1.86 -0.26,0.36 -0.52,0.71 -0.8,1.06 0.87,0.01 1.76,-0.32 2.4,-1.01 0.24,0.55 0.5,0.83 0.68,1.3 -1.09,0.43 -1.76,0.39 -2.35,1.7 -0.55,1.24 -0.37,2.4 0.16,3.1 0.52,0.68 1.57,1.42 2.8,1.41 1.52,-0.01 1.08,-0.14 2.2,1.15 -2,1.9 -2.24,4.23 0.22,5.74 -0.19,0.49 -0.33,0.69 -0.21,1.07l0.46 -0.8c2.04,-0.1 1.35,4.65 -1.16,4.45 -1.28,-0.1 -2.13,-0.96 -2.22,-1.94 -0.15,-1.69 1.05,-1.88 1.39,-2.65 -2.81,0.51 -2.62,4.79 0.31,5.4 1.32,0.28 2.67,-0.46 3.3,-1.29 0.98,-1.29 0.38,-2.67 0.24,-3.82 1.58,-0.13 2.91,-0.98 3.49,-2.78 0.6,-2.52 -0.5,-0.76 -0.5,-2.4 -0.51,0.31 -0.37,1.36 -0.47,2.05 -0.45,0.88 -0.95,1.54 -1.63,1.84 -0.31,0.14 -0.86,0.26 -1.24,0.27 -0.46,0.02 -1.11,0.08 -0.98,-0.49l0.77 -2.26 0.48 -1.86c2.79,0.04 5.58,0.49 7.09,-2.61 0.18,-0.38 0.27,-0.83 0.26,-1.21 0.1,-0.94 -0.03,-1.87 -0.64,-2.52 0.5,-0.23 1.8,-0.34 2.49,-1.72 -0.11,-0.08 -0.21,-0.16 -0.31,-0.25 -0.08,-0.07 -0.16,-0.15 -0.23,-0.23 -0.03,0.07 -0.06,0.14 -0.09,0.21l-0.6 0.79c-0.74,0.63 -1.89,0.78 -3.35,-0.13 0.02,1.44 2.1,0.82 1.93,3.81 -2.27,4.77 -3.55,1.65 -3.46,-0.95zm7.59 -18.95c-0.36,-0.48 -0.87,-0.86 -1.51,-1.09 0.87,-2.62 0.34,-5.27 -2.82,-5.18 0.06,1.1 0.82,0.37 1.81,1.64 0.37,0.48 0.68,1.47 0.42,2.39 -0.24,0.87 -0.9,1.4 -1.79,1.39 -1.23,-0.01 -1.54,-0.68 -2.02,-1.21 0.85,-2.28 1.34,-2.81 -0.03,-4.82 0.49,0.04 0.96,-0.06 1.34,-0.23 -0.21,-1.13 -1.18,-0.83 -1.86,-3.27 -0.42,-1.51 -1.08,-3.01 -1.03,-3.9 1.85,0.71 2.3,0.8 4.21,1.11 0.78,1.62 1.85,2.21 4.19,2.66 0.11,5.12 9.05,2.93 10.95,0.3 -0.98,0.17 -2.49,1.69 -4.65,1.93 -2.01,0.22 -3.99,-0.21 -4.91,-2.19 0.41,-0.37 1.72,-0.59 2.36,-1.01 1.75,-1.17 0.91,-3.97 -1.98,-2.28 -0.88,0.51 -1.04,0.95 -1.65,1.92 -1.75,-0.3 -2.09,-0.49 -2.9,-1.65 0.97,-0.62 1.88,-0.9 2.82,-1.94 2.77,-3.04 -1.53,-4.66 -3.73,-2.85 -1.32,1.09 -1.15,2.03 -1.22,3.58 -1.4,-0.24 -2.22,-0.56 -3.43,-1.08 -0.06,-2.19 -0.25,-2.66 0.27,-5.13 -0.62,-0.58 -0.94,-0.9 -1.46,-1.47l-0.08 1.94c-1.28,-1.2 -4.26,-1.25 -5.03,0.1 1.48,0.25 2.09,-0.52 3.83,0.25 0.12,3.27 -6.46,1.11 -6.76,4.33 1.31,2.87 4.92,-0.65 7.44,1.64 1.86,1.7 1.29,3.98 2.54,5.67 0.18,0.24 0.37,0.35 0.46,0.7 -2.85,-0.43 -3.63,-1.65 -5.48,-2.05 -1.31,3.04 0.87,3.5 1.63,5.26 0.48,1.11 -0.58,1.61 -0.99,2.77 -0.41,1.2 -0.41,2.29 -0.62,3.42l0.03 0c0.11,-0.23 0.19,-0.5 0.3,-0.72 0.08,-0.15 0.16,-0.3 0.26,-0.43 0.04,-1.04 0.54,-2.25 0.99,-3.02 0.94,1.02 1.92,0.99 3.19,1.03 0.17,0.68 0.2,1.41 -0.04,2.05l0.53 -0.48 0.54 0.28 0.29 -0.92 1.1 0.48c-0.27,0.35 -0.47,0.56 -0.66,0.82l0.33 0.17c0.06,-0.09 0.12,-0.17 0.19,-0.26 0.48,-0.59 0.69,-0.51 1.49,-0.7 0.8,-0.19 0.85,-0.67 1.75,-0.02 0.25,0.18 0.47,0.46 0.64,0.79 0.23,-0.26 0.48,-0.5 0.75,-0.72zm-12.08 1.65c-1.15,-0.94 -2.47,-1.49 -2.6,-3.19 -3.53,-1.66 -3.11,-1.19 -3.81,-5.83 -0.78,-5.21 -2.88,-0.18 -2.4,2.86 0.55,3.5 -1.79,3.88 -4.09,4.94l0.06 0.24c0.04,0.17 0.07,0.34 0.1,0.51 0.74,-0.4 1.49,-0.74 2.18,-1.01 -0.2,0.77 -0.55,1.17 -0.74,1.73 0.34,-0.33 0.7,-0.66 1.09,-0.94 0.37,-0.52 0.93,-0.9 1.63,-0.95l0.08 0.17c0.27,-0.05 0.54,-0.06 0.82,-0.03 -0.18,-0.74 0.05,-2.49 0.91,-2.5 0.83,0.39 1.1,0.87 2.26,1.14 -0.11,1.3 0.05,1.2 0.3,1.93 0.25,-0.1 0.5,-0.17 0.75,-0.22 -0.34,-0.42 -0.39,-0.87 -0.37,-1.49 0.34,0.29 0.68,0.96 1.13,1.44 0.65,0.06 1.25,0.38 1.67,1.11 0.02,0.03 0.03,0.06 0.05,0.08l0.99 0zm-21.41 -15.94c-0.71,0.26 -2.07,-0.4 -2.95,-0.53 0.14,0.62 -0.16,0.11 0.31,0.59 0.95,0.96 3.89,1.22 5.04,1.17 1.56,-0.08 4.65,0.06 5.61,1.23 -0.74,1.33 -4.07,1.11 -4.72,2.43l0.71 0.58c-0.66,1.06 -1.23,0.8 -1.88,1.96 0.33,0.49 0.24,0.1 0.46,0.62l-1.04 1.79c0.51,1.24 0.88,0.55 0.86,2.53l0.04 3.14c0.19,-0.26 0.39,-0.5 0.59,-0.72 0.02,-0.3 0.05,-0.6 0.06,-0.89 0.11,-1.73 0.43,-2.72 -0.37,-3.93 1.78,-2.51 0.82,-1.99 1.12,-2.76 0.38,-0.96 1.56,-0.47 1.4,-2.45 1.02,-0.26 2.45,-0.7 3.34,-1.2 1.36,-0.77 1.32,-1.81 -0.3,-2.53 -3.69,-1.62 -6.27,-0.35 -8.29,-1.04zm-2.25 -0.99c0.47,-0.24 1.65,-0.8 2.13,-1.17 1.11,-0.86 0.79,-1.63 0.57,-2.71 0.85,-0.23 4.28,-1.57 4.86,-2.2 0.47,-0.52 -0.11,-0.4 0.88,-0.6 0.93,-0.18 1.51,0.02 2.45,-0.36 0.75,-3.23 1.56,-3.8 2.64,-6.51 1.58,1.11 2.47,3.32 2.47,3.32 0.33,0.42 5.65,1.87 2.55,4.83 -0.83,0.79 -3.6,2.67 -1.45,4.09 0.63,0.42 1.25,0.57 1.88,0.27 -0.27,-0.49 -0.94,-0.72 -1.51,-1.1 0.48,-2.53 5.12,-2.91 2.69,-6.52 -1.69,-2.52 -1.58,-1.36 -2.99,-2.6l-2.3 -2.94c-0.89,-0.5 -0.96,-1.09 -2.04,-1.6 -0.52,1.95 -0.56,2.32 -1.43,4.06 -0.61,1.21 -1.13,2.48 -1.52,3.82 -1.59,-0.22 -2.76,0.2 -3.78,0.66l0.34 0.62c-0.98,0.73 -1.34,0.93 -2.26,1.41l-2.22 1.27c0.23,0.75 0.93,1.45 -0.07,2.43 -0.61,0.6 -1.47,1.09 -2.34,1.21 0.29,0.66 -0.23,0.1 0.44,0.34zm7.62 14.49c2.11,-3.86 5.38,-8.36 7.38,-10.13 -0.56,1.32 -2.15,4.27 -1.51,5.91 0.89,-2.89 2.12,-6.45 4.27,-7.91 0.16,0.25 0.8,1.92 1.74,3.45l4.05 5.28c-0.09,-1.47 -2.36,-4.58 -3.3,-6.17 -0.26,-0.44 -0.45,-0.59 -0.65,-0.99 -0.16,-0.32 -0.21,-0.63 -0.37,-0.87 1.34,0.6 8.73,3.01 9.19,3.5 0.01,-0.62 0.24,-0.22 -0.31,-0.69 -0.45,-0.38 -4.58,-2.19 -5.11,-2.4 -2.31,-0.93 -4.37,-1.59 -4.28,-3.59 -2.71,0.02 -3.56,-1.76 -3.95,-3.79 -0.23,-1.21 -0.54,-3.93 -1.12,-5.01 -0.23,-0.42 -0.04,-0.18 -0.38,-0.53 0.1,0.9 0.32,1.57 0.38,2.6 0.2,3.48 0,4.27 1.87,7.02 -1.6,-0.21 -9.78,-2.74 -11.49,-0.47 0.99,-0.09 1.66,-0.43 2.8,-0.46 3.15,-0.08 6.48,1.87 9.29,2.11 -0.46,0.62 -1.16,1.16 -1.72,1.78 -2.75,3.06 -6.19,7.43 -7.97,11.74 0.37,-0.2 0.77,-0.33 1.19,-0.39zm20.14 -6.5l0.49 0.45c0.92,0.71 1.82,1.62 1.22,3.26 -0.67,1.82 -3.13,1.36 -3.32,0.33l0.65 -1.01c-1.12,-1.07 -0.68,-1.7 -0.09,-3.36 0.86,0.12 0.19,0.21 1.05,0.32zm-6.43 28.28c-2.41,0.26 -4.14,-1.65 -2.59,-3.75 0.51,-0.7 1.37,-1.01 2.46,-0.63 0.84,0.29 0.77,0.39 1.65,0.31 0.35,-0.03 0.54,-0.21 0.99,0.12 0.21,0.15 0.18,0.2 0.24,0.29 -1.81,0.69 -2.62,0.8 -2.76,3.66zm2.07 6.89c-0.85,-0.07 -1.29,-0.92 -1.35,-1.8 -0.08,-1.33 0.63,-2.04 1.22,-2.6l1.3 0.33 -1.17 4.07zm1.55 -6.19l-0.23 1.06c-1.67,-0.34 -2.84,-1.21 -2.61,-2.82 0.26,-1.8 1.63,-2.33 3.24,-2.12l-0.41 3.89zm-0.25 -4.74c-0.15,-0.05 -0.38,-0.25 -0.55,-0.37 0.84,-0.44 0.76,-0.9 1.3,-0.95 -0.07,1.24 0.26,1.69 -0.76,1.33zm13.48 -28.85c0.24,-0.7 0.82,-1.21 1.65,-0.89 -0.12,0.41 -0.05,0.45 -0.65,0.67 -0.27,0.1 -0.7,0.17 -1,0.22zm-18.17 -3.59c-0.17,-1.47 4.33,-2.03 4.65,-2.03 0.44,0.9 0.5,0.85 1.28,1.58 -3.2,-0.29 -4.6,1.14 -5.93,0.45zm6.92 -2.94c0.24,0.5 0.26,1.26 0.2,1.93 -0.28,-0.21 -0.54,-0.4 -0.82,-0.68 -0.48,-0.46 -0.4,-0.28 -0.53,-0.83 0.2,-0.05 0.34,-0.07 0.56,-0.16l0.45 -0.21c0.03,-0.05 0.08,-0.03 0.13,-0.05zm6.24 3.41c-0.04,-1.58 1.04,-3.05 2.48,-2.11 0.01,0.8 -0.49,1.11 -0.95,1.4 -0.51,0.32 -0.88,0.58 -1.53,0.7z"/>
  <path class="fil2" d="M57.81 89.64c-0.84,0.66 -1.55,1.4 -2.13,2.23 -0.58,0.83 -1.08,1.71 -1.51,2.63 -0.43,0.92 -0.81,1.87 -1.16,2.85 -0.34,0.98 -0.71,1.95 -1.09,2.9 -0.38,0.95 -0.81,1.88 -1.3,2.77 -0.48,0.9 -1.08,1.73 -1.8,2.49l0.05 0.05c0.92,-0.55 1.79,-1.07 2.61,-1.58 0.82,-0.51 1.6,-1 2.35,-1.49 1.96,-1.26 3.52,-2.47 4.66,-3.63 1.14,-1.15 2,-2.21 2.57,-3.17 0.58,-0.96 0.94,-1.8 1.1,-2.51 0.16,-0.72 0.23,-1.26 0.23,-1.61 -0.2,-0.06 -0.34,-0.16 -0.41,-0.3 -0.07,-0.14 -0.11,-0.31 -0.11,-0.51 0,-0.27 0.09,-0.48 0.26,-0.66 0.17,-0.17 0.39,-0.26 0.65,-0.26 0.41,0 0.68,0.14 0.83,0.41 0.15,0.27 0.22,0.64 0.22,1.09 0,0.61 -0.14,1.25 -0.43,1.93 -0.29,0.68 -0.69,1.36 -1.19,2.06 -0.51,0.69 -1.1,1.39 -1.77,2.09 -0.67,0.7 -1.38,1.38 -2.14,2.04 -0.76,0.66 -1.54,1.28 -2.36,1.87 -0.82,0.59 -1.62,1.13 -2.4,1.61 -0.92,0.56 -1.84,1.12 -2.76,1.68 -0.92,0.56 -1.88,1.14 -2.88,1.73l-0.12 -0.12c0.55,-0.8 1.02,-1.65 1.42,-2.56 0.4,-0.91 0.77,-1.85 1.11,-2.82 0.34,-0.97 0.69,-1.93 1.04,-2.9 0.35,-0.97 0.75,-1.9 1.2,-2.8 0.45,-0.9 0.99,-1.73 1.61,-2.51 0.62,-0.78 1.38,-1.46 2.27,-2.04l-0.05 -0.05c-0.66,0.34 -1.36,0.6 -2.13,0.78 -0.76,0.18 -1.54,0.38 -2.34,0.6 -0.51,0.14 -1.07,0.33 -1.67,0.56 -0.6,0.23 -1.16,0.53 -1.67,0.9 -0.51,0.37 -0.95,0.8 -1.3,1.29 -0.35,0.49 -0.53,1.06 -0.53,1.72 0,0.55 0.17,0.97 0.51,1.26 0.34,0.3 0.75,0.44 1.22,0.44 0.28,0 0.56,-0.06 0.83,-0.18 0.27,-0.12 0.51,-0.27 0.73,-0.47 0.21,-0.19 0.38,-0.43 0.5,-0.71 0.12,-0.28 0.19,-0.58 0.19,-0.91 0,-0.16 0,-0.3 0,-0.42 0,-0.12 -0.02,-0.26 -0.05,-0.4l0.26 0c0.02,0.12 0.03,0.26 0.05,0.4 0.02,0.14 0.02,0.3 0.02,0.47 0,0.33 -0.07,0.64 -0.2,0.94 -0.13,0.3 -0.32,0.56 -0.55,0.8 -0.23,0.23 -0.51,0.42 -0.83,0.56 -0.32,0.14 -0.66,0.21 -1.02,0.21 -0.66,0 -1.2,-0.19 -1.65,-0.57 -0.44,-0.38 -0.67,-0.91 -0.67,-1.58 0,-0.73 0.19,-1.35 0.57,-1.86 0.38,-0.51 0.85,-0.94 1.42,-1.29 0.56,-0.35 1.16,-0.64 1.8,-0.85 0.64,-0.22 1.22,-0.4 1.73,-0.54 0.41,-0.12 0.88,-0.25 1.42,-0.36 0.54,-0.12 1.08,-0.25 1.63,-0.41 0.55,-0.16 1.08,-0.35 1.6,-0.57 0.52,-0.23 0.98,-0.51 1.37,-0.85l0.16 0.12zm5.8 8.49c-0.86,1.23 -1.58,2.27 -2.18,3.11 -0.59,0.84 -1.07,1.54 -1.44,2.11 -0.37,0.56 -0.63,1.01 -0.8,1.33 -0.16,0.33 -0.25,0.59 -0.25,0.8 0,0.41 0.16,0.61 0.49,0.61 0.31,0 0.67,-0.11 1.09,-0.34 0.41,-0.23 0.85,-0.52 1.3,-0.88 0.45,-0.36 0.9,-0.76 1.36,-1.22 0.45,-0.45 0.88,-0.9 1.27,-1.35 0.4,-0.44 0.75,-0.87 1.05,-1.29 0.3,-0.41 0.53,-0.75 0.67,-1.02l0.19 0.12c-0.19,0.31 -0.44,0.69 -0.76,1.12 -0.32,0.44 -0.68,0.89 -1.09,1.35 -0.41,0.46 -0.83,0.92 -1.29,1.37 -0.45,0.45 -0.91,0.86 -1.38,1.22 -0.47,0.36 -0.92,0.65 -1.37,0.87 -0.44,0.22 -0.85,0.33 -1.23,0.33 -0.42,0 -0.73,-0.12 -0.94,-0.35 -0.2,-0.23 -0.3,-0.49 -0.3,-0.77 0,-0.33 0.07,-0.67 0.22,-1.04 0.15,-0.37 0.39,-0.81 0.71,-1.35 0.33,-0.53 0.75,-1.17 1.27,-1.93 0.52,-0.76 1.15,-1.69 1.88,-2.8l1.5 0zm1.36 -4.35c0.22,0 0.4,0.07 0.54,0.22 0.14,0.15 0.21,0.33 0.21,0.55 0,0.22 -0.07,0.4 -0.21,0.55 -0.14,0.15 -0.32,0.22 -0.54,0.22 -0.22,0 -0.4,-0.07 -0.54,-0.22 -0.14,-0.15 -0.21,-0.33 -0.21,-0.55 0,-0.22 0.07,-0.4 0.21,-0.55 0.14,-0.15 0.32,-0.22 0.54,-0.22zm3.56 4.35l-3.09 4.28 0.05 0.05c0.33,-0.39 0.71,-0.85 1.15,-1.37 0.44,-0.52 0.9,-1.02 1.4,-1.49 0.5,-0.47 1.02,-0.86 1.56,-1.18 0.54,-0.32 1.07,-0.48 1.6,-0.48 0.47,0 0.83,0.13 1.09,0.39 0.26,0.26 0.39,0.59 0.39,0.99 0,0.25 -0.09,0.55 -0.27,0.89 -0.18,0.34 -0.4,0.71 -0.67,1.1 -0.27,0.39 -0.55,0.79 -0.87,1.19 -0.31,0.41 -0.6,0.79 -0.87,1.16 -0.27,0.37 -0.49,0.7 -0.67,1.01 -0.18,0.3 -0.27,0.56 -0.27,0.76 0,0.44 0.22,0.66 0.66,0.66 0.5,0 1.03,-0.17 1.59,-0.5 0.56,-0.34 1.23,-0.9 2.01,-1.7 0.31,-0.31 0.63,-0.66 0.95,-1.03 0.32,-0.37 0.63,-0.74 0.92,-1.11 0.3,-0.37 0.57,-0.71 0.81,-1.04 0.24,-0.33 0.43,-0.6 0.57,-0.82l0.16 0.09c-0.31,0.47 -0.71,1.03 -1.2,1.67 -0.49,0.65 -1.03,1.28 -1.6,1.91 -0.34,0.37 -0.69,0.73 -1.05,1.08 -0.36,0.34 -0.72,0.64 -1.08,0.9 -0.36,0.26 -0.71,0.46 -1.06,0.61 -0.35,0.15 -0.7,0.22 -1.04,0.22 -0.45,0 -0.83,-0.12 -1.12,-0.37 -0.3,-0.25 -0.44,-0.59 -0.44,-1.03 0,-0.47 0.19,-0.98 0.56,-1.53 0.37,-0.55 0.79,-1.11 1.24,-1.67 0.45,-0.56 0.87,-1.1 1.24,-1.61 0.37,-0.51 0.56,-0.97 0.56,-1.36 0,-0.19 -0.06,-0.33 -0.19,-0.42 -0.12,-0.09 -0.29,-0.14 -0.49,-0.14 -0.39,0 -0.83,0.14 -1.31,0.43 -0.48,0.29 -0.98,0.67 -1.49,1.15 -0.51,0.48 -1.01,1.01 -1.52,1.59 -0.51,0.58 -0.98,1.17 -1.42,1.75 -0.44,0.58 -0.83,1.15 -1.17,1.68 -0.34,0.54 -0.6,0.99 -0.77,1.35l-1.45 0c0.41,-0.69 0.84,-1.38 1.3,-2.09 0.46,-0.71 0.92,-1.41 1.37,-2.11 0.45,-0.69 0.89,-1.36 1.3,-2.01 0.41,-0.65 0.78,-1.24 1.11,-1.77l1.52 -0.07zm18.55 2.13c-0.37,0.42 -0.8,0.76 -1.26,1.01 -0.47,0.25 -0.93,0.37 -1.38,0.37 -0.44,0 -0.81,-0.1 -1.12,-0.29 -0.31,-0.19 -0.55,-0.43 -0.73,-0.69l-0.05 0c-0.16,0.59 -0.44,1.22 -0.87,1.89 -0.42,0.67 -0.92,1.29 -1.51,1.85 -0.58,0.56 -1.23,1.03 -1.93,1.4 -0.7,0.37 -1.42,0.56 -2.15,0.56 -0.67,0 -1.18,-0.19 -1.52,-0.58 -0.34,-0.39 -0.51,-0.91 -0.51,-1.57 0,-0.34 0.09,-0.74 0.26,-1.19 0.17,-0.45 0.41,-0.91 0.71,-1.37 0.3,-0.46 0.66,-0.91 1.08,-1.36 0.41,-0.44 0.86,-0.84 1.35,-1.19 0.48,-0.35 0.99,-0.63 1.53,-0.84 0.54,-0.21 1.08,-0.32 1.63,-0.32 0.64,0 1.13,0.19 1.49,0.56 0.35,0.37 0.54,0.86 0.57,1.45 0.03,0.36 0.2,0.69 0.5,0.99 0.3,0.3 0.72,0.46 1.25,0.46 0.47,0 0.91,-0.12 1.32,-0.35 0.41,-0.23 0.8,-0.54 1.16,-0.91l0.19 0.12zm-11.77 4.51c0,0.41 0.08,0.73 0.23,0.96 0.16,0.23 0.39,0.35 0.7,0.35 0.42,0 0.84,-0.11 1.25,-0.34 0.41,-0.23 0.81,-0.52 1.19,-0.89 0.38,-0.37 0.74,-0.78 1.06,-1.25 0.33,-0.47 0.61,-0.95 0.85,-1.45 0.24,-0.5 0.43,-0.99 0.57,-1.46 0.14,-0.48 0.21,-0.91 0.21,-1.3 0,-0.33 -0.08,-0.6 -0.25,-0.83 -0.16,-0.23 -0.42,-0.34 -0.76,-0.34 -0.33,0 -0.68,0.11 -1.05,0.32 -0.37,0.21 -0.75,0.49 -1.13,0.83 -0.38,0.34 -0.74,0.74 -1.09,1.19 -0.34,0.45 -0.65,0.92 -0.92,1.4 -0.27,0.48 -0.49,0.97 -0.64,1.45 -0.16,0.48 -0.23,0.94 -0.23,1.36zm19.58 -6.64c-0.94,1.26 -1.82,2.55 -2.66,3.86 -0.83,1.31 -1.7,2.61 -2.58,3.91 0.78,-0.17 1.55,-0.45 2.3,-0.84 0.76,-0.39 1.47,-0.86 2.14,-1.4 0.67,-0.55 1.29,-1.15 1.86,-1.8 0.57,-0.65 1.05,-1.32 1.44,-1.99l0.09 0.14c-0.69,1.17 -1.44,2.14 -2.26,2.92 -0.82,0.78 -1.61,1.4 -2.37,1.87 -0.76,0.47 -1.45,0.81 -2.06,1.02 -0.61,0.21 -1.04,0.33 -1.31,0.36 -0.08,0.05 -0.23,0.25 -0.47,0.61 -0.23,0.36 -0.55,0.8 -0.94,1.31 -0.39,0.51 -0.85,1.06 -1.39,1.64 -0.54,0.58 -1.15,1.11 -1.82,1.6 -0.68,0.49 -1.43,0.9 -2.26,1.23 -0.83,0.33 -1.72,0.49 -2.67,0.49 -0.56,0 -1.08,-0.06 -1.57,-0.19 -0.48,-0.12 -0.9,-0.3 -1.25,-0.54 -0.35,-0.23 -0.62,-0.51 -0.82,-0.84 -0.19,-0.33 -0.29,-0.69 -0.29,-1.1 0,-0.67 0.24,-1.23 0.73,-1.67 0.48,-0.44 1.09,-0.67 1.82,-0.67 0.16,0 0.28,0.01 0.39,0.02 0.1,0.02 0.21,0.04 0.32,0.07l0 0.19 -0.19 0c-0.61,0 -1.06,0.19 -1.36,0.57 -0.3,0.38 -0.44,0.89 -0.44,1.53 0,0.42 0.07,0.78 0.22,1.08 0.15,0.3 0.35,0.54 0.61,0.73 0.26,0.19 0.56,0.32 0.9,0.41 0.34,0.09 0.72,0.13 1.12,0.13 0.69,0 1.36,-0.16 2.02,-0.48 0.66,-0.32 1.3,-0.74 1.91,-1.26 0.61,-0.52 1.19,-1.11 1.74,-1.77 0.55,-0.66 1.08,-1.31 1.57,-1.98 0.49,-0.66 0.94,-1.3 1.35,-1.92 0.41,-0.62 0.76,-1.14 1.08,-1.58l-0.05 -0.05c-0.25,0.3 -0.53,0.6 -0.83,0.9 -0.3,0.3 -0.63,0.58 -0.97,0.84 -0.34,0.26 -0.7,0.47 -1.08,0.63 -0.37,0.16 -0.76,0.25 -1.17,0.25 -0.3,0 -0.55,-0.05 -0.77,-0.16 -0.22,-0.11 -0.4,-0.25 -0.54,-0.43 -0.14,-0.18 -0.24,-0.38 -0.3,-0.6 -0.06,-0.22 -0.09,-0.43 -0.09,-0.63 0,-0.48 0.11,-0.98 0.32,-1.5 0.21,-0.51 0.49,-1.02 0.83,-1.51 0.34,-0.49 0.74,-0.95 1.19,-1.38 0.45,-0.43 0.92,-0.81 1.42,-1.13 0.49,-0.33 0.99,-0.59 1.49,-0.78 0.5,-0.2 0.96,-0.29 1.38,-0.29 0.61,0 1.05,0.15 1.32,0.46 0.27,0.3 0.41,0.66 0.41,1.06l0.07 0 0.87 -1.33 1.61 0zm-4.33 0.09c-0.51,0 -1.07,0.21 -1.67,0.64 -0.6,0.43 -1.16,0.96 -1.68,1.6 -0.52,0.64 -0.96,1.33 -1.3,2.08 -0.34,0.75 -0.51,1.45 -0.51,2.11 0,0.34 0.09,0.62 0.27,0.83 0.18,0.21 0.41,0.32 0.69,0.32 0.22,0 0.5,-0.09 0.85,-0.27 0.35,-0.18 0.72,-0.43 1.1,-0.75 0.38,-0.32 0.77,-0.69 1.16,-1.12 0.39,-0.43 0.74,-0.89 1.04,-1.37 0.3,-0.48 0.55,-0.99 0.75,-1.51 0.2,-0.52 0.29,-1.04 0.29,-1.56 0,-0.27 -0.07,-0.5 -0.22,-0.7 -0.15,-0.2 -0.4,-0.3 -0.76,-0.3zm9.17 -0.09l-2.97 4.33 0.05 0.05c0.22,-0.27 0.5,-0.57 0.83,-0.92 0.34,-0.35 0.7,-0.71 1.1,-1.08 0.4,-0.37 0.81,-0.73 1.25,-1.09 0.44,-0.36 0.87,-0.68 1.29,-0.96 0.08,-0.16 0.16,-0.28 0.26,-0.37 0.09,-0.09 0.28,-0.14 0.56,-0.14 0.17,0 0.32,0 0.46,0.01 0.13,0.01 0.27,0.02 0.41,0.04 -0.27,0.27 -0.52,0.59 -0.77,0.97 -0.25,0.38 -0.37,0.8 -0.37,1.25 0,0.36 0.09,0.64 0.27,0.84 0.18,0.2 0.4,0.3 0.67,0.3 0.23,0 0.46,-0.05 0.69,-0.14 0.23,-0.09 0.44,-0.21 0.64,-0.35 0.2,-0.14 0.4,-0.29 0.58,-0.44 0.19,-0.16 0.35,-0.3 0.49,-0.42l0.14 0.09c-0.16,0.16 -0.34,0.32 -0.54,0.5 -0.2,0.18 -0.42,0.35 -0.66,0.5 -0.23,0.16 -0.48,0.28 -0.75,0.39 -0.27,0.1 -0.54,0.15 -0.82,0.15 -0.5,0 -0.9,-0.15 -1.2,-0.46 -0.3,-0.3 -0.46,-0.73 -0.46,-1.27 0,-0.37 0.09,-0.71 0.26,-1.01l-0.05 -0.05c-0.64,0.44 -1.34,1.01 -2.11,1.72 -0.76,0.71 -1.58,1.55 -2.43,2.51 -0.31,0.34 -0.64,0.8 -0.97,1.36 -0.34,0.56 -0.63,1.14 -0.88,1.73l-1.52 0c0.84,-1.34 1.68,-2.67 2.53,-4 0.84,-1.33 1.71,-2.67 2.6,-4.05l1.43 0zm11.65 0l1.52 0c-0.58,0.81 -1.13,1.6 -1.66,2.36 -0.53,0.76 -1,1.47 -1.42,2.12 -0.41,0.65 -0.74,1.22 -0.99,1.71 -0.25,0.49 -0.37,0.88 -0.37,1.16 0,0.41 0.21,0.61 0.63,0.61 0.33,0 0.74,-0.16 1.25,-0.48 0.51,-0.32 1.06,-0.76 1.65,-1.32 0.59,-0.56 1.2,-1.22 1.82,-1.96 0.62,-0.75 1.22,-1.54 1.78,-2.39l0.14 0.05c-0.42,0.64 -0.92,1.33 -1.49,2.07 -0.57,0.74 -1.17,1.43 -1.79,2.07 -0.62,0.64 -1.25,1.17 -1.87,1.6 -0.62,0.43 -1.21,0.64 -1.75,0.64 -0.45,0 -0.78,-0.11 -0.99,-0.34 -0.21,-0.23 -0.32,-0.5 -0.32,-0.81 0,-0.22 0.04,-0.43 0.11,-0.64 0.07,-0.21 0.14,-0.42 0.22,-0.64l-0.05 -0.02c-0.2,0.22 -0.46,0.47 -0.76,0.76 -0.3,0.29 -0.63,0.56 -0.98,0.81 -0.35,0.25 -0.71,0.46 -1.09,0.63 -0.37,0.17 -0.73,0.26 -1.08,0.26 -0.58,0 -0.98,-0.18 -1.22,-0.54 -0.23,-0.36 -0.35,-0.76 -0.35,-1.22 0,-0.64 0.2,-1.35 0.61,-2.12 0.41,-0.77 0.92,-1.5 1.54,-2.18 0.62,-0.68 1.3,-1.24 2.04,-1.7 0.73,-0.45 1.43,-0.68 2.08,-0.68 0.31,0 0.58,0.04 0.82,0.13 0.23,0.09 0.43,0.2 0.58,0.35 0.16,0.15 0.28,0.32 0.36,0.5 0.09,0.19 0.15,0.38 0.2,0.58l0.05 0 0.77 -1.38zm-7.65 6.55c0,0.36 0.07,0.64 0.22,0.83 0.15,0.19 0.35,0.29 0.62,0.29 0.27,0 0.58,-0.1 0.94,-0.29 0.36,-0.2 0.73,-0.46 1.12,-0.78 0.39,-0.33 0.78,-0.71 1.16,-1.13 0.38,-0.43 0.72,-0.89 1.02,-1.37 0.3,-0.48 0.54,-0.97 0.73,-1.47 0.19,-0.5 0.28,-0.97 0.28,-1.43 0,-0.36 -0.1,-0.63 -0.3,-0.82 -0.2,-0.19 -0.45,-0.28 -0.75,-0.28 -0.47,0 -0.99,0.2 -1.57,0.61 -0.58,0.41 -1.12,0.92 -1.64,1.56 -0.51,0.63 -0.95,1.33 -1.3,2.09 -0.35,0.76 -0.53,1.5 -0.53,2.2zm24.82 -14.69c-0.61,0.97 -1.27,1.99 -1.99,3.06 -0.72,1.08 -1.43,2.14 -2.15,3.2 -0.72,1.06 -1.41,2.09 -2.07,3.08 -0.66,0.99 -1.25,1.9 -1.77,2.73 -0.51,0.83 -0.92,1.54 -1.23,2.14 -0.3,0.6 -0.46,1.04 -0.46,1.32 0,0.17 0.04,0.31 0.13,0.41 0.09,0.1 0.21,0.15 0.39,0.15 0.39,0 0.83,-0.16 1.33,-0.47 0.5,-0.31 1.1,-0.8 1.8,-1.47 0.61,-0.59 1.2,-1.25 1.78,-1.98 0.58,-0.73 1.08,-1.44 1.5,-2.14l0.19 0.09c-0.14,0.25 -0.32,0.54 -0.55,0.88 -0.23,0.34 -0.48,0.68 -0.75,1.04 -0.27,0.36 -0.57,0.72 -0.88,1.09 -0.31,0.37 -0.63,0.71 -0.96,1.04 -0.62,0.64 -1.24,1.17 -1.85,1.58 -0.61,0.41 -1.17,0.62 -1.68,0.62 -0.5,0 -0.87,-0.11 -1.11,-0.32 -0.24,-0.21 -0.36,-0.48 -0.36,-0.81 0,-0.3 0.06,-0.58 0.19,-0.87 0.12,-0.28 0.25,-0.53 0.37,-0.75l-0.05 -0.02c-0.25,0.28 -0.53,0.58 -0.83,0.9 -0.3,0.32 -0.63,0.62 -0.97,0.9 -0.34,0.28 -0.71,0.51 -1.09,0.69 -0.38,0.18 -0.78,0.27 -1.18,0.27 -0.56,0 -0.99,-0.17 -1.3,-0.51 -0.3,-0.34 -0.46,-0.75 -0.46,-1.22 0,-0.66 0.23,-1.37 0.68,-2.15 0.45,-0.78 1.02,-1.5 1.7,-2.18 0.68,-0.67 1.41,-1.23 2.19,-1.68 0.78,-0.45 1.5,-0.68 2.18,-0.68 0.5,0 0.9,0.16 1.19,0.47 0.3,0.31 0.44,0.71 0.42,1.19l0.07 0 6.04 -9.61 1.54 0zm-8.3 9.64c0,-0.37 -0.06,-0.7 -0.19,-0.98 -0.12,-0.28 -0.41,-0.42 -0.87,-0.42 -0.31,0 -0.66,0.11 -1.04,0.33 -0.38,0.22 -0.77,0.51 -1.16,0.87 -0.39,0.36 -0.77,0.77 -1.13,1.23 -0.37,0.46 -0.69,0.93 -0.97,1.4 -0.28,0.48 -0.51,0.94 -0.68,1.39 -0.17,0.45 -0.26,0.86 -0.26,1.22 0,0.33 0.06,0.6 0.19,0.82 0.12,0.22 0.35,0.33 0.68,0.33 0.28,0 0.6,-0.11 0.97,-0.33 0.37,-0.22 0.75,-0.5 1.16,-0.85 0.41,-0.35 0.8,-0.75 1.19,-1.2 0.39,-0.45 0.74,-0.9 1.05,-1.36 0.31,-0.45 0.57,-0.89 0.76,-1.32 0.19,-0.43 0.29,-0.8 0.29,-1.11zm16.16 0.63c-0.37,0.42 -0.8,0.76 -1.26,1.01 -0.47,0.25 -0.93,0.37 -1.38,0.37 -0.44,0 -0.81,-0.1 -1.12,-0.29 -0.31,-0.19 -0.55,-0.43 -0.73,-0.69l-0.05 0c-0.16,0.59 -0.44,1.22 -0.87,1.89 -0.42,0.67 -0.92,1.29 -1.51,1.85 -0.58,0.56 -1.23,1.03 -1.93,1.4 -0.7,0.37 -1.42,0.56 -2.15,0.56 -0.67,0 -1.18,-0.19 -1.52,-0.58 -0.34,-0.39 -0.51,-0.91 -0.51,-1.57 0,-0.34 0.09,-0.74 0.26,-1.19 0.17,-0.45 0.41,-0.91 0.71,-1.37 0.3,-0.46 0.66,-0.91 1.08,-1.36 0.41,-0.44 0.86,-0.84 1.35,-1.19 0.48,-0.35 0.99,-0.63 1.53,-0.84 0.54,-0.21 1.08,-0.32 1.63,-0.32 0.64,0 1.13,0.19 1.49,0.56 0.35,0.37 0.54,0.86 0.57,1.45 0.03,0.36 0.2,0.69 0.5,0.99 0.3,0.3 0.72,0.46 1.25,0.46 0.47,0 0.91,-0.12 1.32,-0.35 0.41,-0.23 0.8,-0.54 1.16,-0.91l0.19 0.12zm-11.77 4.51c0,0.41 0.08,0.73 0.23,0.96 0.16,0.23 0.39,0.35 0.7,0.35 0.42,0 0.84,-0.11 1.25,-0.34 0.41,-0.23 0.81,-0.52 1.19,-0.89 0.38,-0.37 0.74,-0.78 1.06,-1.25 0.33,-0.47 0.61,-0.95 0.85,-1.45 0.24,-0.5 0.43,-0.99 0.57,-1.46 0.14,-0.48 0.21,-0.91 0.21,-1.3 0,-0.33 -0.08,-0.6 -0.25,-0.83 -0.16,-0.23 -0.42,-0.34 -0.76,-0.34 -0.33,0 -0.68,0.11 -1.05,0.32 -0.37,0.21 -0.75,0.49 -1.13,0.83 -0.38,0.34 -0.74,0.74 -1.09,1.19 -0.34,0.45 -0.65,0.92 -0.92,1.4 -0.27,0.48 -0.49,0.97 -0.64,1.45 -0.16,0.48 -0.23,0.94 -0.23,1.36zm14.25 -6.64c-0.3,0.39 -0.67,0.88 -1.12,1.47 -0.45,0.59 -0.89,1.21 -1.32,1.86 -0.43,0.65 -0.8,1.29 -1.11,1.93 -0.31,0.64 -0.47,1.19 -0.47,1.66 0,0.28 0.09,0.52 0.26,0.73 0.17,0.2 0.46,0.3 0.87,0.3 0.61,0 1.23,-0.24 1.87,-0.73 0.64,-0.48 1.22,-1.07 1.75,-1.77 0.53,-0.69 0.97,-1.41 1.31,-2.15 0.34,-0.74 0.51,-1.37 0.51,-1.88 0,-0.12 -0.03,-0.26 -0.09,-0.4 -0.06,-0.14 -0.09,-0.3 -0.09,-0.47 0,-0.19 0.05,-0.36 0.16,-0.51 0.11,-0.16 0.27,-0.23 0.47,-0.23 0.22,0 0.41,0.12 0.57,0.37 0.16,0.25 0.25,0.68 0.25,1.29 0,0.17 -0.01,0.33 -0.04,0.48 -0.02,0.15 -0.04,0.29 -0.06,0.43 0.17,0.23 0.42,0.43 0.75,0.57 0.33,0.15 0.65,0.22 0.96,0.22 0.41,0 0.84,-0.11 1.3,-0.32 0.46,-0.21 0.84,-0.56 1.13,-1.04l0.19 0.12c-0.11,0.23 -0.26,0.44 -0.46,0.63 -0.19,0.19 -0.41,0.35 -0.64,0.48 -0.23,0.13 -0.48,0.23 -0.75,0.3 -0.27,0.07 -0.53,0.11 -0.8,0.11 -0.34,0 -0.67,-0.07 -0.98,-0.22 -0.31,-0.15 -0.58,-0.32 -0.8,-0.5 -0.19,0.61 -0.52,1.24 -0.99,1.88 -0.48,0.65 -1.03,1.24 -1.65,1.78 -0.62,0.54 -1.29,0.98 -2,1.32 -0.71,0.34 -1.41,0.51 -2.09,0.51 -0.65,0 -1.16,-0.15 -1.51,-0.46 -0.35,-0.3 -0.53,-0.81 -0.53,-1.51 0,-0.47 0.14,-0.98 0.43,-1.53 0.29,-0.55 0.63,-1.12 1.02,-1.68 0.39,-0.57 0.79,-1.12 1.19,-1.65 0.41,-0.53 0.73,-1 0.98,-1.4l1.52 0z"/>
  <path class="fil3" d="M119.7 110.48c0.05,-0.29 0.14,-0.54 0.29,-0.77 0.15,-0.23 0.32,-0.41 0.52,-0.55 0.2,-0.14 0.42,-0.24 0.64,-0.31 0.22,-0.07 0.45,-0.1 0.68,-0.1 0.39,0 0.73,0.08 1.02,0.24l-0.06 0.4c-0.22,-0.16 -0.53,-0.24 -0.93,-0.24 -0.19,0 -0.38,0.03 -0.56,0.08 -0.18,0.05 -0.36,0.13 -0.52,0.24 -0.17,0.11 -0.31,0.25 -0.43,0.43 -0.12,0.18 -0.2,0.4 -0.24,0.64 -0.03,0.2 -0.03,0.38 0,0.55 0.03,0.17 0.09,0.3 0.18,0.41 0.08,0.11 0.18,0.2 0.3,0.27 0.12,0.07 0.25,0.13 0.38,0.16 0.13,0.03 0.27,0.05 0.41,0.05 0.26,0 0.49,-0.04 0.69,-0.14l0.22 -1.39 0.43 0 -0.27 1.69c-0.36,0.15 -0.73,0.23 -1.13,0.23 -0.23,0 -0.44,-0.04 -0.65,-0.11 -0.21,-0.07 -0.4,-0.18 -0.57,-0.33 -0.17,-0.15 -0.29,-0.35 -0.37,-0.6 -0.08,-0.25 -0.09,-0.53 -0.04,-0.85zm5.3 -0.17c0.24,-0.35 0.61,-0.5 1.1,-0.46l-0.07 0.41c-0.22,-0.04 -0.43,-0.01 -0.63,0.1 -0.2,0.11 -0.34,0.26 -0.45,0.46l-0.24 1.49 -0.4 0 0.38 -2.4 0.36 0 -0.07 0.41zm4.91 0.82c-0.06,0.38 -0.23,0.69 -0.52,0.91 -0.29,0.22 -0.6,0.33 -0.95,0.33 -0.34,0 -0.62,-0.12 -0.84,-0.35 -0.22,-0.23 -0.3,-0.54 -0.24,-0.94 0.06,-0.38 0.24,-0.69 0.52,-0.91 0.29,-0.22 0.6,-0.33 0.94,-0.33 0.34,0 0.63,0.12 0.85,0.35 0.22,0.23 0.3,0.54 0.24,0.94zm-2.16 0c-0.04,0.26 0.01,0.47 0.15,0.63 0.14,0.15 0.33,0.23 0.58,0.23 0.26,0 0.48,-0.08 0.68,-0.25 0.2,-0.16 0.32,-0.38 0.36,-0.66 0.04,-0.26 -0.01,-0.47 -0.15,-0.63 -0.14,-0.15 -0.33,-0.23 -0.58,-0.23 -0.26,0 -0.48,0.08 -0.68,0.25 -0.2,0.16 -0.32,0.38 -0.36,0.66zm5.97 -1.23l0.4 0 -0.38 2.4 -0.36 0 0.06 -0.38c-0.1,0.13 -0.24,0.23 -0.41,0.31 -0.17,0.08 -0.34,0.12 -0.52,0.12 -0.3,0 -0.53,-0.09 -0.69,-0.28 -0.16,-0.19 -0.21,-0.43 -0.17,-0.73l0.23 -1.46 0.4 0 -0.23 1.45c-0.07,0.43 0.11,0.65 0.53,0.65 0.34,0 0.63,-0.16 0.88,-0.49l0.26 -1.6zm2.68 0.43c0.28,-0.32 0.62,-0.49 1.03,-0.49 0.35,0 0.62,0.12 0.81,0.37 0.19,0.25 0.26,0.55 0.2,0.92 -0.05,0.35 -0.21,0.65 -0.48,0.88 -0.26,0.24 -0.56,0.35 -0.9,0.35 -0.41,0 -0.7,-0.16 -0.88,-0.48l-0.24 1.52 -0.4 0 0.56 -3.5 0.36 0 -0.07 0.43zm1.66 0.78c0.04,-0.26 -0.01,-0.48 -0.14,-0.64 -0.13,-0.17 -0.32,-0.25 -0.55,-0.25 -0.21,0 -0.4,0.06 -0.58,0.17 -0.18,0.12 -0.32,0.26 -0.42,0.43l-0.09 0.6c0.05,0.16 0.14,0.3 0.27,0.41 0.14,0.11 0.3,0.17 0.5,0.17 0.25,0 0.47,-0.08 0.66,-0.24 0.19,-0.16 0.31,-0.38 0.35,-0.65z"/>
 </g>
</svg>
