<?xml version="1.0" encoding="utf-8"?>
<!-- Generator: Adobe Illustrator 23.0.5, SVG Export Plug-In . SVG Version: 6.00 Build 0)  -->
<svg version="1.1" id="Слой_1" xmlns="http://www.w3.org/2000/svg" xmlns:xlink="http://www.w3.org/1999/xlink" x="0px" y="0px"
	 viewBox="0 0 100 65" style="enable-background:new 0 0 100 65;" xml:space="preserve">
<style type="text/css">
	.st0{fill-rule:evenodd;clip-rule:evenodd;fill:#091A35;}
	.st1{fill:#091A35;}
</style>
<path class="st0" d="M50,22l1.2,0.8l-0.6,1.8c-0.4-0.2-0.4-0.1-0.7-1.1C49.7,22.9,49.8,22.5,50,22L50,22z M53.7,49.3
	c-0.3-0.6-0.4-0.7-1.1-1.1c0,1.6,2,5.2-1.4,4.7l0-0.9l0.6-3.1v-0.3c0.1-1,0.4,0.1,1.6-0.8c0.4-0.3,0.7-0.7,1-1.1c-0.2,0-0.3,0-0.5,0
	c-0.1,0-0.2,0-0.3,0c-0.5,0.6-1.1,1-1.8,1l-0.1-1.6c-0.1-0.1-0.2-0.2-0.4-0.2c-0.3-0.2-0.6-0.5-0.8-0.9c-0.5,1-1.9,1.7-3.2,1.1
	c-1.5-0.7-1.3-1.8-1.3-3h-1c-0.2,0.8-0.7,1.5-1.5,1.8c-0.3,0.4-0.5,0.7-0.8,1c0.8,0,1.7-0.3,2.3-1c0.2,0.5,0.5,0.8,0.7,1.3
	c-1.1,0.4-1.7,0.4-2.3,1.7c-0.5,1.2-0.4,2.3,0.2,3c0.5,0.7,1.5,1.4,2.7,1.4c1.5,0,1.1-0.1,2.1,1.1c-1.9,1.8-2.2,4.1,0.2,5.6
	c-0.2,0.5-0.3,0.7-0.2,1l0.4-0.8c2-0.1,1.3,4.5-1.1,4.3c-1.2-0.1-2.1-0.9-2.2-1.9c-0.1-1.6,1-1.8,1.4-2.6c-2.7,0.5-2.5,4.7,0.3,5.3
	c1.3,0.3,2.6-0.4,3.2-1.3c1-1.3,0.4-2.6,0.2-3.7c1.5-0.1,2.8-1,3.4-2.7c0.6-2.5-0.5-0.7-0.5-2.3c-0.5,0.3-0.4,1.3-0.5,2
	c-0.4,0.9-0.9,1.5-1.6,1.8c-0.3,0.1-0.8,0.3-1.2,0.3c-0.4,0-1.1,0.1-1-0.5l0.7-2.2l0.5-1.8c2.7,0,5.4,0.5,6.9-2.5
	c0.2-0.4,0.3-0.8,0.3-1.2c0.1-0.9,0-1.8-0.6-2.5c0.5-0.2,1.8-0.3,2.4-1.7c-0.1-0.1-0.2-0.2-0.3-0.2c-0.1-0.1-0.2-0.1-0.2-0.2
	c0,0.1-0.1,0.1-0.1,0.2l-0.6,0.8c-0.7,0.6-1.8,0.8-3.3-0.1c0,1.4,2,0.8,1.9,3.7C54.9,54.8,53.6,51.8,53.7,49.3L53.7,49.3z
	 M61.1,30.8c-0.4-0.5-0.8-0.8-1.5-1.1c0.8-2.5,0.3-5.1-2.7-5c0.1,1.1,0.8,0.4,1.8,1.6c0.4,0.5,0.7,1.4,0.4,2.3
	c-0.2,0.8-0.9,1.4-1.7,1.4c-1.2,0-1.5-0.7-2-1.2c0.8-2.2,1.3-2.7,0-4.7c0.5,0,0.9-0.1,1.3-0.2c-0.2-1.1-1.1-0.8-1.8-3.2
	c-0.4-1.5-1.1-2.9-1-3.8c1.8,0.7,2.2,0.8,4.1,1.1c0.8,1.6,1.8,2.1,4.1,2.6c0.1,5,8.8,2.8,10.6,0.3c-1,0.2-2.4,1.6-4.5,1.9
	c-2,0.2-3.9-0.2-4.8-2.1c0.4-0.4,1.7-0.6,2.3-1c1.7-1.1,0.9-3.9-1.9-2.2c-0.9,0.5-1,0.9-1.6,1.9c-1.7-0.3-2-0.5-2.8-1.6
	c0.9-0.6,1.8-0.9,2.7-1.9c2.7-3-1.5-4.5-3.6-2.8c-1.3,1.1-1.1,2-1.2,3.5c-1.4-0.2-2.2-0.5-3.3-1.1c-0.1-2.1-0.2-2.6,0.3-5
	c-0.6-0.6-0.9-0.9-1.4-1.4L52.6,11c-1.2-1.2-4.1-1.2-4.9,0.1c1.4,0.2,2-0.5,3.7,0.2c0.1,3.2-6.3,1.1-6.6,4.2
	c1.3,2.8,4.8-0.6,7.2,1.6c1.8,1.7,1.3,3.9,2.5,5.5c0.2,0.2,0.4,0.3,0.4,0.7c-2.8-0.4-3.5-1.6-5.3-2c-1.3,3,0.8,3.4,1.6,5.1
	c0.5,1.1-0.6,1.6-1,2.7c-0.4,1.2-0.4,2.2-0.6,3.3h0c0.1-0.2,0.2-0.5,0.3-0.7c0.1-0.1,0.2-0.3,0.3-0.4c0-1,0.5-2.2,1-2.9
	c0.9,1,1.9,1,3.1,1c0.2,0.7,0.2,1.4,0,2l0.5-0.5l0.5,0.3l0.3-0.9l1.1,0.5c-0.3,0.3-0.5,0.5-0.6,0.8l0.3,0.2c0.1-0.1,0.1-0.2,0.2-0.3
	c0.5-0.6,0.7-0.5,1.4-0.7c0.8-0.2,0.8-0.7,1.7,0c0.2,0.2,0.5,0.4,0.6,0.8C60.6,31.3,60.8,31,61.1,30.8L61.1,30.8z M49.3,32.4
	c-1.1-0.9-2.4-1.4-2.5-3.1c-3.4-1.6-3-1.2-3.7-5.7c-0.8-5.1-2.8-0.2-2.3,2.8c0.5,3.4-1.7,3.8-4,4.8l0.1,0.2c0,0.2,0.1,0.3,0.1,0.5
	c0.7-0.4,1.4-0.7,2.1-1c-0.2,0.7-0.5,1.1-0.7,1.7c0.3-0.3,0.7-0.6,1.1-0.9c0.4-0.5,0.9-0.9,1.6-0.9l0.1,0.2c0.3,0,0.5-0.1,0.8,0
	c-0.2-0.7,0-2.4,0.9-2.4c0.8,0.4,1.1,0.8,2.2,1.1c-0.1,1.3,0,1.2,0.3,1.9c0.2-0.1,0.5-0.2,0.7-0.2c-0.3-0.4-0.4-0.8-0.4-1.4
	c0.3,0.3,0.7,0.9,1.1,1.4c0.6,0.1,1.2,0.4,1.6,1.1c0,0,0,0.1,0,0.1L49.3,32.4L49.3,32.4z M28.5,16.9c-0.7,0.3-2-0.4-2.9-0.5
	c0.1,0.6-0.2,0.1,0.3,0.6c0.9,0.9,3.8,1.2,4.9,1.1c1.5-0.1,4.5,0.1,5.5,1.2c-0.7,1.3-4,1.1-4.6,2.4l0.7,0.6c-0.6,1-1.2,0.8-1.8,1.9
	c0.3,0.5,0.2,0.1,0.4,0.6l-1,1.7c0.5,1.2,0.9,0.5,0.8,2.5l0,3.1c0.2-0.3,0.4-0.5,0.6-0.7c0-0.3,0-0.6,0.1-0.9
	c0.1-1.7,0.4-2.6-0.4-3.8c1.7-2.4,0.8-1.9,1.1-2.7c0.4-0.9,1.5-0.5,1.4-2.4c1-0.3,2.4-0.7,3.2-1.2c1.3-0.7,1.3-1.8-0.3-2.5
	C33,16.4,30.5,17.6,28.5,16.9L28.5,16.9z M26.3,16c0.5-0.2,1.6-0.8,2.1-1.1c1.1-0.8,0.8-1.6,0.6-2.6c0.8-0.2,4.2-1.5,4.7-2.1
	c0.5-0.5-0.1-0.4,0.9-0.6c0.9-0.2,1.5,0,2.4-0.4c0.7-3.1,1.5-3.7,2.6-6.3C41,3.9,41.9,6,41.9,6c0.3,0.4,5.5,1.8,2.5,4.7
	c-0.8,0.8-3.5,2.6-1.4,4c0.6,0.4,1.2,0.6,1.8,0.3c-0.3-0.5-0.9-0.7-1.5-1.1c0.5-2.5,5-2.8,2.6-6.3C44.3,5.1,44.4,6.2,43,5l-2.2-2.9
	c-0.9-0.5-0.9-1.1-2-1.6c-0.5,1.9-0.5,2.3-1.4,3.9c-0.6,1.2-1.1,2.4-1.5,3.7c-1.5-0.2-2.7,0.2-3.7,0.6l0.3,0.6
	c-1,0.7-1.3,0.9-2.2,1.4l-2.2,1.2c0.2,0.7,0.9,1.4-0.1,2.4c-0.6,0.6-1.4,1.1-2.3,1.2C26.2,16.3,25.7,15.8,26.3,16L26.3,16z
	 M33.7,30.1c2.1-3.8,5.2-8.1,7.2-9.9c-0.5,1.3-2.1,4.2-1.5,5.7c0.9-2.8,2.1-6.3,4.2-7.7c0.2,0.2,0.8,1.9,1.7,3.4l3.9,5.1
	c-0.1-1.4-2.3-4.5-3.2-6c-0.3-0.4-0.4-0.6-0.6-1c-0.2-0.3-0.2-0.6-0.4-0.8c1.3,0.6,8.5,2.9,8.9,3.4c0-0.6,0.2-0.2-0.3-0.7
	c-0.4-0.4-4.5-2.1-5-2.3c-2.2-0.9-4.2-1.5-4.2-3.5c-2.6,0-3.5-1.7-3.8-3.7c-0.2-1.2-0.5-3.8-1.1-4.9c-0.2-0.4,0-0.2-0.4-0.5
	c0.1,0.9,0.3,1.5,0.4,2.5c0.2,3.4,0,4.2,1.8,6.8c-1.6-0.2-9.5-2.7-11.2-0.5c1-0.1,1.6-0.4,2.7-0.4c3.1-0.1,6.3,1.8,9,2.1
	c-0.4,0.6-1.1,1.1-1.7,1.7c-2.7,3-6,7.2-7.8,11.4C32.9,30.2,33.3,30.1,33.7,30.1L33.7,30.1z M53.3,23.7l0.5,0.4
	c0.9,0.7,1.8,1.6,1.2,3.2c-0.7,1.8-3,1.3-3.2,0.3l0.6-1c-1.1-1-0.7-1.7-0.1-3.3C53.1,23.5,52.5,23.6,53.3,23.7L53.3,23.7z
	 M47.1,51.2c-2.3,0.3-4-1.6-2.5-3.6c0.5-0.7,1.3-1,2.4-0.6c0.8,0.3,0.7,0.4,1.6,0.3c0.3,0,0.5-0.2,1,0.1c0.2,0.1,0.2,0.2,0.2,0.3
	C48,48.4,47.2,48.5,47.1,51.2L47.1,51.2z M49.1,57.9c-0.8-0.1-1.3-0.9-1.3-1.8c-0.1-1.3,0.6-2,1.2-2.5l1.3,0.3L49.1,57.9L49.1,57.9z
	 M50.6,51.9l-0.2,1c-1.6-0.3-2.8-1.2-2.5-2.7c0.3-1.8,1.6-2.3,3.2-2.1L50.6,51.9L50.6,51.9z M50.3,47.3c-0.1,0-0.4-0.2-0.5-0.4
	c0.8-0.4,0.7-0.9,1.3-0.9C51,47.2,51.3,47.7,50.3,47.3L50.3,47.3z M63.4,19.3c0.2-0.7,0.8-1.2,1.6-0.9c-0.1,0.4,0,0.4-0.6,0.7
	C64.2,19.1,63.7,19.2,63.4,19.3z M45.8,15.8c-0.2-1.4,4.2-2,4.5-2c0.4,0.9,0.5,0.8,1.2,1.5C48.4,15,47.1,16.4,45.8,15.8z M52.5,12.9
	c0.2,0.5,0.3,1.2,0.2,1.9c-0.3-0.2-0.5-0.4-0.8-0.7c-0.5-0.4-0.4-0.3-0.5-0.8c0.2,0,0.3-0.1,0.5-0.2l0.4-0.2
	C52.4,12.9,52.4,12.9,52.5,12.9L52.5,12.9z M58.6,16.2c0-1.5,1-3,2.4-2.1c0,0.8-0.5,1.1-0.9,1.4C59.6,15.8,59.2,16.1,58.6,16.2
	L58.6,16.2z"/>
<path class="st1" d="M12,25.6c-0.8,0.6-1.5,1.4-2.1,2.2c-0.6,0.8-1.1,1.7-1.5,2.6c-0.4,0.9-0.8,1.8-1.1,2.8c-0.3,1-0.7,1.9-1.1,2.8
	c-0.4,0.9-0.8,1.8-1.3,2.7C4.6,39.5,4,40.3,3.3,41l0,0c0.9-0.5,1.7-1,2.5-1.5s1.6-1,2.3-1.4c1.9-1.2,3.4-2.4,4.5-3.5
	c1.1-1.1,1.9-2.1,2.5-3.1c0.6-0.9,0.9-1.8,1.1-2.4c0.2-0.7,0.2-1.2,0.2-1.6c-0.2-0.1-0.3-0.2-0.4-0.3C16,27.1,16,26.9,16,26.7
	c0-0.3,0.1-0.5,0.3-0.6c0.2-0.2,0.4-0.3,0.6-0.3c0.4,0,0.7,0.1,0.8,0.4c0.1,0.3,0.2,0.6,0.2,1.1c0,0.6-0.1,1.2-0.4,1.9
	c-0.3,0.7-0.7,1.3-1.2,2c-0.5,0.7-1.1,1.4-1.7,2c-0.7,0.7-1.3,1.3-2.1,2c-0.7,0.6-1.5,1.2-2.3,1.8c-0.8,0.6-1.6,1.1-2.3,1.6
	c-0.9,0.5-1.8,1.1-2.7,1.6c-0.9,0.5-1.8,1.1-2.8,1.7l-0.1-0.1c0.5-0.8,1-1.6,1.4-2.5c0.4-0.9,0.7-1.8,1.1-2.7c0.3-0.9,0.7-1.9,1-2.8
	c0.3-0.9,0.7-1.8,1.2-2.7c0.4-0.9,1-1.7,1.6-2.4c0.6-0.8,1.3-1.4,2.2-2l0,0c-0.6,0.3-1.3,0.6-2.1,0.8c-0.7,0.2-1.5,0.4-2.3,0.6
	c-0.5,0.1-1,0.3-1.6,0.5c-0.6,0.2-1.1,0.5-1.6,0.9S2.1,30,1.8,30.5c-0.3,0.5-0.5,1-0.5,1.7c0,0.5,0.2,0.9,0.5,1.2
	c0.3,0.3,0.7,0.4,1.2,0.4c0.3,0,0.5-0.1,0.8-0.2c0.3-0.1,0.5-0.3,0.7-0.5c0.2-0.2,0.4-0.4,0.5-0.7s0.2-0.6,0.2-0.9
	c0-0.2,0-0.3,0-0.4c0-0.1,0-0.3,0-0.4h0.3c0,0.1,0,0.3,0,0.4c0,0.1,0,0.3,0,0.5c0,0.3-0.1,0.6-0.2,0.9s-0.3,0.5-0.5,0.8
	c-0.2,0.2-0.5,0.4-0.8,0.5c-0.3,0.1-0.6,0.2-1,0.2c-0.6,0-1.2-0.2-1.6-0.6c-0.4-0.4-0.7-0.9-0.7-1.5c0-0.7,0.2-1.3,0.6-1.8
	S2,29.3,2.5,29c0.5-0.3,1.1-0.6,1.8-0.8c0.6-0.2,1.2-0.4,1.7-0.5c0.4-0.1,0.9-0.2,1.4-0.4c0.5-0.1,1.1-0.2,1.6-0.4
	c0.5-0.2,1.1-0.3,1.6-0.6c0.5-0.2,1-0.5,1.3-0.8L12,25.6L12,25.6z M17.7,33.9c-0.8,1.2-1.5,2.2-2.1,3c-0.6,0.8-1,1.5-1.4,2.1
	c-0.4,0.5-0.6,1-0.8,1.3c-0.2,0.3-0.2,0.6-0.2,0.8c0,0.4,0.2,0.6,0.5,0.6c0.3,0,0.7-0.1,1.1-0.3c0.4-0.2,0.8-0.5,1.3-0.9
	c0.4-0.4,0.9-0.7,1.3-1.2c0.4-0.4,0.9-0.9,1.2-1.3c0.4-0.4,0.7-0.8,1-1.3c0.3-0.4,0.5-0.7,0.7-1l0.2,0.1c-0.2,0.3-0.4,0.7-0.7,1.1
	c-0.3,0.4-0.7,0.9-1.1,1.3c-0.4,0.4-0.8,0.9-1.3,1.3c-0.4,0.4-0.9,0.8-1.3,1.2c-0.5,0.4-0.9,0.6-1.3,0.8c-0.4,0.2-0.8,0.3-1.2,0.3
	c-0.4,0-0.7-0.1-0.9-0.3c-0.2-0.2-0.3-0.5-0.3-0.7c0-0.3,0.1-0.7,0.2-1c0.1-0.4,0.4-0.8,0.7-1.3c0.3-0.5,0.7-1.1,1.2-1.9
	c0.5-0.7,1.1-1.6,1.8-2.7L17.7,33.9L17.7,33.9z M19,29.6c0.2,0,0.4,0.1,0.5,0.2c0.1,0.1,0.2,0.3,0.2,0.5c0,0.2-0.1,0.4-0.2,0.5
	c-0.1,0.1-0.3,0.2-0.5,0.2s-0.4-0.1-0.5-0.2c-0.1-0.1-0.2-0.3-0.2-0.5c0-0.2,0.1-0.4,0.2-0.5C18.6,29.7,18.8,29.6,19,29.6z
	 M22.4,33.9l-3,4.2l0,0c0.3-0.4,0.7-0.8,1.1-1.3c0.4-0.5,0.9-1,1.4-1.4c0.5-0.5,1-0.8,1.5-1.1c0.5-0.3,1-0.5,1.6-0.5
	c0.5,0,0.8,0.1,1.1,0.4c0.3,0.3,0.4,0.6,0.4,1c0,0.2-0.1,0.5-0.3,0.9c-0.2,0.3-0.4,0.7-0.7,1.1c-0.3,0.4-0.5,0.8-0.8,1.2
	c-0.3,0.4-0.6,0.8-0.8,1.1c-0.3,0.4-0.5,0.7-0.7,1C23,40.5,23,40.8,23,41c0,0.4,0.2,0.6,0.6,0.6c0.5,0,1-0.2,1.5-0.5
	c0.5-0.3,1.2-0.9,2-1.7c0.3-0.3,0.6-0.6,0.9-1c0.3-0.4,0.6-0.7,0.9-1.1c0.3-0.4,0.6-0.7,0.8-1c0.2-0.3,0.4-0.6,0.6-0.8l0.2,0.1
	c-0.3,0.5-0.7,1-1.2,1.6c-0.5,0.6-1,1.2-1.6,1.9c-0.3,0.4-0.7,0.7-1,1.1c-0.4,0.3-0.7,0.6-1.1,0.9c-0.4,0.3-0.7,0.4-1,0.6
	c-0.3,0.1-0.7,0.2-1,0.2c-0.4,0-0.8-0.1-1.1-0.4c-0.3-0.2-0.4-0.6-0.4-1c0-0.5,0.2-1,0.5-1.5c0.4-0.5,0.8-1.1,1.2-1.6
	c0.4-0.5,0.8-1.1,1.2-1.6c0.4-0.5,0.5-0.9,0.5-1.3c0-0.2-0.1-0.3-0.2-0.4C25.3,34,25.1,34,24.9,34c-0.4,0-0.8,0.1-1.3,0.4
	c-0.5,0.3-1,0.7-1.4,1.1c-0.5,0.5-1,1-1.5,1.5c-0.5,0.6-1,1.1-1.4,1.7c-0.4,0.6-0.8,1.1-1.1,1.6c-0.3,0.5-0.6,1-0.7,1.3H16
	c0.4-0.7,0.8-1.3,1.3-2s0.9-1.4,1.3-2.1c0.4-0.7,0.9-1.3,1.3-2c0.4-0.6,0.8-1.2,1.1-1.7L22.4,33.9L22.4,33.9z M40.5,35.9
	c-0.4,0.4-0.8,0.7-1.2,1c-0.5,0.2-0.9,0.4-1.3,0.4c-0.4,0-0.8-0.1-1.1-0.3c-0.3-0.2-0.5-0.4-0.7-0.7h0c-0.2,0.6-0.4,1.2-0.8,1.8
	c-0.4,0.7-0.9,1.3-1.5,1.8c-0.6,0.5-1.2,1-1.9,1.4c-0.7,0.4-1.4,0.5-2.1,0.5c-0.7,0-1.1-0.2-1.5-0.6c-0.3-0.4-0.5-0.9-0.5-1.5
	c0-0.3,0.1-0.7,0.3-1.2c0.2-0.4,0.4-0.9,0.7-1.3c0.3-0.4,0.6-0.9,1.1-1.3c0.4-0.4,0.8-0.8,1.3-1.2c0.5-0.3,1-0.6,1.5-0.8
	c0.5-0.2,1.1-0.3,1.6-0.3c0.6,0,1.1,0.2,1.4,0.5c0.3,0.4,0.5,0.8,0.6,1.4c0,0.4,0.2,0.7,0.5,1c0.3,0.3,0.7,0.4,1.2,0.4
	c0.5,0,0.9-0.1,1.3-0.3c0.4-0.2,0.8-0.5,1.1-0.9L40.5,35.9L40.5,35.9z M29,40.3c0,0.4,0.1,0.7,0.2,0.9c0.2,0.2,0.4,0.3,0.7,0.3
	c0.4,0,0.8-0.1,1.2-0.3c0.4-0.2,0.8-0.5,1.2-0.9c0.4-0.4,0.7-0.8,1-1.2c0.3-0.5,0.6-0.9,0.8-1.4s0.4-1,0.6-1.4
	c0.1-0.5,0.2-0.9,0.2-1.3c0-0.3-0.1-0.6-0.2-0.8C34.5,34.1,34.3,34,34,34c-0.3,0-0.7,0.1-1,0.3c-0.4,0.2-0.7,0.5-1.1,0.8
	c-0.4,0.3-0.7,0.7-1.1,1.2c-0.3,0.4-0.6,0.9-0.9,1.4s-0.5,0.9-0.6,1.4C29.1,39.5,29,39.9,29,40.3L29,40.3z M48.1,33.9
	c-0.9,1.2-1.8,2.5-2.6,3.8c-0.8,1.3-1.7,2.5-2.5,3.8c0.8-0.2,1.5-0.4,2.2-0.8c0.7-0.4,1.4-0.8,2.1-1.4c0.7-0.5,1.3-1.1,1.8-1.8
	s1-1.3,1.4-1.9l0.1,0.1c-0.7,1.1-1.4,2.1-2.2,2.8c-0.8,0.8-1.6,1.4-2.3,1.8c-0.7,0.5-1.4,0.8-2,1s-1,0.3-1.3,0.4
	c-0.1,0-0.2,0.2-0.5,0.6c-0.2,0.4-0.5,0.8-0.9,1.3c-0.4,0.5-0.8,1-1.4,1.6c-0.5,0.6-1.1,1.1-1.8,1.6c-0.7,0.5-1.4,0.9-2.2,1.2
	c-0.8,0.3-1.7,0.5-2.6,0.5c-0.5,0-1.1-0.1-1.5-0.2c-0.5-0.1-0.9-0.3-1.2-0.5c-0.3-0.2-0.6-0.5-0.8-0.8c-0.2-0.3-0.3-0.7-0.3-1.1
	c0-0.7,0.2-1.2,0.7-1.6c0.5-0.4,1.1-0.7,1.8-0.7c0.2,0,0.3,0,0.4,0c0.1,0,0.2,0,0.3,0.1v0.2h-0.2c-0.6,0-1,0.2-1.3,0.6
	c-0.3,0.4-0.4,0.9-0.4,1.5c0,0.4,0.1,0.8,0.2,1.1c0.1,0.3,0.3,0.5,0.6,0.7s0.5,0.3,0.9,0.4c0.3,0.1,0.7,0.1,1.1,0.1
	c0.7,0,1.3-0.2,2-0.5c0.6-0.3,1.3-0.7,1.9-1.2c0.6-0.5,1.2-1.1,1.7-1.7c0.5-0.6,1.1-1.3,1.5-1.9c0.5-0.6,0.9-1.3,1.3-1.9
	c0.4-0.6,0.7-1.1,1.1-1.5l0,0c-0.2,0.3-0.5,0.6-0.8,0.9s-0.6,0.6-0.9,0.8c-0.3,0.3-0.7,0.5-1.1,0.6c-0.4,0.2-0.7,0.2-1.1,0.2
	c-0.3,0-0.5,0-0.7-0.2c-0.2-0.1-0.4-0.2-0.5-0.4s-0.2-0.4-0.3-0.6c-0.1-0.2-0.1-0.4-0.1-0.6c0-0.5,0.1-1,0.3-1.5
	c0.2-0.5,0.5-1,0.8-1.5c0.3-0.5,0.7-0.9,1.2-1.3c0.4-0.4,0.9-0.8,1.4-1.1c0.5-0.3,1-0.6,1.4-0.8c0.5-0.2,0.9-0.3,1.3-0.3
	c0.6,0,1,0.1,1.3,0.4c0.3,0.3,0.4,0.6,0.4,1h0.1l0.8-1.3L48.1,33.9L48.1,33.9z M43.9,34c-0.5,0-1,0.2-1.6,0.6
	c-0.6,0.4-1.1,0.9-1.6,1.6s-0.9,1.3-1.3,2c-0.3,0.7-0.5,1.4-0.5,2.1c0,0.3,0.1,0.6,0.3,0.8c0.2,0.2,0.4,0.3,0.7,0.3
	c0.2,0,0.5-0.1,0.8-0.3c0.3-0.2,0.7-0.4,1.1-0.7c0.4-0.3,0.7-0.7,1.1-1.1c0.4-0.4,0.7-0.9,1-1.3s0.5-1,0.7-1.5
	c0.2-0.5,0.3-1,0.3-1.5c0-0.3-0.1-0.5-0.2-0.7C44.5,34.1,44.2,34,43.9,34L43.9,34z M52.8,33.9l-2.9,4.2l0,0c0.2-0.3,0.5-0.6,0.8-0.9
	c0.3-0.3,0.7-0.7,1.1-1.1c0.4-0.4,0.8-0.7,1.2-1.1c0.4-0.4,0.8-0.7,1.3-0.9c0.1-0.2,0.2-0.3,0.3-0.4c0.1-0.1,0.3-0.1,0.5-0.1
	c0.2,0,0.3,0,0.4,0c0.1,0,0.3,0,0.4,0c-0.3,0.3-0.5,0.6-0.7,0.9c-0.2,0.4-0.4,0.8-0.4,1.2c0,0.4,0.1,0.6,0.3,0.8s0.4,0.3,0.7,0.3
	c0.2,0,0.4,0,0.7-0.1c0.2-0.1,0.4-0.2,0.6-0.3c0.2-0.1,0.4-0.3,0.6-0.4c0.2-0.2,0.3-0.3,0.5-0.4l0.1,0.1c-0.2,0.2-0.3,0.3-0.5,0.5
	c-0.2,0.2-0.4,0.3-0.6,0.5c-0.2,0.2-0.5,0.3-0.7,0.4c-0.3,0.1-0.5,0.1-0.8,0.1c-0.5,0-0.9-0.1-1.2-0.4c-0.3-0.3-0.4-0.7-0.4-1.2
	c0-0.4,0.1-0.7,0.3-1l0,0c-0.6,0.4-1.3,1-2.1,1.7c-0.7,0.7-1.5,1.5-2.4,2.4c-0.3,0.3-0.6,0.8-0.9,1.3c-0.3,0.5-0.6,1.1-0.9,1.7h-1.5
	c0.8-1.3,1.6-2.6,2.5-3.9c0.8-1.3,1.7-2.6,2.5-3.9L52.8,33.9L52.8,33.9z M64.1,33.9h1.5c-0.6,0.8-1.1,1.6-1.6,2.3
	c-0.5,0.7-1,1.4-1.4,2.1c-0.4,0.6-0.7,1.2-1,1.7c-0.2,0.5-0.4,0.9-0.4,1.1c0,0.4,0.2,0.6,0.6,0.6c0.3,0,0.7-0.2,1.2-0.5
	c0.5-0.3,1-0.7,1.6-1.3c0.6-0.5,1.2-1.2,1.8-1.9c0.6-0.7,1.2-1.5,1.7-2.3l0.1,0c-0.4,0.6-0.9,1.3-1.4,2s-1.1,1.4-1.7,2
	s-1.2,1.1-1.8,1.6s-1.2,0.6-1.7,0.6c-0.4,0-0.8-0.1-1-0.3c-0.2-0.2-0.3-0.5-0.3-0.8c0-0.2,0-0.4,0.1-0.6s0.1-0.4,0.2-0.6l0,0
	c-0.2,0.2-0.4,0.5-0.7,0.7c-0.3,0.3-0.6,0.5-1,0.8c-0.3,0.2-0.7,0.4-1.1,0.6c-0.4,0.2-0.7,0.3-1.1,0.3c-0.6,0-1-0.2-1.2-0.5
	c-0.2-0.4-0.3-0.7-0.3-1.2c0-0.6,0.2-1.3,0.6-2.1c0.4-0.7,0.9-1.5,1.5-2.1s1.3-1.2,2-1.7c0.7-0.4,1.4-0.7,2-0.7c0.3,0,0.6,0,0.8,0.1
	c0.2,0.1,0.4,0.2,0.6,0.3c0.2,0.1,0.3,0.3,0.4,0.5c0.1,0.2,0.1,0.4,0.2,0.6h0L64.1,33.9L64.1,33.9z M56.7,40.2
	c0,0.4,0.1,0.6,0.2,0.8c0.1,0.2,0.3,0.3,0.6,0.3c0.3,0,0.6-0.1,0.9-0.3c0.4-0.2,0.7-0.4,1.1-0.8c0.4-0.3,0.8-0.7,1.1-1.1
	c0.4-0.4,0.7-0.9,1-1.3c0.3-0.5,0.5-0.9,0.7-1.4s0.3-0.9,0.3-1.4c0-0.4-0.1-0.6-0.3-0.8c-0.2-0.2-0.4-0.3-0.7-0.3
	c-0.5,0-1,0.2-1.5,0.6c-0.6,0.4-1.1,0.9-1.6,1.5c-0.5,0.6-0.9,1.3-1.3,2C56.9,38.8,56.7,39.6,56.7,40.2L56.7,40.2z M80.8,26
	c-0.6,0.9-1.2,1.9-1.9,3C78.2,30,77.5,31,76.8,32c-0.7,1-1.4,2-2,3c-0.6,1-1.2,1.8-1.7,2.7c-0.5,0.8-0.9,1.5-1.2,2.1
	c-0.3,0.6-0.4,1-0.4,1.3c0,0.2,0,0.3,0.1,0.4c0.1,0.1,0.2,0.1,0.4,0.1c0.4,0,0.8-0.2,1.3-0.5c0.5-0.3,1.1-0.8,1.8-1.4
	c0.6-0.6,1.2-1.2,1.7-1.9s1.1-1.4,1.5-2.1l0.2,0.1c-0.1,0.2-0.3,0.5-0.5,0.9c-0.2,0.3-0.5,0.7-0.7,1c-0.3,0.4-0.6,0.7-0.9,1.1
	c-0.3,0.4-0.6,0.7-0.9,1c-0.6,0.6-1.2,1.1-1.8,1.5s-1.1,0.6-1.6,0.6c-0.5,0-0.8-0.1-1.1-0.3s-0.4-0.5-0.4-0.8c0-0.3,0.1-0.6,0.2-0.8
	c0.1-0.3,0.2-0.5,0.4-0.7l0,0c-0.2,0.3-0.5,0.6-0.8,0.9c-0.3,0.3-0.6,0.6-0.9,0.9c-0.3,0.3-0.7,0.5-1.1,0.7s-0.8,0.3-1.1,0.3
	c-0.5,0-1-0.2-1.3-0.5c-0.3-0.3-0.4-0.7-0.4-1.2c0-0.6,0.2-1.3,0.7-2.1c0.4-0.8,1-1.5,1.7-2.1c0.7-0.7,1.4-1.2,2.1-1.6
	c0.8-0.4,1.5-0.7,2.1-0.7c0.5,0,0.9,0.2,1.2,0.5c0.3,0.3,0.4,0.7,0.4,1.2h0.1l5.9-9.3L80.8,26L80.8,26z M72.7,35.3
	c0-0.4-0.1-0.7-0.2-1c-0.1-0.3-0.4-0.4-0.8-0.4c-0.3,0-0.6,0.1-1,0.3s-0.7,0.5-1.1,0.8c-0.4,0.4-0.7,0.7-1.1,1.2
	c-0.4,0.4-0.7,0.9-0.9,1.4c-0.3,0.5-0.5,0.9-0.7,1.4c-0.2,0.4-0.3,0.8-0.3,1.2c0,0.3,0.1,0.6,0.2,0.8c0.1,0.2,0.3,0.3,0.7,0.3
	c0.3,0,0.6-0.1,0.9-0.3c0.4-0.2,0.7-0.5,1.1-0.8c0.4-0.3,0.8-0.7,1.2-1.2c0.4-0.4,0.7-0.9,1-1.3c0.3-0.4,0.6-0.9,0.7-1.3
	C72.6,36,72.7,35.6,72.7,35.3L72.7,35.3z M88.5,35.9c-0.4,0.4-0.8,0.7-1.2,1c-0.5,0.2-0.9,0.4-1.3,0.4c-0.4,0-0.8-0.1-1.1-0.3
	c-0.3-0.2-0.5-0.4-0.7-0.7h0c-0.2,0.6-0.4,1.2-0.8,1.8c-0.4,0.7-0.9,1.3-1.5,1.8c-0.6,0.5-1.2,1-1.9,1.4c-0.7,0.4-1.4,0.5-2.1,0.5
	c-0.7,0-1.1-0.2-1.5-0.6s-0.5-0.9-0.5-1.5c0-0.3,0.1-0.7,0.3-1.2c0.2-0.4,0.4-0.9,0.7-1.3c0.3-0.4,0.6-0.9,1.1-1.3
	c0.4-0.4,0.8-0.8,1.3-1.2c0.5-0.3,1-0.6,1.5-0.8c0.5-0.2,1.1-0.3,1.6-0.3c0.6,0,1.1,0.2,1.4,0.5c0.3,0.4,0.5,0.8,0.6,1.4
	c0,0.4,0.2,0.7,0.5,1c0.3,0.3,0.7,0.4,1.2,0.4c0.5,0,0.9-0.1,1.3-0.3c0.4-0.2,0.8-0.5,1.1-0.9L88.5,35.9L88.5,35.9z M77,40.3
	c0,0.4,0.1,0.7,0.2,0.9c0.2,0.2,0.4,0.3,0.7,0.3c0.4,0,0.8-0.1,1.2-0.3c0.4-0.2,0.8-0.5,1.2-0.9c0.4-0.4,0.7-0.8,1-1.2
	c0.3-0.5,0.6-0.9,0.8-1.4c0.2-0.5,0.4-1,0.6-1.4c0.1-0.5,0.2-0.9,0.2-1.3c0-0.3-0.1-0.6-0.2-0.8c-0.2-0.2-0.4-0.3-0.7-0.3
	c-0.3,0-0.7,0.1-1,0.3c-0.4,0.2-0.7,0.5-1.1,0.8c-0.4,0.3-0.7,0.7-1.1,1.2c-0.3,0.4-0.6,0.9-0.9,1.4s-0.5,0.9-0.6,1.4
	C77.1,39.5,77,39.9,77,40.3L77,40.3z M90.9,33.9c-0.3,0.4-0.7,0.9-1.1,1.4c-0.4,0.6-0.9,1.2-1.3,1.8c-0.4,0.6-0.8,1.3-1.1,1.9
	c-0.3,0.6-0.5,1.2-0.5,1.6c0,0.3,0.1,0.5,0.3,0.7c0.2,0.2,0.4,0.3,0.8,0.3c0.6,0,1.2-0.2,1.8-0.7c0.6-0.5,1.2-1,1.7-1.7
	c0.5-0.7,0.9-1.4,1.3-2.1s0.5-1.3,0.5-1.8c0-0.1,0-0.3-0.1-0.4c-0.1-0.1-0.1-0.3-0.1-0.5c0-0.2,0-0.4,0.2-0.5
	c0.1-0.2,0.3-0.2,0.5-0.2c0.2,0,0.4,0.1,0.6,0.4c0.2,0.2,0.2,0.7,0.2,1.3c0,0.2,0,0.3,0,0.5c0,0.1,0,0.3-0.1,0.4
	c0.2,0.2,0.4,0.4,0.7,0.6c0.3,0.1,0.6,0.2,0.9,0.2c0.4,0,0.8-0.1,1.3-0.3c0.4-0.2,0.8-0.5,1.1-1l0.2,0.1c-0.1,0.2-0.3,0.4-0.4,0.6
	c-0.2,0.2-0.4,0.3-0.6,0.5c-0.2,0.1-0.5,0.2-0.7,0.3c-0.3,0.1-0.5,0.1-0.8,0.1c-0.3,0-0.7-0.1-1-0.2c-0.3-0.1-0.6-0.3-0.8-0.5
	c-0.2,0.6-0.5,1.2-1,1.8c-0.5,0.6-1,1.2-1.6,1.7s-1.3,1-1.9,1.3c-0.7,0.3-1.4,0.5-2,0.5c-0.6,0-1.1-0.1-1.5-0.4
	c-0.3-0.3-0.5-0.8-0.5-1.5c0-0.5,0.1-1,0.4-1.5c0.3-0.5,0.6-1.1,1-1.6c0.4-0.6,0.8-1.1,1.2-1.6c0.4-0.5,0.7-1,1-1.4L90.9,33.9
	L90.9,33.9z"/>
<path class="st1" d="M72.2,45.9c0-0.3,0.1-0.5,0.3-0.7c0.1-0.2,0.3-0.4,0.5-0.5c0.2-0.1,0.4-0.2,0.6-0.3c0.2-0.1,0.4-0.1,0.7-0.1
	c0.4,0,0.7,0.1,1,0.2l-0.1,0.4c-0.2-0.2-0.5-0.2-0.9-0.2c-0.2,0-0.4,0-0.5,0.1c-0.2,0-0.4,0.1-0.5,0.2c-0.2,0.1-0.3,0.2-0.4,0.4
	c-0.1,0.2-0.2,0.4-0.2,0.6c0,0.2,0,0.4,0,0.5c0,0.2,0.1,0.3,0.2,0.4c0.1,0.1,0.2,0.2,0.3,0.3c0.1,0.1,0.2,0.1,0.4,0.2
	c0.1,0,0.3,0,0.4,0c0.3,0,0.5,0,0.7-0.1l0.2-1.4h0.4l-0.3,1.6c-0.4,0.1-0.7,0.2-1.1,0.2c-0.2,0-0.4,0-0.6-0.1
	c-0.2-0.1-0.4-0.2-0.6-0.3c-0.2-0.1-0.3-0.3-0.4-0.6C72.2,46.5,72.2,46.2,72.2,45.9L72.2,45.9z M77.4,45.7c0.2-0.3,0.6-0.5,1.1-0.4
	l-0.1,0.4c-0.2,0-0.4,0-0.6,0.1s-0.3,0.3-0.4,0.4l-0.2,1.4h-0.4l0.4-2.3h0.4L77.4,45.7L77.4,45.7z M82.1,46.5
	c-0.1,0.4-0.2,0.7-0.5,0.9c-0.3,0.2-0.6,0.3-0.9,0.3c-0.3,0-0.6-0.1-0.8-0.3c-0.2-0.2-0.3-0.5-0.2-0.9c0.1-0.4,0.2-0.7,0.5-0.9
	c0.3-0.2,0.6-0.3,0.9-0.3s0.6,0.1,0.8,0.3C82.1,45.8,82.2,46.1,82.1,46.5L82.1,46.5z M80,46.5c0,0.3,0,0.5,0.1,0.6
	c0.1,0.1,0.3,0.2,0.6,0.2c0.3,0,0.5-0.1,0.7-0.2c0.2-0.2,0.3-0.4,0.4-0.6c0-0.3,0-0.5-0.1-0.6c-0.1-0.1-0.3-0.2-0.6-0.2
	c-0.3,0-0.5,0.1-0.7,0.2C80.2,46,80.1,46.2,80,46.5z M85.8,45.3h0.4l-0.4,2.3h-0.4l0.1-0.4c-0.1,0.1-0.2,0.2-0.4,0.3
	c-0.2,0.1-0.3,0.1-0.5,0.1c-0.3,0-0.5-0.1-0.7-0.3c-0.2-0.2-0.2-0.4-0.2-0.7l0.2-1.4h0.4l-0.2,1.4c-0.1,0.4,0.1,0.6,0.5,0.6
	c0.3,0,0.6-0.2,0.9-0.5L85.8,45.3L85.8,45.3z M88.4,45.7c0.3-0.3,0.6-0.5,1-0.5c0.3,0,0.6,0.1,0.8,0.4c0.2,0.2,0.3,0.5,0.2,0.9
	c0,0.3-0.2,0.6-0.5,0.9c-0.3,0.2-0.5,0.3-0.9,0.3c-0.4,0-0.7-0.2-0.9-0.5L88,48.7h-0.4l0.5-3.4h0.4L88.4,45.7L88.4,45.7z M90.1,46.5
	c0-0.3,0-0.5-0.1-0.6c-0.1-0.2-0.3-0.2-0.5-0.2c-0.2,0-0.4,0.1-0.6,0.2c-0.2,0.1-0.3,0.3-0.4,0.4l-0.1,0.6c0,0.2,0.1,0.3,0.3,0.4
	c0.1,0.1,0.3,0.2,0.5,0.2c0.2,0,0.5-0.1,0.6-0.2C89.9,47,90,46.8,90.1,46.5L90.1,46.5z"/>
</svg>
