<?xml version="1.0" encoding="utf-8"?>
<!-- Generator: Adobe Illustrator 23.0.5, SVG Export Plug-In . SVG Version: 6.00 Build 0)  -->
<svg version="1.1" id="Слой_1" xmlns:xodm="http://www.corel.com/coreldraw/odm/2003"
	 xmlns="http://www.w3.org/2000/svg" xmlns:xlink="http://www.w3.org/1999/xlink" x="0px" y="0px" viewBox="0 0 500 500"
	 style="enable-background:new 0 0 500 500;" xml:space="preserve">
<style type="text/css">
	.st0{fill-rule:evenodd;clip-rule:evenodd;fill:url(#SVGID_1_);}
	.st1{fill:url(#SVGID_2_);}
	.st2{fill:#EEC774;}
</style>
<linearGradient id="SVGID_1_" gradientUnits="userSpaceOnUse" x1="176.1447" y1="302.0384" x2="178.7547" y2="236.4784" gradientTransform="matrix(2.5844 0 0 -2.5844 -209.1379 945.7947)">
	<stop  offset="0" style="stop-color:#CDA742"/>
	<stop  offset="0.4784" style="stop-color:#F4CD7B"/>
	<stop  offset="1" style="stop-color:#C49940"/>
</linearGradient>
<path class="st0" d="M250.4,222l3.3,2.1l-1.6,4.7c-1-0.5-1-0.2-2-2.8C249.6,224.4,249.8,223.4,250.4,222L250.4,222z M260.1,294.5
	c-0.8-1.6-1-2-3-3c0.1,4.2,5.2,13.8-3.8,12.4l-0.1-2.3l1.5-8.2v-0.9c0.4-2.6,1.2,0.2,4.3-2.1c1.1-0.8,2-1.8,2.7-2.9
	c-0.4,0.1-0.8,0.1-1.2,0.1c-0.3,0-0.6,0-0.9,0c-1.2,1.6-2.9,2.6-4.7,2.6l-0.2-4.1c-0.3-0.2-0.6-0.4-0.9-0.6
	c-0.9-0.6-1.6-1.4-2.1-2.3c-1.4,2.7-4.9,4.6-8.6,2.9c-4-1.8-3.5-4.8-3.4-7.9h-2.6c-0.6,2.2-2,4-3.9,4.8c-0.7,0.9-1.3,1.8-2.1,2.7
	c2.2,0,4.5-0.8,6.2-2.6c0.6,1.4,1.3,2.1,1.8,3.4c-2.8,1.1-4.5,1-6.1,4.4c-1.4,3.2-1,6.2,0.4,8c1.3,1.8,4.1,3.7,7.2,3.6
	c3.9,0,2.8-0.4,5.7,3c-5.2,4.9-5.8,10.9,0.6,14.8c-0.5,1.3-0.9,1.8-0.5,2.8l1.2-2.1c5.3-0.3,3.5,12-3,11.5c-3.3-0.3-5.5-2.5-5.7-5
	c-0.4-4.4,2.7-4.9,3.6-6.8c-7.3,1.3-6.8,12.4,0.8,14c3.4,0.7,6.9-1.2,8.5-3.3c2.5-3.3,1-6.9,0.6-9.9c4.1-0.3,7.5-2.5,9-7.2
	c1.6-6.5-1.3-2-1.3-6.2c-1.3,0.8-1,3.5-1.2,5.3c-1.2,2.3-2.5,4-4.2,4.8c-0.8,0.4-2.2,0.7-3.2,0.7c-1.2,0.1-2.9,0.2-2.5-1.3l2-5.8
	l1.2-4.8c7.2,0.1,14.4,1.3,18.3-6.7c0.5-1,0.7-2.1,0.7-3.1c0.3-2.4-0.1-4.8-1.7-6.5c1.3-0.6,4.7-0.9,6.4-4.4
	c-0.3-0.2-0.5-0.4-0.8-0.6c-0.2-0.2-0.4-0.4-0.6-0.6c-0.1,0.2-0.2,0.4-0.2,0.5l-1.6,2c-1.9,1.6-4.9,2-8.7-0.3c0.1,3.7,5.4,2.1,5,9.8
	C263.3,309.3,260,301.2,260.1,294.5L260.1,294.5z M279.8,245.5c-0.9-1.2-2.2-2.2-3.9-2.8c2.2-6.8,0.9-13.6-7.3-13.4
	c0.2,2.8,2.1,1,4.7,4.2c1,1.2,1.8,3.8,1.1,6.2c-0.6,2.2-2.3,3.6-4.6,3.6c-3.2,0-4-1.8-5.2-3.1c2.2-5.9,3.5-7.3-0.1-12.5
	c1.3,0.1,2.5-0.2,3.5-0.6c-0.5-2.9-3-2.1-4.8-8.5c-1.1-3.9-2.8-7.8-2.7-10.1c4.8,1.8,5.9,2.1,10.9,2.9c2,4.2,4.8,5.7,10.8,6.9
	c0.3,13.2,23.4,7.6,28.3,0.8c-2.5,0.4-6.4,4.4-12,5c-5.2,0.6-10.3-0.5-12.7-5.7c1.1-1,4.4-1.5,6.1-2.6c4.5-3,2.4-10.3-5.1-5.9
	c-2.3,1.3-2.7,2.5-4.3,5c-4.5-0.8-5.4-1.3-7.5-4.3c2.5-1.6,4.9-2.3,7.3-5c7.2-7.9-4-12-9.6-7.4c-3.4,2.8-3,5.2-3.2,9.3
	c-3.6-0.6-5.7-1.4-8.9-2.8c-0.2-5.7-0.6-6.9,0.7-13.3c-1.6-1.5-2.4-2.3-3.8-3.8l-0.2,5c-3.3-3.1-11-3.2-13,0.3
	c3.8,0.6,5.4-1.3,9.9,0.6c0.3,8.5-16.7,2.9-17.5,11.2c3.4,7.4,12.7-1.7,19.2,4.2c4.8,4.4,3.3,10.3,6.6,14.7c0.5,0.6,1,0.9,1.2,1.8
	c-7.4-1.1-9.4-4.3-14.2-5.3c-3.4,7.9,2.2,9,4.2,13.6c1.2,2.9-1.5,4.2-2.6,7.2c-1.1,3.1-1.1,5.9-1.6,8.8h0.1c0.3-0.6,0.5-1.3,0.8-1.9
	c0.2-0.4,0.4-0.8,0.7-1.1c0.1-2.7,1.4-5.8,2.6-7.8c2.4,2.6,5,2.6,8.2,2.7c0.4,1.8,0.5,3.6-0.1,5.3l1.4-1.2l1.4,0.7l0.7-2.4l2.8,1.2
	c-0.7,0.9-1.2,1.4-1.7,2.1l0.9,0.4c0.2-0.2,0.3-0.4,0.5-0.7c1.2-1.5,1.8-1.3,3.9-1.8c2.1-0.5,2.2-1.7,4.5-0.1c0.6,0.5,1.2,1.2,1.7,2
	C278.4,246.7,279.1,246.1,279.8,245.5L279.8,245.5z M248.5,249.8c-3-2.4-6.4-3.9-6.7-8.2c-9.1-4.3-8-3.1-9.8-15.1
	c-2-13.5-7.4-0.5-6.2,7.4c1.4,9-4.6,10-10.6,12.8l0.2,0.6c0.1,0.4,0.2,0.9,0.3,1.3c1.9-1,3.9-1.9,5.6-2.6c-0.5,2-1.4,3-1.9,4.5
	c0.9-0.9,1.8-1.7,2.8-2.4c1-1.3,2.4-2.3,4.2-2.5l0.2,0.4c0.7-0.1,1.4-0.2,2.1-0.1c-0.5-1.9,0.1-6.4,2.4-6.5c2.1,1,2.8,2.2,5.8,2.9
	c-0.3,3.4,0.1,3.1,0.8,5c0.6-0.3,1.3-0.4,1.9-0.6c-0.9-1.1-1-2.2-1-3.9c0.9,0.7,1.8,2.5,2.9,3.7c1.7,0.2,3.2,1,4.3,2.9
	c0.1,0.1,0.1,0.2,0.1,0.2L248.5,249.8L248.5,249.8z M193.2,208.6c-1.8,0.7-5.3-1-7.6-1.4c0.4,1.6-0.4,0.3,0.8,1.5
	c2.5,2.5,10.1,3.2,13,3c4-0.2,12,0.2,14.5,3.2c-1.9,3.4-10.5,2.9-12.2,6.3l1.8,1.5c-1.7,2.7-3.2,2.1-4.9,5.1
	c0.9,1.3,0.6,0.3,1.2,1.6l-2.7,4.6c1.3,3.2,2.3,1.4,2.2,6.5l0.1,8.1c0.5-0.7,1-1.3,1.5-1.9c0.1-0.8,0.1-1.6,0.2-2.3
	c0.3-4.5,1.1-7-1-10.2c4.6-6.5,2.1-5.1,2.9-7.1c1-2.5,4-1.2,3.6-6.3c2.6-0.7,6.3-1.8,8.6-3.1c3.5-2,3.4-4.7-0.8-6.5
	C205.1,207.1,198.4,210.4,193.2,208.6L193.2,208.6z M187.4,206.1c1.2-0.6,4.3-2.1,5.5-3c2.9-2.2,2-4.2,1.5-7
	c2.2-0.6,11.1-4.1,12.6-5.7c1.2-1.3-0.3-1,2.3-1.6c2.4-0.5,3.9,0.1,6.3-0.9c1.9-8.3,4-9.8,6.8-16.8c4.1,2.9,6.4,8.6,6.4,8.6
	c0.9,1.1,14.6,4.8,6.6,12.5c-2.1,2-9.3,6.9-3.7,10.6c1.6,1.1,3.2,1.5,4.9,0.7c-0.7-1.3-2.4-1.9-3.9-2.8c1.2-6.5,13.2-7.5,7-16.9
	c-4.4-6.5-4.1-3.5-7.7-6.7l-5.9-7.6c-2.3-1.3-2.5-2.8-5.3-4.1c-1.3,5-1.4,6-3.7,10.5c-1.6,3.1-2.9,6.4-3.9,9.9
	c-4.1-0.6-7.1,0.5-9.8,1.7l0.9,1.6c-2.5,1.9-3.5,2.4-5.8,3.6l-5.7,3.3c0.6,1.9,2.4,3.7-0.2,6.3c-1.6,1.6-3.8,2.8-6,3.1
	C187,206.9,185.6,205.5,187.4,206.1L187.4,206.1z M207.1,243.5c5.5-10,13.9-21.6,19.1-26.2c-1.4,3.4-5.6,11-3.9,15.3
	c2.3-7.5,5.5-16.7,11-20.4c0.4,0.6,2.1,5,4.5,8.9l10.5,13.6c-0.2-3.8-6.1-11.8-8.5-15.9c-0.7-1.1-1.2-1.5-1.7-2.6
	c-0.4-0.8-0.5-1.6-1-2.2c3.5,1.6,22.6,7.8,23.8,9c0-1.6,0.6-0.6-0.8-1.8c-1.2-1-11.8-5.7-13.2-6.2c-6-2.4-11.3-4.1-11.1-9.3
	c-7,0.1-9.2-4.5-10.2-9.8c-0.6-3.1-1.4-10.2-2.9-12.9c-0.6-1.1-0.1-0.5-1-1.4c0.3,2.3,0.8,4.1,1,6.7c0.5,9,0,11,4.8,18.1
	c-4.1-0.5-25.3-7.1-29.7-1.2c2.6-0.2,4.3-1.1,7.2-1.2c8.1-0.2,16.7,4.8,24,5.5c-1.2,1.6-3,3-4.4,4.6c-7.1,7.9-16,19.2-20.6,30.3
	C205,244,206,243.6,207.1,243.5L207.1,243.5z M259.1,226.7l1.3,1.2c2.4,1.8,4.7,4.2,3.2,8.4c-1.7,4.7-8.1,3.5-8.6,0.9l1.7-2.6
	c-2.9-2.8-1.8-4.4-0.2-8.7C258.6,226.2,256.9,226.4,259.1,226.7L259.1,226.7z M242.5,299.8c-6.2,0.7-10.7-4.3-6.7-9.7
	c1.3-1.8,3.5-2.6,6.4-1.6c2.2,0.7,2,1,4.3,0.8c0.9-0.1,1.4-0.5,2.6,0.3c0.5,0.4,0.5,0.5,0.6,0.7
	C244.9,292.1,242.9,292.4,242.5,299.8L242.5,299.8z M247.9,317.6c-2.2-0.2-3.3-2.4-3.5-4.7c-0.2-3.4,1.6-5.3,3.2-6.7l3.4,0.9
	L247.9,317.6L247.9,317.6z M251.9,301.6l-0.6,2.7c-4.3-0.9-7.3-3.1-6.7-7.3c0.7-4.7,4.2-6,8.4-5.5L251.9,301.6L251.9,301.6z
	 M251.2,289.3c-0.4-0.1-1-0.6-1.4-1c2.2-1.1,2-2.3,3.4-2.5C253,289.1,253.8,290.3,251.2,289.3L251.2,289.3z M286.1,214.8
	c0.6-1.8,2.1-3.1,4.3-2.3c-0.3,1.1-0.1,1.2-1.7,1.7C288,214.5,286.8,214.7,286.1,214.8z M239.1,205.5c-0.4-3.8,11.2-5.2,12-5.2
	c1.1,2.3,1.3,2.2,3.3,4.1C246.2,203.6,242.5,207.3,239.1,205.5z M257,197.9c0.6,1.3,0.7,3.3,0.5,5c-0.7-0.5-1.4-1-2.1-1.8
	c-1.2-1.2-1-0.7-1.4-2.1c0.5-0.1,0.9-0.2,1.4-0.4l1.2-0.5C256.7,197.9,256.8,198,257,197.9L257,197.9z M273.1,206.7
	c-0.1-4.1,2.7-7.9,6.4-5.5c0,2.1-1.3,2.9-2.5,3.6C275.8,205.7,274.8,206.4,273.1,206.7L273.1,206.7z"/>
<linearGradient id="SVGID_2_" gradientUnits="userSpaceOnUse" x1="177.3752" y1="276.446" x2="177.5352" y2="252.9061" gradientTransform="matrix(2.5844 0 0 -2.5844 -209.1379 945.7947)">
	<stop  offset="0" style="stop-color:#CDA742"/>
	<stop  offset="0.4784" style="stop-color:#F4CD7B"/>
	<stop  offset="1" style="stop-color:#C49940"/>
</linearGradient>
<path class="st1" d="M149.4,231.7c-2.2,1.7-4,3.6-5.5,5.8s-2.8,4.4-3.9,6.8s-2.1,4.8-3,7.4c-0.9,2.5-1.8,5-2.8,7.5
	c-1,2.5-2.1,4.9-3.4,7.2c-1.2,2.3-2.8,4.5-4.7,6.4l0.1,0.1c2.4-1.4,4.6-2.8,6.7-4.1c2.1-1.3,4.1-2.6,6.1-3.9c5.1-3.3,9.1-6.4,12-9.4
	c2.9-3,5.2-5.7,6.6-8.2c1.5-2.5,2.4-4.7,2.8-6.5c0.4-1.9,0.6-3.3,0.6-4.2c-0.5-0.2-0.9-0.4-1.1-0.8c-0.2-0.4-0.3-0.8-0.3-1.3
	c0-0.7,0.2-1.2,0.7-1.7c0.4-0.4,1-0.7,1.7-0.7c1.1,0,1.8,0.4,2.1,1.1s0.6,1.7,0.6,2.8c0,1.6-0.4,3.2-1.1,5c-0.7,1.8-1.8,3.5-3.1,5.3
	c-1.3,1.8-2.8,3.6-4.6,5.4c-1.7,1.8-3.6,3.6-5.5,5.3c-2,1.7-4,3.3-6.1,4.8s-4.2,2.9-6.2,4.2c-2.4,1.4-4.8,2.9-7.1,4.3
	c-2.4,1.4-4.9,2.9-7.4,4.5l-0.3-0.3c1.4-2.1,2.6-4.3,3.7-6.6c1-2.4,2-4.8,2.9-7.3c0.9-2.5,1.8-5,2.7-7.5c0.9-2.5,1.9-4.9,3.1-7.2
	c1.2-2.3,2.6-4.5,4.2-6.5c1.6-2,3.6-3.8,5.9-5.3l-0.1-0.1c-1.7,0.9-3.5,1.6-5.5,2c-2,0.5-4,1-6,1.6c-1.3,0.4-2.8,0.9-4.3,1.4
	c-1.6,0.6-3,1.4-4.3,2.3s-2.5,2.1-3.4,3.3c-0.9,1.3-1.4,2.7-1.4,4.4c0,1.4,0.4,2.5,1.3,3.3c0.9,0.8,1.9,1.1,3.2,1.1
	c0.7,0,1.4-0.2,2.1-0.5c0.7-0.3,1.3-0.7,1.9-1.2c0.5-0.5,1-1.1,1.3-1.8c0.3-0.7,0.5-1.5,0.5-2.4c0-0.4,0-0.8,0-1.1
	c0-0.3-0.1-0.7-0.1-1h0.7c0.1,0.3,0.1,0.7,0.1,1c0.1,0.4,0.1,0.8,0.1,1.2c0,0.9-0.2,1.7-0.5,2.4c-0.3,0.8-0.8,1.4-1.4,2.1
	c-0.6,0.6-1.3,1.1-2.1,1.4c-0.8,0.4-1.7,0.5-2.6,0.5c-1.7,0-3.1-0.5-4.3-1.5c-1.1-1-1.7-2.4-1.7-4.1c0-1.9,0.5-3.5,1.5-4.8
	c1-1.3,2.2-2.4,3.7-3.3c1.4-0.9,3-1.7,4.7-2.2c1.7-0.6,3.2-1,4.5-1.4c1.1-0.3,2.3-0.6,3.7-0.9c1.4-0.3,2.8-0.6,4.2-1.1
	c1.4-0.4,2.8-0.9,4.1-1.5c1.3-0.6,2.5-1.3,3.5-2.2L149.4,231.7L149.4,231.7z M164.4,253.6c-2.2,3.2-4.1,5.9-5.6,8
	c-1.5,2.2-2.8,4-3.7,5.5c-1,1.4-1.6,2.6-2.1,3.4c-0.4,0.9-0.6,1.5-0.6,2.1c0,1.1,0.4,1.6,1.3,1.6c0.8,0,1.7-0.3,2.8-0.9
	c1.1-0.6,2.2-1.3,3.4-2.3c1.2-0.9,2.3-2,3.5-3.2c1.2-1.2,2.3-2.3,3.3-3.5c1-1.1,1.9-2.2,2.7-3.3c0.8-1.1,1.4-1.9,1.7-2.6l0.5,0.3
	c-0.5,0.8-1.1,1.8-2,2.9c-0.8,1.1-1.8,2.3-2.8,3.5c-1.1,1.2-2.1,2.4-3.3,3.5c-1.2,1.2-2.4,2.2-3.6,3.2c-1.2,0.9-2.4,1.7-3.5,2.2
	c-1.1,0.6-2.2,0.9-3.2,0.9c-1.1,0-1.9-0.3-2.4-0.9c-0.5-0.6-0.8-1.3-0.8-2c0-0.9,0.2-1.7,0.6-2.7c0.4-1,1-2.1,1.8-3.5
	c0.9-1.4,1.9-3,3.3-5c1.3-2,3-4.4,4.9-7.2L164.4,253.6L164.4,253.6z M167.9,242.4c0.6,0,1,0.2,1.4,0.6c0.4,0.4,0.5,0.9,0.5,1.4
	c0,0.6-0.2,1-0.5,1.4c-0.4,0.4-0.8,0.6-1.4,0.6c-0.6,0-1-0.2-1.4-0.6s-0.5-0.9-0.5-1.4c0-0.6,0.2-1,0.5-1.4
	C166.9,242.5,167.3,242.4,167.9,242.4z M177.1,253.6l-8,11.1l0.1,0.1c0.9-1,1.8-2.2,3-3.5c1.1-1.3,2.3-2.6,3.6-3.9
	c1.3-1.2,2.6-2.2,4-3c1.4-0.8,2.8-1.2,4.1-1.2c1.2,0,2.1,0.3,2.8,1c0.7,0.7,1,1.5,1,2.6c0,0.6-0.2,1.4-0.7,2.3
	c-0.5,0.9-1,1.8-1.7,2.8c-0.7,1-1.4,2-2.2,3.1c-0.8,1.1-1.6,2-2.2,3c-0.7,1-1.3,1.8-1.7,2.6c-0.5,0.8-0.7,1.4-0.7,2
	c0,1.1,0.6,1.7,1.7,1.7c1.3,0,2.7-0.4,4.1-1.3c1.4-0.9,3.2-2.3,5.2-4.4c0.8-0.8,1.6-1.7,2.5-2.7c0.8-1,1.6-1.9,2.4-2.9
	c0.8-1,1.5-1.8,2.1-2.7c0.6-0.9,1.1-1.6,1.5-2.1l0.4,0.2c-0.8,1.2-1.8,2.7-3.1,4.3c-1.3,1.7-2.7,3.3-4.1,4.9c-0.9,1-1.8,1.9-2.7,2.8
	c-0.9,0.9-1.9,1.7-2.8,2.3c-0.9,0.7-1.8,1.2-2.7,1.6c-0.9,0.4-1.8,0.6-2.7,0.6c-1.2,0-2.1-0.3-2.9-1c-0.8-0.6-1.1-1.5-1.1-2.7
	c0-1.2,0.5-2.5,1.4-4c1-1.4,2-2.9,3.2-4.3s2.2-2.8,3.2-4.2c1-1.3,1.4-2.5,1.4-3.5c0-0.5-0.2-0.9-0.5-1.1c-0.3-0.2-0.7-0.4-1.3-0.4
	c-1,0-2.1,0.4-3.4,1.1c-1.2,0.7-2.5,1.7-3.9,3s-2.6,2.6-3.9,4.1c-1.3,1.5-2.5,3-3.7,4.5c-1.1,1.5-2.1,3-3,4.3
	c-0.9,1.4-1.6,2.6-2,3.5h-3.7c1.1-1.8,2.2-3.6,3.4-5.4s2.4-3.6,3.5-5.5c1.2-1.8,2.3-3.5,3.4-5.2s2-3.2,2.9-4.6L177.1,253.6
	L177.1,253.6z M225,259.1c-1,1.1-2.1,2-3.3,2.6c-1.2,0.6-2.4,1-3.6,1c-1.1,0-2.1-0.3-2.9-0.7s-1.4-1.1-1.9-1.8h-0.1
	c-0.4,1.5-1.1,3.2-2.2,4.9c-1.1,1.7-2.4,3.3-3.9,4.8c-1.5,1.4-3.2,2.7-5,3.6c-1.8,1-3.7,1.4-5.6,1.4c-1.7,0-3-0.5-3.9-1.5
	c-0.9-1-1.3-2.4-1.3-4.1c0-0.9,0.2-1.9,0.7-3.1c0.4-1.2,1.1-2.4,1.8-3.5c0.8-1.2,1.7-2.4,2.8-3.5c1.1-1.1,2.2-2.2,3.5-3.1
	c1.2-0.9,2.6-1.6,4-2.2c1.4-0.5,2.8-0.8,4.2-0.8c1.7,0,2.9,0.5,3.9,1.4c0.9,1,1.4,2.2,1.5,3.7c0.1,0.9,0.5,1.8,1.3,2.6
	c0.8,0.8,1.9,1.2,3.2,1.2c1.2,0,2.4-0.3,3.4-0.9c1.1-0.6,2.1-1.4,3-2.4L225,259.1L225,259.1z M194.6,270.8c0,1.1,0.2,1.9,0.6,2.5
	c0.4,0.6,1,0.9,1.8,0.9c1.1,0,2.2-0.3,3.2-0.9c1.1-0.6,2.1-1.3,3.1-2.3c1-1,1.9-2,2.7-3.2c0.9-1.2,1.6-2.5,2.2-3.7
	c0.6-1.3,1.1-2.6,1.5-3.8c0.4-1.2,0.5-2.4,0.5-3.4c0-0.9-0.2-1.6-0.6-2.1c-0.4-0.6-1.1-0.9-2-0.9c-0.9,0-1.8,0.3-2.7,0.8
	c-1,0.5-1.9,1.3-2.9,2.1s-1.9,1.9-2.8,3.1c-0.9,1.2-1.7,2.4-2.4,3.6c-0.7,1.2-1.3,2.5-1.7,3.7C194.8,268.5,194.6,269.7,194.6,270.8
	L194.6,270.8z M245.2,253.6c-2.4,3.3-4.7,6.6-6.9,10c-2.1,3.4-4.4,6.7-6.7,10.1c2-0.4,4-1.2,5.9-2.2c2-1,3.8-2.2,5.5-3.6
	c1.7-1.4,3.3-3,4.8-4.7c1.5-1.7,2.7-3.4,3.7-5.1l0.2,0.4c-1.8,3-3.7,5.5-5.8,7.5c-2.1,2-4.2,3.6-6.1,4.8c-2,1.2-3.7,2.1-5.3,2.6
	s-2.7,0.9-3.4,0.9c-0.2,0.1-0.6,0.6-1.2,1.6c-0.6,0.9-1.4,2.1-2.4,3.4c-1,1.3-2.2,2.7-3.6,4.2c-1.4,1.5-3,2.9-4.7,4.1
	c-1.8,1.3-3.7,2.3-5.8,3.2s-4.4,1.3-6.9,1.3c-1.4,0-2.8-0.2-4.1-0.5c-1.2-0.3-2.3-0.8-3.2-1.4c-0.9-0.6-1.6-1.3-2.1-2.2
	c-0.5-0.9-0.7-1.8-0.7-2.8c0-1.7,0.6-3.2,1.9-4.3c1.2-1.1,2.8-1.7,4.7-1.7c0.4,0,0.7,0,1,0.1c0.3,0.1,0.5,0.1,0.8,0.2v0.5h-0.5
	c-1.6,0-2.7,0.5-3.5,1.5c-0.8,1-1.1,2.3-1.1,4c0,1.1,0.2,2,0.6,2.8s0.9,1.4,1.6,1.9c0.7,0.5,1.4,0.8,2.3,1.1
	c0.9,0.2,1.9,0.3,2.9,0.3c1.8,0,3.5-0.4,5.2-1.2c1.7-0.8,3.4-1.9,4.9-3.3c1.6-1.3,3.1-2.9,4.5-4.6c1.4-1.7,2.8-3.4,4.1-5.1
	c1.3-1.7,2.4-3.4,3.5-5c1.1-1.6,2-2.9,2.8-4.1l-0.1-0.1c-0.6,0.8-1.4,1.6-2.1,2.3c-0.8,0.8-1.6,1.5-2.5,2.2
	c-0.9,0.7-1.8,1.2-2.8,1.6c-1,0.4-2,0.6-3,0.6c-0.8,0-1.4-0.1-2-0.4c-0.6-0.3-1-0.6-1.4-1.1c-0.4-0.5-0.6-1-0.8-1.6
	c-0.2-0.6-0.2-1.1-0.2-1.6c0-1.2,0.3-2.5,0.8-3.9c0.5-1.3,1.3-2.6,2.1-3.9s1.9-2.5,3.1-3.6c1.2-1.1,2.4-2.1,3.7-2.9
	c1.3-0.9,2.6-1.5,3.9-2c1.3-0.5,2.5-0.7,3.6-0.7c1.6,0,2.7,0.4,3.4,1.2c0.7,0.8,1.1,1.7,1.1,2.7h0.2l2.2-3.4L245.2,253.6
	L245.2,253.6z M234,253.8c-1.3,0-2.8,0.5-4.3,1.7c-1.6,1.1-3,2.5-4.3,4.1s-2.5,3.4-3.4,5.4c-0.9,1.9-1.3,3.7-1.3,5.5
	c0,0.9,0.2,1.6,0.7,2.1c0.5,0.5,1.1,0.8,1.8,0.8c0.6,0,1.3-0.2,2.2-0.7s1.9-1.1,2.8-1.9c1-0.8,2-1.8,3-2.9c1-1.1,1.9-2.3,2.7-3.5
	c0.8-1.2,1.4-2.6,1.9-3.9c0.5-1.3,0.7-2.7,0.7-4c0-0.7-0.2-1.3-0.6-1.8C235.6,254.1,235,253.8,234,253.8L234,253.8z M257.7,253.6
	l-7.7,11.2l0.1,0.1c0.6-0.7,1.3-1.5,2.1-2.4c0.9-0.9,1.8-1.8,2.8-2.8c1-1,2.1-1.9,3.2-2.8c1.1-0.9,2.2-1.8,3.3-2.5
	c0.2-0.4,0.4-0.7,0.7-1c0.2-0.2,0.7-0.4,1.4-0.4c0.4,0,0.8,0,1.2,0c0.3,0,0.7,0.1,1.1,0.1c-0.7,0.7-1.3,1.5-2,2.5
	c-0.6,1-1,2.1-1,3.2c0,0.9,0.2,1.7,0.7,2.2c0.5,0.5,1,0.8,1.7,0.8c0.6,0,1.2-0.1,1.8-0.4c0.6-0.2,1.1-0.5,1.7-0.9
	c0.5-0.4,1-0.7,1.5-1.1c0.5-0.4,0.9-0.8,1.3-1.1l0.4,0.2c-0.4,0.4-0.9,0.8-1.4,1.3c-0.5,0.5-1.1,0.9-1.7,1.3c-0.6,0.4-1.2,0.7-1.9,1
	c-0.7,0.3-1.4,0.4-2.1,0.4c-1.3,0-2.3-0.4-3.1-1.2c-0.8-0.8-1.2-1.9-1.2-3.3c0-1,0.2-1.8,0.7-2.6l-0.1-0.1c-1.7,1.1-3.5,2.6-5.5,4.4
	c-2,1.8-4.1,4-6.3,6.5c-0.8,0.9-1.7,2.1-2.5,3.5c-0.9,1.4-1.6,2.9-2.3,4.5h-3.9c2.2-3.5,4.3-6.9,6.5-10.3c2.2-3.4,4.4-6.9,6.7-10.5
	L257.7,253.6L257.7,253.6z M287.8,253.6h3.9c-1.5,2.1-2.9,4.1-4.3,6.1c-1.4,2-2.6,3.8-3.7,5.5c-1.1,1.7-1.9,3.2-2.6,4.4
	c-0.6,1.3-1,2.3-1,3c0,1.1,0.5,1.6,1.6,1.6c0.9,0,1.9-0.4,3.2-1.2c1.3-0.8,2.7-2,4.3-3.4c1.5-1.4,3.1-3.2,4.7-5.1
	c1.6-1.9,3.2-4,4.6-6.2l0.4,0.1c-1.1,1.7-2.4,3.4-3.9,5.3c-1.5,1.9-3,3.7-4.6,5.3c-1.6,1.7-3.2,3-4.8,4.1c-1.6,1.1-3.1,1.7-4.5,1.7
	c-1.2,0-2-0.3-2.6-0.9c-0.5-0.6-0.8-1.3-0.8-2.1c0-0.6,0.1-1.1,0.3-1.7c0.2-0.5,0.4-1.1,0.6-1.7l-0.1-0.1c-0.5,0.6-1.2,1.2-2,2
	c-0.8,0.7-1.6,1.4-2.5,2.1s-1.8,1.2-2.8,1.6c-1,0.4-1.9,0.7-2.8,0.7c-1.5,0-2.5-0.5-3.2-1.4c-0.6-0.9-0.9-2-0.9-3.2
	c0-1.7,0.5-3.5,1.6-5.5c1.1-2,2.4-3.9,4-5.6c1.6-1.8,3.4-3.2,5.3-4.4c1.9-1.2,3.7-1.8,5.4-1.8c0.8,0,1.5,0.1,2.1,0.3
	c0.6,0.2,1.1,0.5,1.5,0.9c0.4,0.4,0.7,0.8,0.9,1.3c0.2,0.5,0.4,1,0.5,1.5h0.1L287.8,253.6L287.8,253.6z M268.1,270.5
	c0,0.9,0.2,1.7,0.6,2.1c0.4,0.5,0.9,0.7,1.6,0.7c0.7,0,1.5-0.3,2.4-0.7c0.9-0.5,1.9-1.2,2.9-2c1-0.9,2-1.8,3-2.9
	c1-1.1,1.9-2.3,2.6-3.5c0.8-1.2,1.4-2.5,1.9-3.8c0.5-1.3,0.7-2.5,0.7-3.7c0-0.9-0.3-1.6-0.8-2.1c-0.5-0.5-1.2-0.7-1.9-0.7
	c-1.2,0-2.6,0.5-4.1,1.6c-1.5,1.1-2.9,2.4-4.2,4c-1.3,1.6-2.5,3.4-3.4,5.4C268.5,266.8,268.1,268.7,268.1,270.5L268.1,270.5z
	 M332.2,232.6c-1.6,2.5-3.3,5.1-5.1,7.9c-1.9,2.8-3.7,5.5-5.6,8.3c-1.9,2.7-3.6,5.4-5.3,8c-1.7,2.6-3.2,4.9-4.6,7.1
	c-1.3,2.1-2.4,4-3.2,5.5c-0.8,1.6-1.2,2.7-1.2,3.4c0,0.4,0.1,0.8,0.3,1.1c0.2,0.3,0.5,0.4,1,0.4c1,0,2.1-0.4,3.4-1.2
	c1.3-0.8,2.8-2.1,4.7-3.8c1.6-1.5,3.1-3.2,4.6-5.1c1.5-1.9,2.8-3.7,3.9-5.5l0.5,0.2c-0.4,0.6-0.8,1.4-1.4,2.3
	c-0.6,0.9-1.2,1.8-1.9,2.7c-0.7,0.9-1.5,1.9-2.3,2.8c-0.8,1-1.6,1.8-2.5,2.7c-1.6,1.7-3.2,3-4.8,4.1s-3,1.6-4.3,1.6
	c-1.3,0-2.2-0.3-2.9-0.8s-0.9-1.2-0.9-2.1c0-0.8,0.2-1.5,0.5-2.2c0.3-0.7,0.6-1.4,1-1.9l-0.1-0.1c-0.6,0.7-1.4,1.5-2.1,2.3
	c-0.8,0.8-1.6,1.6-2.5,2.3c-0.9,0.7-1.8,1.3-2.8,1.8s-2,0.7-3,0.7c-1.4,0-2.6-0.4-3.4-1.3c-0.8-0.9-1.2-1.9-1.2-3.2
	c0-1.7,0.6-3.5,1.8-5.6c1.2-2,2.6-3.9,4.4-5.6c1.8-1.7,3.6-3.2,5.7-4.3s3.9-1.8,5.6-1.8c1.3,0,2.3,0.4,3.1,1.2
	c0.8,0.8,1.1,1.8,1.1,3.1h0.2l15.6-24.8L332.2,232.6L332.2,232.6z M310.8,257.5c0-1-0.2-1.8-0.5-2.5c-0.3-0.7-1.1-1.1-2.2-1.1
	c-0.8,0-1.7,0.3-2.7,0.9c-1,0.6-2,1.3-3,2.2c-1,0.9-2,2-2.9,3.2c-1,1.2-1.8,2.4-2.5,3.6c-0.7,1.2-1.3,2.4-1.8,3.6s-0.7,2.2-0.7,3.2
	c0,0.9,0.2,1.6,0.5,2.1c0.3,0.6,0.9,0.9,1.8,0.9c0.7,0,1.6-0.3,2.5-0.9c1-0.6,1.9-1.3,3-2.2c1.1-0.9,2.1-1.9,3.1-3.1
	c1-1.2,1.9-2.3,2.7-3.5c0.8-1.2,1.5-2.3,2-3.4C310.5,259.3,310.7,258.3,310.8,257.5L310.8,257.5z M352.5,259.1c-1,1.1-2.1,2-3.3,2.6
	c-1.2,0.6-2.4,1-3.6,1c-1.1,0-2.1-0.3-2.9-0.7s-1.4-1.1-1.9-1.8h-0.1c-0.4,1.5-1.1,3.2-2.2,4.9c-1.1,1.7-2.4,3.3-3.9,4.8
	c-1.5,1.4-3.2,2.7-5,3.6c-1.8,1-3.7,1.4-5.6,1.4c-1.7,0-3-0.5-3.9-1.5c-0.9-1-1.3-2.4-1.3-4.1c0-0.9,0.2-1.9,0.7-3.1
	c0.4-1.2,1.1-2.4,1.8-3.5s1.7-2.4,2.8-3.5c1.1-1.1,2.2-2.2,3.5-3.1c1.2-0.9,2.6-1.6,4-2.2c1.4-0.5,2.8-0.8,4.2-0.8
	c1.7,0,2.9,0.5,3.9,1.4c0.9,1,1.4,2.2,1.5,3.7c0.1,0.9,0.5,1.8,1.3,2.6c0.8,0.8,1.9,1.2,3.2,1.2c1.2,0,2.4-0.3,3.4-0.9
	c1.1-0.6,2.1-1.4,3-2.4L352.5,259.1L352.5,259.1z M322.1,270.8c0,1.1,0.2,1.9,0.6,2.5c0.4,0.6,1,0.9,1.8,0.9c1.1,0,2.2-0.3,3.2-0.9
	c1.1-0.6,2.1-1.3,3.1-2.3c1-1,1.9-2,2.7-3.2c0.9-1.2,1.6-2.5,2.2-3.7c0.6-1.3,1.1-2.6,1.5-3.8c0.4-1.2,0.5-2.4,0.5-3.4
	c0-0.9-0.2-1.6-0.6-2.1c-0.4-0.6-1.1-0.9-2-0.9c-0.9,0-1.8,0.3-2.7,0.8c-1,0.5-1.9,1.3-2.9,2.1s-1.9,1.9-2.8,3.1
	c-0.9,1.2-1.7,2.4-2.4,3.6c-0.7,1.2-1.3,2.5-1.7,3.7C322.3,268.5,322.1,269.7,322.1,270.8L322.1,270.8z M358.9,253.6
	c-0.8,1-1.7,2.3-2.9,3.8c-1.2,1.5-2.3,3.1-3.4,4.8c-1.1,1.7-2.1,3.3-2.9,5c-0.8,1.7-1.2,3.1-1.2,4.3c0,0.7,0.2,1.3,0.7,1.9
	c0.4,0.5,1.2,0.8,2.2,0.8c1.6,0,3.2-0.6,4.8-1.9c1.7-1.2,3.2-2.8,4.5-4.6c1.4-1.8,2.5-3.6,3.4-5.6c0.9-1.9,1.3-3.5,1.3-4.9
	c0-0.3-0.1-0.7-0.2-1c-0.2-0.4-0.2-0.8-0.2-1.2c0-0.5,0.1-0.9,0.4-1.3c0.3-0.4,0.7-0.6,1.2-0.6c0.6,0,1.1,0.3,1.5,1
	c0.4,0.6,0.6,1.8,0.6,3.3c0,0.4,0,0.9-0.1,1.2c-0.1,0.4-0.1,0.7-0.2,1.1c0.4,0.6,1.1,1.1,1.9,1.5c0.9,0.4,1.7,0.6,2.5,0.6
	c1.1,0,2.2-0.3,3.4-0.8c1.2-0.5,2.2-1.4,2.9-2.7l0.5,0.3c-0.3,0.6-0.7,1.1-1.2,1.6c-0.5,0.5-1.1,0.9-1.7,1.2
	c-0.6,0.3-1.2,0.6-1.9,0.8c-0.7,0.2-1.4,0.3-2.1,0.3c-0.9,0-1.7-0.2-2.5-0.6c-0.8-0.4-1.5-0.8-2.1-1.3c-0.5,1.6-1.3,3.2-2.6,4.9
	c-1.2,1.7-2.7,3.2-4.3,4.6c-1.6,1.4-3.3,2.5-5.2,3.4c-1.8,0.9-3.6,1.3-5.4,1.3c-1.7,0-3-0.4-3.9-1.2c-0.9-0.8-1.4-2.1-1.4-3.9
	c0-1.2,0.4-2.5,1.1-4c0.7-1.4,1.6-2.9,2.6-4.3c1-1.5,2-2.9,3.1-4.3c1.1-1.4,1.9-2.6,2.5-3.6L358.9,253.6L358.9,253.6z"/>
<path class="st2" d="M309.4,285.5c0.1-0.7,0.4-1.4,0.7-2c0.4-0.6,0.8-1.1,1.3-1.4c0.5-0.4,1.1-0.6,1.7-0.8c0.6-0.2,1.2-0.3,1.8-0.3
	c1,0,1.9,0.2,2.6,0.6l-0.2,1c-0.6-0.4-1.4-0.6-2.4-0.6c-0.5,0-1,0.1-1.4,0.2c-0.5,0.1-0.9,0.3-1.3,0.6c-0.4,0.3-0.8,0.6-1.1,1.1
	c-0.3,0.5-0.5,1-0.6,1.7c-0.1,0.5-0.1,1,0,1.4c0.1,0.4,0.2,0.8,0.5,1.1c0.2,0.3,0.5,0.5,0.8,0.7c0.3,0.2,0.6,0.3,1,0.4
	c0.3,0.1,0.7,0.1,1.1,0.1c0.7,0,1.3-0.1,1.8-0.4l0.6-3.6h1.1l-0.7,4.4c-0.9,0.4-1.9,0.6-2.9,0.6c-0.6,0-1.1-0.1-1.7-0.3
	s-1-0.5-1.5-0.9c-0.4-0.4-0.7-0.9-1-1.6C309.2,287.1,309.2,286.3,309.4,285.5L309.4,285.5z M323,285.1c0.6-0.9,1.6-1.3,2.8-1.2
	l-0.2,1.1c-0.6-0.1-1.1,0-1.6,0.3c-0.5,0.3-0.9,0.7-1.2,1.2l-0.6,3.9h-1l1-6.2h0.9L323,285.1L323,285.1z M335.7,287.2
	c-0.2,1-0.6,1.8-1.3,2.4c-0.7,0.6-1.6,0.9-2.5,0.9c-0.9,0-1.6-0.3-2.2-0.9c-0.6-0.6-0.8-1.4-0.6-2.4c0.2-1,0.6-1.8,1.3-2.4
	c0.7-0.6,1.6-0.9,2.4-0.9c0.9,0,1.6,0.3,2.2,0.9C335.7,285.4,335.9,286.2,335.7,287.2L335.7,287.2z M330.2,287.2
	c-0.1,0.7,0,1.2,0.4,1.6c0.4,0.4,0.9,0.6,1.5,0.6c0.7,0,1.2-0.2,1.8-0.6c0.5-0.4,0.8-1,0.9-1.7c0.1-0.7,0-1.2-0.4-1.6
	c-0.4-0.4-0.9-0.6-1.5-0.6c-0.7,0-1.2,0.2-1.8,0.6C330.6,285.9,330.3,286.5,330.2,287.2z M345.6,284h1l-1,6.2h-0.9l0.2-1
	c-0.3,0.3-0.6,0.6-1.1,0.8c-0.4,0.2-0.9,0.3-1.3,0.3c-0.8,0-1.4-0.2-1.8-0.7s-0.5-1.1-0.4-1.9l0.6-3.8h1l-0.6,3.7
	c-0.2,1.1,0.3,1.7,1.4,1.7c0.9,0,1.6-0.4,2.3-1.3L345.6,284L345.6,284z M352.5,285.1c0.7-0.8,1.6-1.3,2.7-1.3c0.9,0,1.6,0.3,2.1,1
	c0.5,0.6,0.7,1.4,0.5,2.4c-0.1,0.9-0.5,1.7-1.2,2.3c-0.7,0.6-1.4,0.9-2.3,0.9c-1.1,0-1.8-0.4-2.3-1.2l-0.6,3.9h-1l1.4-9h0.9
	L352.5,285.1L352.5,285.1z M356.8,287.2c0.1-0.7,0-1.2-0.4-1.7c-0.3-0.4-0.8-0.6-1.4-0.6c-0.5,0-1,0.2-1.5,0.4
	c-0.5,0.3-0.8,0.7-1.1,1.1l-0.2,1.6c0.1,0.4,0.4,0.8,0.7,1.1c0.4,0.3,0.8,0.4,1.3,0.4c0.6,0,1.2-0.2,1.7-0.6
	S356.7,287.8,356.8,287.2L356.8,287.2z"/>
</svg>
