<?xml version="1.0" encoding="utf-8"?>
<!-- Generator: Adobe Illustrator 23.0.5, SVG Export Plug-In . SVG Version: 6.00 Build 0)  -->
<svg version="1.1" id="Слой_1" xmlns="http://www.w3.org/2000/svg" xmlns:xlink="http://www.w3.org/1999/xlink" x="0px" y="0px"
	 viewBox="0 0 235 65" style="enable-background:new 0 0 235 65;" xml:space="preserve">
<style type="text/css">
	.st0{fill-rule:evenodd;clip-rule:evenodd;fill:url(#SVGID_1_);}
	.st1{fill:url(#SVGID_2_);}
	.st2{fill:#EEC774;}
</style>
<linearGradient id="SVGID_1_" gradientUnits="userSpaceOnUse" x1="47.4582" y1="64.5463" x2="48.4404" y2="39.8762" gradientTransform="matrix(2.5844 0 0 -2.5844 0 167.9846)">
	<stop  offset="0" style="stop-color:#CDA742"/>
	<stop  offset="0.4784" style="stop-color:#F4CD7B"/>
	<stop  offset="1" style="stop-color:#C49940"/>
</linearGradient>
<path class="st0" d="M124.3,22.5l1.2,0.8l-0.6,1.8c-0.4-0.2-0.4-0.1-0.7-1.1C124,23.4,124,23.1,124.3,22.5L124.3,22.5z M127.9,49.8
	c-0.3-0.6-0.4-0.7-1.1-1.1c0,1.6,2,5.2-1.4,4.7l0-0.9l0.6-3.1v-0.3c0.1-1,0.4,0.1,1.6-0.8c0.4-0.3,0.7-0.7,1-1.1c-0.2,0-0.3,0-0.5,0
	c-0.1,0-0.2,0-0.3,0c-0.5,0.6-1.1,1-1.8,1l-0.1-1.6c-0.1-0.1-0.2-0.2-0.4-0.2c-0.3-0.2-0.6-0.5-0.8-0.9c-0.5,1-1.9,1.7-3.2,1.1
	c-1.5-0.7-1.3-1.8-1.3-3h-1c-0.2,0.8-0.7,1.5-1.5,1.8c-0.3,0.4-0.5,0.7-0.8,1c0.8,0,1.7-0.3,2.3-1c0.2,0.5,0.5,0.8,0.7,1.3
	c-1.1,0.4-1.7,0.4-2.3,1.7c-0.5,1.2-0.4,2.3,0.2,3c0.5,0.7,1.5,1.4,2.7,1.4c1.5,0,1.1-0.1,2.1,1.1c-1.9,1.8-2.2,4.1,0.2,5.6
	c-0.2,0.5-0.3,0.7-0.2,1l0.4-0.8c2-0.1,1.3,4.5-1.1,4.3c-1.2-0.1-2.1-0.9-2.2-1.9c-0.1-1.6,1-1.8,1.4-2.6c-2.7,0.5-2.5,4.7,0.3,5.3
	c1.3,0.3,2.6-0.4,3.2-1.3c1-1.3,0.4-2.6,0.2-3.7c1.5-0.1,2.8-1,3.4-2.7c0.6-2.5-0.5-0.7-0.5-2.3c-0.5,0.3-0.4,1.3-0.5,2
	c-0.4,0.9-0.9,1.5-1.6,1.8c-0.3,0.1-0.8,0.3-1.2,0.3c-0.4,0-1.1,0.1-1-0.5l0.7-2.2l0.5-1.8c2.7,0,5.4,0.5,6.9-2.5
	c0.2-0.4,0.3-0.8,0.3-1.2c0.1-0.9,0-1.8-0.6-2.5c0.5-0.2,1.8-0.3,2.4-1.7c-0.1-0.1-0.2-0.2-0.3-0.2c-0.1-0.1-0.2-0.1-0.2-0.2
	c0,0.1-0.1,0.1-0.1,0.2l-0.6,0.8c-0.7,0.6-1.8,0.8-3.3-0.1c0,1.4,2,0.8,1.9,3.7C129.1,55.4,127.9,52.3,127.9,49.8L127.9,49.8z
	 M135.3,31.4c-0.4-0.5-0.8-0.8-1.5-1.1c0.8-2.5,0.3-5.1-2.7-5c0.1,1.1,0.8,0.4,1.8,1.6c0.4,0.5,0.7,1.4,0.4,2.3
	c-0.2,0.8-0.9,1.4-1.7,1.4c-1.2,0-1.5-0.7-2-1.2c0.8-2.2,1.3-2.7,0-4.7c0.5,0,0.9-0.1,1.3-0.2c-0.2-1.1-1.1-0.8-1.8-3.2
	c-0.4-1.5-1.1-2.9-1-3.8c1.8,0.7,2.2,0.8,4.1,1.1c0.8,1.6,1.8,2.1,4.1,2.6c0.1,5,8.8,2.8,10.6,0.3c-1,0.2-2.4,1.6-4.5,1.9
	c-2,0.2-3.9-0.2-4.8-2.1c0.4-0.4,1.7-0.6,2.3-1c1.7-1.1,0.9-3.9-1.9-2.2c-0.9,0.5-1,0.9-1.6,1.9c-1.7-0.3-2-0.5-2.8-1.6
	c0.9-0.6,1.8-0.9,2.7-1.9c2.7-3-1.5-4.5-3.6-2.8c-1.3,1.1-1.1,2-1.2,3.5c-1.4-0.2-2.2-0.5-3.3-1.1c-0.1-2.1-0.2-2.6,0.3-5
	c-0.6-0.6-0.9-0.9-1.4-1.4l-0.1,1.9c-1.2-1.2-4.1-1.2-4.9,0.1c1.4,0.2,2-0.5,3.7,0.2c0.1,3.2-6.3,1.1-6.6,4.2
	c1.3,2.8,4.8-0.6,7.2,1.6c1.8,1.7,1.3,3.9,2.5,5.5c0.2,0.2,0.4,0.3,0.4,0.7c-2.8-0.4-3.5-1.6-5.3-2c-1.3,3,0.8,3.4,1.6,5.1
	c0.5,1.1-0.6,1.6-1,2.7c-0.4,1.2-0.4,2.2-0.6,3.3h0c0.1-0.2,0.2-0.5,0.3-0.7c0.1-0.1,0.2-0.3,0.3-0.4c0-1,0.5-2.2,1-2.9
	c0.9,1,1.9,1,3.1,1c0.2,0.7,0.2,1.4,0,2l0.5-0.5l0.5,0.3l0.3-0.9l1.1,0.5c-0.3,0.3-0.5,0.5-0.6,0.8l0.3,0.2c0.1-0.1,0.1-0.2,0.2-0.3
	c0.5-0.6,0.7-0.5,1.4-0.7c0.8-0.2,0.8-0.7,1.7,0c0.2,0.2,0.5,0.4,0.6,0.8C134.8,31.8,135.1,31.6,135.3,31.4L135.3,31.4z M123.6,33
	c-1.1-0.9-2.4-1.4-2.5-3.1c-3.4-1.6-3-1.2-3.7-5.7c-0.8-5.1-2.8-0.2-2.3,2.8c0.5,3.4-1.7,3.8-4,4.8l0.1,0.2c0,0.2,0.1,0.3,0.1,0.5
	c0.7-0.4,1.4-0.7,2.1-1c-0.2,0.7-0.5,1.1-0.7,1.7c0.3-0.3,0.7-0.6,1.1-0.9c0.4-0.5,0.9-0.9,1.6-0.9l0.1,0.2c0.3,0,0.5-0.1,0.8,0
	c-0.2-0.7,0-2.4,0.9-2.4c0.8,0.4,1.1,0.8,2.2,1.1c-0.1,1.3,0,1.2,0.3,1.9c0.2-0.1,0.5-0.2,0.7-0.2c-0.3-0.4-0.4-0.8-0.4-1.4
	c0.3,0.3,0.7,0.9,1.1,1.4c0.6,0.1,1.2,0.4,1.6,1.1c0,0,0,0.1,0,0.1L123.6,33L123.6,33z M102.8,17.5c-0.7,0.3-2-0.4-2.9-0.5
	c0.1,0.6-0.2,0.1,0.3,0.6c0.9,0.9,3.8,1.2,4.9,1.1c1.5-0.1,4.5,0.1,5.5,1.2c-0.7,1.3-4,1.1-4.6,2.4l0.7,0.6c-0.6,1-1.2,0.8-1.8,1.9
	c0.3,0.5,0.2,0.1,0.4,0.6l-1,1.7c0.5,1.2,0.9,0.5,0.8,2.5l0,3.1c0.2-0.3,0.4-0.5,0.6-0.7c0-0.3,0-0.6,0.1-0.9
	c0.1-1.7,0.4-2.6-0.4-3.8c1.7-2.4,0.8-1.9,1.1-2.7c0.4-0.9,1.5-0.5,1.4-2.4c1-0.3,2.4-0.7,3.2-1.2c1.3-0.7,1.3-1.8-0.3-2.5
	C107.2,16.9,104.7,18.2,102.8,17.5L102.8,17.5z M100.6,16.5c0.5-0.2,1.6-0.8,2.1-1.1c1.1-0.8,0.8-1.6,0.6-2.6
	c0.8-0.2,4.2-1.5,4.7-2.1c0.5-0.5-0.1-0.4,0.9-0.6c0.9-0.2,1.5,0,2.4-0.4c0.7-3.1,1.5-3.7,2.6-6.3c1.5,1.1,2.4,3.2,2.4,3.2
	c0.3,0.4,5.5,1.8,2.5,4.7c-0.8,0.8-3.5,2.6-1.4,4c0.6,0.4,1.2,0.6,1.8,0.3c-0.3-0.5-0.9-0.7-1.5-1.1c0.5-2.5,5-2.8,2.6-6.3
	c-1.6-2.5-1.5-1.3-2.9-2.5L115,2.7c-0.9-0.5-0.9-1.1-2-1.6c-0.5,1.9-0.5,2.3-1.4,3.9c-0.6,1.2-1.1,2.4-1.5,3.7
	c-1.5-0.2-2.7,0.2-3.7,0.6l0.3,0.6c-1,0.7-1.3,0.9-2.2,1.4l-2.2,1.2c0.2,0.7,0.9,1.4-0.1,2.4c-0.6,0.6-1.4,1.1-2.3,1.2
	C100.4,16.9,99.9,16.3,100.6,16.5L100.6,16.5z M108,30.6c2.1-3.8,5.2-8.1,7.2-9.9c-0.5,1.3-2.1,4.2-1.5,5.7c0.9-2.8,2.1-6.3,4.2-7.7
	c0.2,0.2,0.8,1.9,1.7,3.4l3.9,5.1c-0.1-1.4-2.3-4.5-3.2-6c-0.3-0.4-0.4-0.6-0.6-1c-0.2-0.3-0.2-0.6-0.4-0.8c1.3,0.6,8.5,2.9,8.9,3.4
	c0-0.6,0.2-0.2-0.3-0.7c-0.4-0.4-4.5-2.1-5-2.3c-2.2-0.9-4.2-1.5-4.2-3.5c-2.6,0-3.5-1.7-3.8-3.7c-0.2-1.2-0.5-3.8-1.1-4.9
	c-0.2-0.4,0-0.2-0.4-0.5c0.1,0.9,0.3,1.5,0.4,2.5c0.2,3.4,0,4.2,1.8,6.8c-1.6-0.2-9.5-2.7-11.2-0.5c1-0.1,1.6-0.4,2.7-0.4
	c3.1-0.1,6.3,1.8,9,2.1c-0.4,0.6-1.1,1.1-1.7,1.7c-2.7,3-6,7.2-7.8,11.4C107.2,30.8,107.6,30.7,108,30.6L108,30.6z M127.6,24.3
	l0.5,0.4c0.9,0.7,1.8,1.6,1.2,3.2c-0.7,1.8-3,1.3-3.2,0.3l0.6-1c-1.1-1-0.7-1.7-0.1-3.3C127.4,24.1,126.7,24.2,127.6,24.3
	L127.6,24.3z M121.3,51.8c-2.3,0.3-4-1.6-2.5-3.6c0.5-0.7,1.3-1,2.4-0.6c0.8,0.3,0.7,0.4,1.6,0.3c0.3,0,0.5-0.2,1,0.1
	c0.2,0.1,0.2,0.2,0.2,0.3C122.2,48.9,121.4,49,121.3,51.8L121.3,51.8z M123.3,58.5c-0.8-0.1-1.3-0.9-1.3-1.8c-0.1-1.3,0.6-2,1.2-2.5
	l1.3,0.3L123.3,58.5L123.3,58.5z M124.8,52.5l-0.2,1c-1.6-0.3-2.8-1.2-2.5-2.7c0.3-1.8,1.6-2.3,3.2-2.1L124.8,52.5L124.8,52.5z
	 M124.6,47.9c-0.1,0-0.4-0.2-0.5-0.4c0.8-0.4,0.7-0.9,1.3-0.9C125.2,47.8,125.6,48.2,124.6,47.9L124.6,47.9z M137.7,19.8
	c0.2-0.7,0.8-1.2,1.6-0.9c-0.1,0.4,0,0.4-0.6,0.7C138.4,19.7,138,19.8,137.7,19.8z M120,16.3c-0.2-1.4,4.2-2,4.5-2
	c0.4,0.9,0.5,0.8,1.2,1.5C122.7,15.6,121.3,17,120,16.3z M126.8,13.5c0.2,0.5,0.3,1.2,0.2,1.9c-0.3-0.2-0.5-0.4-0.8-0.7
	c-0.5-0.4-0.4-0.3-0.5-0.8c0.2,0,0.3-0.1,0.5-0.2l0.4-0.2C126.6,13.5,126.7,13.5,126.8,13.5L126.8,13.5z M132.8,16.8
	c0-1.5,1-3,2.4-2.1c0,0.8-0.5,1.1-0.9,1.4C133.8,16.4,133.5,16.7,132.8,16.8L132.8,16.8z"/>
<linearGradient id="SVGID_2_" gradientUnits="userSpaceOnUse" x1="47.9213" y1="54.916" x2="47.9815" y2="46.0579" gradientTransform="matrix(2.5844 0 0 -2.5844 0 167.9846)">
	<stop  offset="0" style="stop-color:#CDA742"/>
	<stop  offset="0.4784" style="stop-color:#F4CD7B"/>
	<stop  offset="1" style="stop-color:#C49940"/>
</linearGradient>
<path class="st1" d="M86.3,26.2c-0.8,0.6-1.5,1.4-2.1,2.2c-0.6,0.8-1.1,1.7-1.5,2.6c-0.4,0.9-0.8,1.8-1.1,2.8
	c-0.3,1-0.7,1.9-1.1,2.8c-0.4,0.9-0.8,1.8-1.3,2.7c-0.5,0.9-1.1,1.7-1.8,2.4l0,0c0.9-0.5,1.7-1,2.5-1.5s1.6-1,2.3-1.4
	c1.9-1.2,3.4-2.4,4.5-3.5c1.1-1.1,1.9-2.1,2.5-3.1c0.6-0.9,0.9-1.8,1.1-2.4c0.2-0.7,0.2-1.2,0.2-1.6c-0.2-0.1-0.3-0.2-0.4-0.3
	c-0.1-0.1-0.1-0.3-0.1-0.5c0-0.3,0.1-0.5,0.3-0.6c0.2-0.2,0.4-0.3,0.6-0.3c0.4,0,0.7,0.1,0.8,0.4c0.1,0.3,0.2,0.6,0.2,1.1
	c0,0.6-0.1,1.2-0.4,1.9c-0.3,0.7-0.7,1.3-1.2,2c-0.5,0.7-1.1,1.4-1.7,2c-0.7,0.7-1.3,1.3-2.1,2c-0.7,0.6-1.5,1.2-2.3,1.8
	c-0.8,0.6-1.6,1.1-2.3,1.6c-0.9,0.5-1.8,1.1-2.7,1.6c-0.9,0.5-1.8,1.1-2.8,1.7l-0.1-0.1c0.5-0.8,1-1.6,1.4-2.5
	c0.4-0.9,0.7-1.8,1.1-2.7c0.3-0.9,0.7-1.9,1-2.8s0.7-1.8,1.2-2.7s1-1.7,1.6-2.4s1.3-1.4,2.2-2l0,0c-0.6,0.3-1.3,0.6-2.1,0.8
	c-0.7,0.2-1.5,0.4-2.3,0.6c-0.5,0.1-1,0.3-1.6,0.5c-0.6,0.2-1.1,0.5-1.6,0.9s-0.9,0.8-1.3,1.3s-0.5,1-0.5,1.7c0,0.5,0.2,0.9,0.5,1.2
	c0.3,0.3,0.7,0.4,1.2,0.4c0.3,0,0.5-0.1,0.8-0.2c0.3-0.1,0.5-0.3,0.7-0.5c0.2-0.2,0.4-0.4,0.5-0.7s0.2-0.6,0.2-0.9
	c0-0.2,0-0.3,0-0.4c0-0.1,0-0.3,0-0.4h0.3c0,0.1,0,0.3,0,0.4c0,0.1,0,0.3,0,0.5c0,0.3-0.1,0.6-0.2,0.9s-0.3,0.5-0.5,0.8
	c-0.2,0.2-0.5,0.4-0.8,0.5c-0.3,0.1-0.6,0.2-1,0.2c-0.6,0-1.2-0.2-1.6-0.6c-0.4-0.4-0.7-0.9-0.7-1.5c0-0.7,0.2-1.3,0.6-1.8
	c0.4-0.5,0.8-0.9,1.4-1.3c0.5-0.3,1.1-0.6,1.8-0.8c0.6-0.2,1.2-0.4,1.7-0.5c0.4-0.1,0.9-0.2,1.4-0.4c0.5-0.1,1.1-0.2,1.6-0.4
	c0.5-0.2,1.1-0.3,1.6-0.6c0.5-0.2,1-0.5,1.3-0.8L86.3,26.2L86.3,26.2z M91.9,34.4c-0.8,1.2-1.5,2.2-2.1,3c-0.6,0.8-1,1.5-1.4,2.1
	c-0.4,0.5-0.6,1-0.8,1.3c-0.2,0.3-0.2,0.6-0.2,0.8c0,0.4,0.2,0.6,0.5,0.6c0.3,0,0.7-0.1,1.1-0.3c0.4-0.2,0.8-0.5,1.3-0.9
	c0.4-0.4,0.9-0.7,1.3-1.2c0.4-0.4,0.9-0.9,1.2-1.3c0.4-0.4,0.7-0.8,1-1.3c0.3-0.4,0.5-0.7,0.7-1l0.2,0.1c-0.2,0.3-0.4,0.7-0.7,1.1
	c-0.3,0.4-0.7,0.9-1.1,1.3c-0.4,0.4-0.8,0.9-1.3,1.3c-0.4,0.4-0.9,0.8-1.3,1.2c-0.5,0.4-0.9,0.6-1.3,0.8c-0.4,0.2-0.8,0.3-1.2,0.3
	c-0.4,0-0.7-0.1-0.9-0.3c-0.2-0.2-0.3-0.5-0.3-0.7c0-0.3,0.1-0.7,0.2-1c0.1-0.4,0.4-0.8,0.7-1.3c0.3-0.5,0.7-1.1,1.2-1.9
	c0.5-0.7,1.1-1.6,1.8-2.7L91.9,34.4L91.9,34.4z M93.2,30.2c0.2,0,0.4,0.1,0.5,0.2c0.1,0.1,0.2,0.3,0.2,0.5s-0.1,0.4-0.2,0.5
	c-0.1,0.1-0.3,0.2-0.5,0.2s-0.4-0.1-0.5-0.2s-0.2-0.3-0.2-0.5s0.1-0.4,0.2-0.5S93,30.2,93.2,30.2z M96.7,34.4l-3,4.2l0,0
	c0.3-0.4,0.7-0.8,1.1-1.3c0.4-0.5,0.9-1,1.4-1.4c0.5-0.5,1-0.8,1.5-1.1c0.5-0.3,1-0.5,1.6-0.5c0.5,0,0.8,0.1,1.1,0.4
	c0.3,0.3,0.4,0.6,0.4,1c0,0.2-0.1,0.5-0.3,0.9s-0.4,0.7-0.7,1.1s-0.5,0.8-0.8,1.2c-0.3,0.4-0.6,0.8-0.8,1.1c-0.3,0.4-0.5,0.7-0.7,1
	c-0.2,0.3-0.3,0.5-0.3,0.7c0,0.4,0.2,0.6,0.6,0.6c0.5,0,1-0.2,1.5-0.5c0.5-0.3,1.2-0.9,2-1.7c0.3-0.3,0.6-0.6,0.9-1
	c0.3-0.4,0.6-0.7,0.9-1.1c0.3-0.4,0.6-0.7,0.8-1c0.2-0.3,0.4-0.6,0.6-0.8l0.2,0.1c-0.3,0.5-0.7,1-1.2,1.6c-0.5,0.6-1,1.2-1.6,1.9
	c-0.3,0.4-0.7,0.7-1,1.1c-0.4,0.3-0.7,0.6-1.1,0.9c-0.4,0.3-0.7,0.4-1,0.6c-0.3,0.1-0.7,0.2-1,0.2c-0.4,0-0.8-0.1-1.1-0.4
	c-0.3-0.2-0.4-0.6-0.4-1c0-0.5,0.2-1,0.5-1.5c0.4-0.5,0.8-1.1,1.2-1.6c0.4-0.5,0.8-1.1,1.2-1.6c0.4-0.5,0.5-0.9,0.5-1.3
	c0-0.2-0.1-0.3-0.2-0.4c-0.1-0.1-0.3-0.1-0.5-0.1c-0.4,0-0.8,0.1-1.3,0.4c-0.5,0.3-1,0.7-1.4,1.1c-0.5,0.5-1,1-1.5,1.5
	c-0.5,0.6-1,1.1-1.4,1.7c-0.4,0.6-0.8,1.1-1.1,1.6c-0.3,0.5-0.6,1-0.7,1.3h-1.4c0.4-0.7,0.8-1.3,1.3-2s0.9-1.4,1.3-2.1
	c0.4-0.7,0.9-1.3,1.3-2s0.8-1.2,1.1-1.7L96.7,34.4L96.7,34.4z M114.7,36.5c-0.4,0.4-0.8,0.7-1.2,1c-0.5,0.2-0.9,0.4-1.3,0.4
	c-0.4,0-0.8-0.1-1.1-0.3s-0.5-0.4-0.7-0.7h0c-0.2,0.6-0.4,1.2-0.8,1.8c-0.4,0.7-0.9,1.3-1.5,1.8c-0.6,0.5-1.2,1-1.9,1.4
	c-0.7,0.4-1.4,0.5-2.1,0.5c-0.7,0-1.1-0.2-1.5-0.6c-0.3-0.4-0.5-0.9-0.5-1.5c0-0.3,0.1-0.7,0.3-1.2c0.2-0.4,0.4-0.9,0.7-1.3
	c0.3-0.4,0.6-0.9,1.1-1.3c0.4-0.4,0.8-0.8,1.3-1.2c0.5-0.3,1-0.6,1.5-0.8s1.1-0.3,1.6-0.3c0.6,0,1.1,0.2,1.4,0.5
	c0.3,0.4,0.5,0.8,0.6,1.4c0,0.4,0.2,0.7,0.5,1c0.3,0.3,0.7,0.4,1.2,0.4c0.5,0,0.9-0.1,1.3-0.3c0.4-0.2,0.8-0.5,1.1-0.9L114.7,36.5
	L114.7,36.5z M103.3,40.9c0,0.4,0.1,0.7,0.2,0.9c0.2,0.2,0.4,0.3,0.7,0.3c0.4,0,0.8-0.1,1.2-0.3c0.4-0.2,0.8-0.5,1.2-0.9
	c0.4-0.4,0.7-0.8,1-1.2c0.3-0.5,0.6-0.9,0.8-1.4s0.4-1,0.6-1.4c0.1-0.5,0.2-0.9,0.2-1.3c0-0.3-0.1-0.6-0.2-0.8
	c-0.2-0.2-0.4-0.3-0.7-0.3c-0.3,0-0.7,0.1-1,0.3s-0.7,0.5-1.1,0.8c-0.4,0.3-0.7,0.7-1.1,1.2c-0.3,0.4-0.6,0.9-0.9,1.4
	c-0.3,0.5-0.5,0.9-0.6,1.4C103.3,40,103.3,40.5,103.3,40.9L103.3,40.9z M122.3,34.4c-0.9,1.2-1.8,2.5-2.6,3.8
	c-0.8,1.3-1.7,2.5-2.5,3.8c0.8-0.2,1.5-0.4,2.2-0.8c0.7-0.4,1.4-0.8,2.1-1.4c0.7-0.5,1.3-1.1,1.8-1.8c0.6-0.6,1-1.3,1.4-1.9l0.1,0.1
	c-0.7,1.1-1.4,2.1-2.2,2.8c-0.8,0.8-1.6,1.4-2.3,1.8s-1.4,0.8-2,1s-1,0.3-1.3,0.4c-0.1,0-0.2,0.2-0.5,0.6c-0.2,0.4-0.5,0.8-0.9,1.3
	c-0.4,0.5-0.8,1-1.4,1.6c-0.5,0.6-1.1,1.1-1.8,1.6c-0.7,0.5-1.4,0.9-2.2,1.2s-1.7,0.5-2.6,0.5c-0.5,0-1.1-0.1-1.5-0.2
	c-0.5-0.1-0.9-0.3-1.2-0.5c-0.3-0.2-0.6-0.5-0.8-0.8c-0.2-0.3-0.3-0.7-0.3-1.1c0-0.7,0.2-1.2,0.7-1.6c0.5-0.4,1.1-0.7,1.8-0.7
	c0.2,0,0.3,0,0.4,0c0.1,0,0.2,0,0.3,0.1v0.2h-0.2c-0.6,0-1,0.2-1.3,0.6c-0.3,0.4-0.4,0.9-0.4,1.5c0,0.4,0.1,0.8,0.2,1.1
	c0.1,0.3,0.3,0.5,0.6,0.7s0.5,0.3,0.9,0.4c0.3,0.1,0.7,0.1,1.1,0.1c0.7,0,1.3-0.2,2-0.5c0.6-0.3,1.3-0.7,1.9-1.2
	c0.6-0.5,1.2-1.1,1.7-1.7c0.5-0.6,1.1-1.3,1.5-1.9c0.5-0.6,0.9-1.3,1.3-1.9c0.4-0.6,0.7-1.1,1.1-1.5l0,0c-0.2,0.3-0.5,0.6-0.8,0.9
	c-0.3,0.3-0.6,0.6-0.9,0.8c-0.3,0.3-0.7,0.5-1.1,0.6c-0.4,0.2-0.7,0.2-1.1,0.2c-0.3,0-0.5,0-0.7-0.2c-0.2-0.1-0.4-0.2-0.5-0.4
	c-0.1-0.2-0.2-0.4-0.3-0.6c-0.1-0.2-0.1-0.4-0.1-0.6c0-0.5,0.1-1,0.3-1.5c0.2-0.5,0.5-1,0.8-1.5c0.3-0.5,0.7-0.9,1.2-1.3
	c0.4-0.4,0.9-0.8,1.4-1.1c0.5-0.3,1-0.6,1.4-0.8c0.5-0.2,0.9-0.3,1.3-0.3c0.6,0,1,0.1,1.3,0.4c0.3,0.3,0.4,0.6,0.4,1h0.1l0.8-1.3
	L122.3,34.4L122.3,34.4z M118.1,34.5c-0.5,0-1,0.2-1.6,0.6c-0.6,0.4-1.1,0.9-1.6,1.6c-0.5,0.6-0.9,1.3-1.3,2
	c-0.3,0.7-0.5,1.4-0.5,2.1c0,0.3,0.1,0.6,0.3,0.8s0.4,0.3,0.7,0.3c0.2,0,0.5-0.1,0.8-0.3c0.3-0.2,0.7-0.4,1.1-0.7s0.7-0.7,1.1-1.1
	c0.4-0.4,0.7-0.9,1-1.3c0.3-0.5,0.5-1,0.7-1.5c0.2-0.5,0.3-1,0.3-1.5c0-0.3-0.1-0.5-0.2-0.7C118.7,34.6,118.5,34.5,118.1,34.5
	L118.1,34.5z M127,34.4l-2.9,4.2l0,0c0.2-0.3,0.5-0.6,0.8-0.9c0.3-0.3,0.7-0.7,1.1-1.1s0.8-0.7,1.2-1.1c0.4-0.4,0.8-0.7,1.3-0.9
	c0.1-0.2,0.2-0.3,0.3-0.4c0.1-0.1,0.3-0.1,0.5-0.1c0.2,0,0.3,0,0.4,0c0.1,0,0.3,0,0.4,0c-0.3,0.3-0.5,0.6-0.7,0.9
	c-0.2,0.4-0.4,0.8-0.4,1.2c0,0.4,0.1,0.6,0.3,0.8c0.2,0.2,0.4,0.3,0.7,0.3c0.2,0,0.4,0,0.7-0.1s0.4-0.2,0.6-0.3
	c0.2-0.1,0.4-0.3,0.6-0.4c0.2-0.2,0.3-0.3,0.5-0.4l0.1,0.1c-0.2,0.2-0.3,0.3-0.5,0.5s-0.4,0.3-0.6,0.5c-0.2,0.2-0.5,0.3-0.7,0.4
	c-0.3,0.1-0.5,0.1-0.8,0.1c-0.5,0-0.9-0.1-1.2-0.4c-0.3-0.3-0.4-0.7-0.4-1.2c0-0.4,0.1-0.7,0.3-1l0,0c-0.6,0.4-1.3,1-2.1,1.7
	c-0.7,0.7-1.5,1.5-2.4,2.4c-0.3,0.3-0.6,0.8-0.9,1.3c-0.3,0.5-0.6,1.1-0.9,1.7h-1.5c0.8-1.3,1.6-2.6,2.5-3.9
	c0.8-1.3,1.7-2.6,2.5-3.9L127,34.4L127,34.4z M138.4,34.4h1.5c-0.6,0.8-1.1,1.6-1.6,2.3c-0.5,0.7-1,1.4-1.4,2.1
	c-0.4,0.6-0.7,1.2-1,1.7c-0.2,0.5-0.4,0.9-0.4,1.1c0,0.4,0.2,0.6,0.6,0.6c0.3,0,0.7-0.2,1.2-0.5c0.5-0.3,1-0.7,1.6-1.3
	c0.6-0.5,1.2-1.2,1.8-1.9c0.6-0.7,1.2-1.5,1.7-2.3l0.1,0c-0.4,0.6-0.9,1.3-1.4,2s-1.1,1.4-1.7,2c-0.6,0.6-1.2,1.1-1.8,1.6
	s-1.2,0.6-1.7,0.6c-0.4,0-0.8-0.1-1-0.3c-0.2-0.2-0.3-0.5-0.3-0.8c0-0.2,0-0.4,0.1-0.6c0.1-0.2,0.1-0.4,0.2-0.6l0,0
	c-0.2,0.2-0.4,0.5-0.7,0.7c-0.3,0.3-0.6,0.5-1,0.8c-0.3,0.2-0.7,0.4-1.1,0.6c-0.4,0.2-0.7,0.3-1.1,0.3c-0.6,0-1-0.2-1.2-0.5
	c-0.2-0.4-0.3-0.7-0.3-1.2c0-0.6,0.2-1.3,0.6-2.1c0.4-0.7,0.9-1.5,1.5-2.1c0.6-0.7,1.3-1.2,2-1.7c0.7-0.4,1.4-0.7,2-0.7
	c0.3,0,0.6,0,0.8,0.1c0.2,0.1,0.4,0.2,0.6,0.3c0.2,0.1,0.3,0.3,0.4,0.5c0.1,0.2,0.1,0.4,0.2,0.6h0L138.4,34.4L138.4,34.4z
	 M130.9,40.8c0,0.4,0.1,0.6,0.2,0.8c0.1,0.2,0.3,0.3,0.6,0.3s0.6-0.1,0.9-0.3c0.4-0.2,0.7-0.4,1.1-0.8c0.4-0.3,0.8-0.7,1.1-1.1
	c0.4-0.4,0.7-0.9,1-1.3s0.5-0.9,0.7-1.4c0.2-0.5,0.3-0.9,0.3-1.4c0-0.4-0.1-0.6-0.3-0.8c-0.2-0.2-0.4-0.3-0.7-0.3
	c-0.5,0-1,0.2-1.5,0.6s-1.1,0.9-1.6,1.5c-0.5,0.6-0.9,1.3-1.3,2C131.1,39.4,130.9,40.1,130.9,40.8L130.9,40.8z M155.1,26.5
	c-0.6,0.9-1.2,1.9-1.9,3c-0.7,1.1-1.4,2.1-2.1,3.1c-0.7,1-1.4,2-2,3c-0.6,1-1.2,1.8-1.7,2.7c-0.5,0.8-0.9,1.5-1.2,2.1
	c-0.3,0.6-0.4,1-0.4,1.3c0,0.2,0,0.3,0.1,0.4c0.1,0.1,0.2,0.1,0.4,0.1c0.4,0,0.8-0.2,1.3-0.5s1.1-0.8,1.8-1.4
	c0.6-0.6,1.2-1.2,1.7-1.9c0.6-0.7,1.1-1.4,1.5-2.1l0.2,0.1c-0.1,0.2-0.3,0.5-0.5,0.9c-0.2,0.3-0.5,0.7-0.7,1
	c-0.3,0.4-0.6,0.7-0.9,1.1c-0.3,0.4-0.6,0.7-0.9,1c-0.6,0.6-1.2,1.1-1.8,1.5c-0.6,0.4-1.1,0.6-1.6,0.6c-0.5,0-0.8-0.1-1.1-0.3
	s-0.4-0.5-0.4-0.8c0-0.3,0.1-0.6,0.2-0.8c0.1-0.3,0.2-0.5,0.4-0.7l0,0c-0.2,0.3-0.5,0.6-0.8,0.9c-0.3,0.3-0.6,0.6-0.9,0.9
	c-0.3,0.3-0.7,0.5-1.1,0.7c-0.4,0.2-0.8,0.3-1.1,0.3c-0.5,0-1-0.2-1.3-0.5c-0.3-0.3-0.4-0.7-0.4-1.2c0-0.6,0.2-1.3,0.7-2.1
	c0.4-0.8,1-1.5,1.7-2.1c0.7-0.7,1.4-1.2,2.1-1.6c0.8-0.4,1.5-0.7,2.1-0.7c0.5,0,0.9,0.2,1.2,0.5c0.3,0.3,0.4,0.7,0.4,1.2h0.1
	l5.9-9.3L155.1,26.5L155.1,26.5z M147,35.9c0-0.4-0.1-0.7-0.2-1c-0.1-0.3-0.4-0.4-0.8-0.4c-0.3,0-0.6,0.1-1,0.3
	c-0.4,0.2-0.7,0.5-1.1,0.8c-0.4,0.4-0.7,0.7-1.1,1.2c-0.4,0.4-0.7,0.9-0.9,1.4c-0.3,0.5-0.5,0.9-0.7,1.4c-0.2,0.4-0.3,0.8-0.3,1.2
	c0,0.3,0.1,0.6,0.2,0.8c0.1,0.2,0.3,0.3,0.7,0.3c0.3,0,0.6-0.1,0.9-0.3c0.4-0.2,0.7-0.5,1.1-0.8c0.4-0.3,0.8-0.7,1.2-1.2
	c0.4-0.4,0.7-0.9,1-1.3c0.3-0.4,0.6-0.9,0.7-1.3C146.9,36.6,147,36.2,147,35.9L147,35.9z M162.7,36.5c-0.4,0.4-0.8,0.7-1.2,1
	c-0.5,0.2-0.9,0.4-1.3,0.4c-0.4,0-0.8-0.1-1.1-0.3c-0.3-0.2-0.5-0.4-0.7-0.7h0c-0.2,0.6-0.4,1.2-0.8,1.8c-0.4,0.7-0.9,1.3-1.5,1.8
	c-0.6,0.5-1.2,1-1.9,1.4c-0.7,0.4-1.4,0.5-2.1,0.5c-0.7,0-1.1-0.2-1.5-0.6c-0.3-0.4-0.5-0.9-0.5-1.5c0-0.3,0.1-0.7,0.3-1.2
	c0.2-0.4,0.4-0.9,0.7-1.3c0.3-0.4,0.6-0.9,1.1-1.3c0.4-0.4,0.8-0.8,1.3-1.2c0.5-0.3,1-0.6,1.5-0.8c0.5-0.2,1.1-0.3,1.6-0.3
	c0.6,0,1.1,0.2,1.4,0.5c0.3,0.4,0.5,0.8,0.6,1.4c0,0.4,0.2,0.7,0.5,1c0.3,0.3,0.7,0.4,1.2,0.4c0.5,0,0.9-0.1,1.3-0.3
	c0.4-0.2,0.8-0.5,1.1-0.9L162.7,36.5L162.7,36.5z M151.3,40.9c0,0.4,0.1,0.7,0.2,0.9c0.2,0.2,0.4,0.3,0.7,0.3c0.4,0,0.8-0.1,1.2-0.3
	c0.4-0.2,0.8-0.5,1.2-0.9c0.4-0.4,0.7-0.8,1-1.2c0.3-0.5,0.6-0.9,0.8-1.4s0.4-1,0.6-1.4c0.1-0.5,0.2-0.9,0.2-1.3
	c0-0.3-0.1-0.6-0.2-0.8c-0.2-0.2-0.4-0.3-0.7-0.3c-0.3,0-0.7,0.1-1,0.3c-0.4,0.2-0.7,0.5-1.1,0.8c-0.4,0.3-0.7,0.7-1.1,1.2
	c-0.3,0.4-0.6,0.9-0.9,1.4c-0.3,0.5-0.5,0.9-0.6,1.4C151.3,40,151.3,40.5,151.3,40.9L151.3,40.9z M165.1,34.4
	c-0.3,0.4-0.7,0.9-1.1,1.4c-0.4,0.6-0.9,1.2-1.3,1.8c-0.4,0.6-0.8,1.3-1.1,1.9s-0.5,1.2-0.5,1.6c0,0.3,0.1,0.5,0.3,0.7
	c0.2,0.2,0.4,0.3,0.8,0.3c0.6,0,1.2-0.2,1.8-0.7c0.6-0.5,1.2-1,1.7-1.7c0.5-0.7,0.9-1.4,1.3-2.1s0.5-1.3,0.5-1.8
	c0-0.1,0-0.3-0.1-0.4s-0.1-0.3-0.1-0.5c0-0.2,0-0.4,0.2-0.5c0.1-0.2,0.3-0.2,0.5-0.2c0.2,0,0.4,0.1,0.6,0.4c0.2,0.2,0.2,0.7,0.2,1.3
	c0,0.2,0,0.3,0,0.5c0,0.1,0,0.3-0.1,0.4c0.2,0.2,0.4,0.4,0.7,0.6c0.3,0.1,0.6,0.2,0.9,0.2c0.4,0,0.8-0.1,1.3-0.3s0.8-0.5,1.1-1
	l0.2,0.1c-0.1,0.2-0.3,0.4-0.4,0.6c-0.2,0.2-0.4,0.3-0.6,0.5c-0.2,0.1-0.5,0.2-0.7,0.3c-0.3,0.1-0.5,0.1-0.8,0.1
	c-0.3,0-0.7-0.1-1-0.2c-0.3-0.1-0.6-0.3-0.8-0.5c-0.2,0.6-0.5,1.2-1,1.8c-0.5,0.6-1,1.2-1.6,1.7c-0.6,0.5-1.3,1-1.9,1.3
	c-0.7,0.3-1.4,0.5-2,0.5c-0.6,0-1.1-0.1-1.5-0.4c-0.3-0.3-0.5-0.8-0.5-1.5c0-0.5,0.1-1,0.4-1.5c0.3-0.5,0.6-1.1,1-1.6
	c0.4-0.6,0.8-1.1,1.2-1.6c0.4-0.5,0.7-1,1-1.4L165.1,34.4L165.1,34.4z"/>
<path class="st2" d="M146.5,46.4c0-0.3,0.1-0.5,0.3-0.7c0.1-0.2,0.3-0.4,0.5-0.5c0.2-0.1,0.4-0.2,0.6-0.3c0.2-0.1,0.4-0.1,0.7-0.1
	c0.4,0,0.7,0.1,1,0.2l-0.1,0.4c-0.2-0.2-0.5-0.2-0.9-0.2c-0.2,0-0.4,0-0.5,0.1c-0.2,0-0.4,0.1-0.5,0.2c-0.2,0.1-0.3,0.2-0.4,0.4
	s-0.2,0.4-0.2,0.6c0,0.2,0,0.4,0,0.5c0,0.2,0.1,0.3,0.2,0.4c0.1,0.1,0.2,0.2,0.3,0.3c0.1,0.1,0.2,0.1,0.4,0.2c0.1,0,0.3,0,0.4,0
	c0.3,0,0.5,0,0.7-0.1l0.2-1.4h0.4l-0.3,1.6c-0.4,0.1-0.7,0.2-1.1,0.2c-0.2,0-0.4,0-0.6-0.1s-0.4-0.2-0.6-0.3
	c-0.2-0.1-0.3-0.3-0.4-0.6C146.4,47,146.4,46.8,146.5,46.4L146.5,46.4z M151.6,46.3c0.2-0.3,0.6-0.5,1.1-0.4l-0.1,0.4
	c-0.2,0-0.4,0-0.6,0.1c-0.2,0.1-0.3,0.3-0.4,0.4l-0.2,1.4h-0.4l0.4-2.3h0.4L151.6,46.3L151.6,46.3z M156.4,47.1
	c-0.1,0.4-0.2,0.7-0.5,0.9c-0.3,0.2-0.6,0.3-0.9,0.3c-0.3,0-0.6-0.1-0.8-0.3c-0.2-0.2-0.3-0.5-0.2-0.9c0.1-0.4,0.2-0.7,0.5-0.9
	c0.3-0.2,0.6-0.3,0.9-0.3s0.6,0.1,0.8,0.3C156.4,46.4,156.4,46.7,156.4,47.1L156.4,47.1z M154.3,47.1c0,0.3,0,0.5,0.1,0.6
	c0.1,0.1,0.3,0.2,0.6,0.2c0.3,0,0.5-0.1,0.7-0.2c0.2-0.2,0.3-0.4,0.4-0.6c0-0.3,0-0.5-0.1-0.6c-0.1-0.1-0.3-0.2-0.6-0.2
	c-0.3,0-0.5,0.1-0.7,0.2C154.4,46.6,154.3,46.8,154.3,47.1z M160.1,45.9h0.4l-0.4,2.3h-0.4l0.1-0.4c-0.1,0.1-0.2,0.2-0.4,0.3
	c-0.2,0.1-0.3,0.1-0.5,0.1c-0.3,0-0.5-0.1-0.7-0.3c-0.2-0.2-0.2-0.4-0.2-0.7l0.2-1.4h0.4l-0.2,1.4c-0.1,0.4,0.1,0.6,0.5,0.6
	c0.3,0,0.6-0.2,0.9-0.5L160.1,45.9L160.1,45.9z M162.7,46.3c0.3-0.3,0.6-0.5,1-0.5c0.3,0,0.6,0.1,0.8,0.4c0.2,0.2,0.3,0.5,0.2,0.9
	c0,0.3-0.2,0.6-0.5,0.9c-0.3,0.2-0.5,0.3-0.9,0.3c-0.4,0-0.7-0.2-0.9-0.5l-0.2,1.5h-0.4l0.5-3.4h0.4L162.7,46.3L162.7,46.3z
	 M164.3,47.1c0-0.3,0-0.5-0.1-0.6c-0.1-0.2-0.3-0.2-0.5-0.2c-0.2,0-0.4,0.1-0.6,0.2c-0.2,0.1-0.3,0.3-0.4,0.4l-0.1,0.6
	c0,0.2,0.1,0.3,0.3,0.4c0.1,0.1,0.3,0.2,0.5,0.2c0.2,0,0.5-0.1,0.6-0.2C164.2,47.5,164.3,47.3,164.3,47.1L164.3,47.1z"/>
</svg>
