<?xml version="1.0" encoding="utf-8"?>
<!-- Generator: Adobe Illustrator 23.0.5, SVG Export Plug-In . SVG Version: 6.00 Build 0)  -->
<svg version="1.1" id="Слой_1" xmlns="http://www.w3.org/2000/svg" xmlns:xlink="http://www.w3.org/1999/xlink" x="0px" y="0px"
	 viewBox="0 0 200 110" style="enable-background:new 0 0 200 110;" xml:space="preserve">
<style type="text/css">
	.st0{fill-rule:evenodd;clip-rule:evenodd;fill:url(#SVGID_1_);}
	.st1{fill:url(#SVGID_2_);}
	.st2{fill:#EEC774;}
</style>
<linearGradient id="SVGID_1_" gradientUnits="userSpaceOnUse" x1="26.3668" y1="96.2508" x2="28.0251" y2="54.5964" gradientTransform="matrix(2.5844 0 0 -2.5844 26.9344 250.4253)">
	<stop  offset="0" style="stop-color:#CDA742"/>
	<stop  offset="0.4784" style="stop-color:#F4CD7B"/>
	<stop  offset="1" style="stop-color:#C49940"/>
</linearGradient>
<path class="st0" d="M97.8,37.8l2.1,1.3l-1,3c-0.6-0.3-0.7-0.1-1.3-1.8C97.3,39.3,97.4,38.7,97.8,37.8L97.8,37.8z M104,83.8
	c-0.5-1-0.6-1.3-1.9-1.9c0,2.7,3.3,8.8-2.4,7.9l-0.1-1.5l1-5.2v-0.5c0.2-1.6,0.8,0.1,2.7-1.3c0.7-0.5,1.3-1.1,1.7-1.8
	c-0.3,0-0.5,0-0.8,0c-0.2,0-0.4,0-0.6,0c-0.8,1-1.8,1.6-3,1.7l-0.1-2.6c-0.2-0.1-0.4-0.3-0.6-0.4c-0.5-0.4-1-0.9-1.3-1.5
	c-0.9,1.7-3.1,2.9-5.4,1.9c-2.5-1.2-2.2-3-2.2-5h-1.7c-0.4,1.4-1.3,2.5-2.5,3.1c-0.4,0.6-0.9,1.2-1.3,1.7c1.4,0,2.9-0.5,3.9-1.7
	c0.4,0.9,0.8,1.4,1.1,2.1c-1.8,0.7-2.9,0.6-3.9,2.8c-0.9,2-0.6,3.9,0.3,5.1c0.9,1.1,2.6,2.3,4.6,2.3c2.5,0,1.8-0.2,3.6,1.9
	c-3.3,3.1-3.7,6.9,0.4,9.4c-0.3,0.8-0.5,1.1-0.3,1.8l0.8-1.3c3.3-0.2,2.2,7.6-1.9,7.3c-2.1-0.2-3.5-1.6-3.6-3.2
	c-0.2-2.8,1.7-3.1,2.3-4.4c-4.6,0.8-4.3,7.9,0.5,8.9c2.2,0.5,4.4-0.8,5.4-2.1c1.6-2.1,0.6-4.4,0.4-6.3c2.6-0.2,4.8-1.6,5.7-4.6
	c1-4.1-0.8-1.2-0.8-3.9c-0.8,0.5-0.6,2.2-0.8,3.4c-0.7,1.4-1.6,2.5-2.7,3c-0.5,0.2-1.4,0.4-2,0.4c-0.8,0-1.8,0.1-1.6-0.8l1.3-3.7
	l0.8-3.1c4.6,0.1,9.2,0.8,11.6-4.3c0.3-0.6,0.4-1.4,0.4-2c0.2-1.5,0-3.1-1.1-4.1c0.8-0.4,3-0.6,4.1-2.8c-0.2-0.1-0.3-0.3-0.5-0.4
	c-0.1-0.1-0.3-0.2-0.4-0.4c0,0.1-0.1,0.2-0.1,0.3l-1,1.3c-1.2,1-3.1,1.3-5.5-0.2c0,2.4,3.4,1.3,3.2,6.3
	C106,93.2,103.9,88.1,104,83.8L104,83.8z M116.5,52.7c-0.6-0.8-1.4-1.4-2.5-1.8c1.4-4.3,0.6-8.7-4.6-8.5c0.1,1.8,1.3,0.6,3,2.7
	c0.6,0.8,1.1,2.4,0.7,3.9c-0.4,1.4-1.5,2.3-2.9,2.3c-2,0-2.5-1.1-3.3-2c1.4-3.7,2.2-4.6,0-7.9c0.8,0.1,1.6-0.1,2.2-0.4
	c-0.3-1.9-1.9-1.4-3.1-5.4c-0.7-2.5-1.8-4.9-1.7-6.4c3,1.2,3.8,1.3,6.9,1.8c1.3,2.7,3,3.6,6.9,4.4c0.2,8.4,14.9,4.8,18,0.5
	c-1.6,0.3-4.1,2.8-7.6,3.2c-3.3,0.4-6.6-0.3-8.1-3.6c0.7-0.6,2.8-1,3.9-1.7c2.9-1.9,1.5-6.5-3.3-3.7c-1.4,0.8-1.7,1.6-2.7,3.2
	c-2.9-0.5-3.4-0.8-4.8-2.7c1.6-1,3.1-1.5,4.6-3.2c4.5-5-2.5-7.7-6.1-4.7c-2.2,1.8-1.9,3.3-2,5.9c-2.3-0.4-3.6-0.9-5.6-1.8
	c-0.1-3.6-0.4-4.4,0.4-8.4c-1-1-1.5-1.5-2.4-2.4l-0.1,3.2c-2.1-2-7-2.1-8.3,0.2c2.4,0.4,3.4-0.9,6.3,0.4c0.2,5.4-10.6,1.8-11.1,7.1
	c2.2,4.7,8.1-1.1,12.2,2.7c3.1,2.8,2.1,6.5,4.2,9.3c0.3,0.4,0.6,0.6,0.8,1.1c-4.7-0.7-6-2.7-9-3.4c-2.2,5,1.4,5.7,2.7,8.6
	c0.8,1.8-1,2.6-1.6,4.5c-0.7,2-0.7,3.8-1,5.6h0c0.2-0.4,0.3-0.8,0.5-1.2c0.1-0.2,0.3-0.5,0.4-0.7c0.1-1.7,0.9-3.7,1.6-5
	c1.5,1.7,3.2,1.6,5.2,1.7c0.3,1.1,0.3,2.3-0.1,3.4l0.9-0.8l0.9,0.5l0.5-1.5l1.8,0.8c-0.4,0.6-0.8,0.9-1.1,1.3l0.5,0.3
	c0.1-0.1,0.2-0.3,0.3-0.4c0.8-1,1.1-0.8,2.4-1.1c1.3-0.3,1.4-1.1,2.9,0c0.4,0.3,0.8,0.8,1.1,1.3C115.6,53.5,116,53.1,116.5,52.7
	L116.5,52.7z M96.6,55.4c-1.9-1.5-4.1-2.4-4.3-5.2c-5.8-2.7-5.1-2-6.3-9.6c-1.3-8.6-4.7-0.3-3.9,4.7c0.9,5.7-2.9,6.4-6.7,8.1
	l0.1,0.4c0.1,0.3,0.1,0.6,0.2,0.8c1.2-0.7,2.4-1.2,3.6-1.7c-0.3,1.3-0.9,1.9-1.2,2.8c0.6-0.5,1.1-1.1,1.8-1.5
	c0.6-0.9,1.5-1.5,2.7-1.6l0.1,0.3c0.4-0.1,0.9-0.1,1.3,0c-0.3-1.2,0.1-4.1,1.5-4.1c1.4,0.6,1.8,1.4,3.7,1.9c-0.2,2.1,0.1,2,0.5,3.2
	c0.4-0.2,0.8-0.3,1.2-0.4c-0.6-0.7-0.6-1.4-0.6-2.4c0.6,0.5,1.1,1.6,1.9,2.4c1.1,0.1,2.1,0.6,2.7,1.8c0,0,0,0.1,0.1,0.1L96.6,55.4
	L96.6,55.4z M61.5,29.3c-1.2,0.4-3.4-0.7-4.8-0.9c0.2,1-0.3,0.2,0.5,1c1.6,1.6,6.4,2,8.3,1.9c2.6-0.1,7.6,0.1,9.2,2
	c-1.2,2.2-6.7,1.8-7.8,4l1.2,1C67,40,66,39.5,65,41.5c0.5,0.8,0.4,0.2,0.8,1L64,45.4c0.8,2,1.4,0.9,1.4,4.2l0.1,5.2
	c0.3-0.4,0.6-0.8,1-1.2c0-0.5,0.1-1,0.1-1.5c0.2-2.8,0.7-4.5-0.6-6.5c2.9-4.1,1.3-3.3,1.8-4.5c0.6-1.6,2.6-0.8,2.3-4
	c1.7-0.4,4-1.1,5.5-2c2.2-1.3,2.2-3-0.5-4.2C69,28.3,64.8,30.4,61.5,29.3L61.5,29.3z M57.8,27.6c0.8-0.4,2.7-1.3,3.5-1.9
	c1.8-1.4,1.3-2.7,0.9-4.4c1.4-0.4,7-2.6,8-3.6c0.8-0.9-0.2-0.7,1.4-1c1.5-0.3,2.5,0,4-0.6c1.2-5.3,2.6-6.2,4.3-10.7
	c2.6,1.8,4.1,5.5,4.1,5.5c0.5,0.7,9.3,3.1,4.2,7.9c-1.4,1.3-5.9,4.4-2.4,6.7c1,0.7,2.1,0.9,3.1,0.4c-0.4-0.8-1.5-1.2-2.5-1.8
	c0.8-4.2,8.4-4.8,4.4-10.7c-2.8-4.1-2.6-2.2-4.9-4.3l-3.8-4.8c-1.5-0.8-1.6-1.8-3.3-2.6c-0.9,3.2-0.9,3.8-2.3,6.7
	c-1,2-1.9,4.1-2.5,6.3c-2.6-0.4-4.5,0.3-6.2,1.1l0.6,1c-1.6,1.2-2.2,1.5-3.7,2.3L61,21.1c0.4,1.2,1.5,2.4-0.1,4c-1,1-2.4,1.8-3.8,2
	C57.5,28.2,56.7,27.3,57.8,27.6L57.8,27.6z M70.3,51.4c3.5-6.3,8.8-13.7,12.1-16.6c-0.9,2.2-3.5,7-2.5,9.7c1.5-4.7,3.5-10.6,7-13
	c0.3,0.4,1.3,3.2,2.9,5.7l6.7,8.7c-0.1-2.4-3.9-7.5-5.4-10.1c-0.4-0.7-0.7-1-1.1-1.6c-0.3-0.5-0.3-1-0.6-1.4
	c2.2,1,14.3,4.9,15.1,5.7c0-1,0.4-0.4-0.5-1.1c-0.7-0.6-7.5-3.6-8.4-3.9c-3.8-1.5-7.2-2.6-7-5.9c-4.4,0-5.8-2.9-6.5-6.2
	c-0.4-2-0.9-6.5-1.8-8.2c-0.4-0.7-0.1-0.3-0.6-0.9c0.2,1.5,0.5,2.6,0.6,4.3c0.3,5.7,0,7,3.1,11.5c-2.6-0.3-16.1-4.5-18.9-0.8
	c1.6-0.1,2.7-0.7,4.6-0.8c5.2-0.1,10.6,3.1,15.3,3.5c-0.8,1-1.9,1.9-2.8,2.9C76.9,37.8,71.3,45,68.3,52C69,51.7,69.6,51.5,70.3,51.4
	L70.3,51.4z M103.4,40.7l0.8,0.7c1.5,1.2,3,2.7,2,5.4c-1.1,3-5.1,2.2-5.5,0.5l1.1-1.7c-1.8-1.8-1.1-2.8-0.1-5.5
	C103.1,40.4,102,40.5,103.4,40.7L103.4,40.7z M92.8,87.2c-4,0.4-6.8-2.7-4.3-6.2c0.8-1.1,2.2-1.7,4-1c1.4,0.5,1.3,0.6,2.7,0.5
	c0.6,0,0.9-0.3,1.6,0.2c0.3,0.2,0.3,0.3,0.4,0.5C94.4,82.3,93,82.5,92.8,87.2L92.8,87.2z M96.2,98.5c-1.4-0.1-2.1-1.5-2.2-3
	c-0.1-2.2,1-3.3,2-4.3l2.1,0.5L96.2,98.5L96.2,98.5z M98.8,88.3l-0.4,1.7c-2.7-0.6-4.7-2-4.3-4.6c0.4-3,2.7-3.8,5.3-3.5L98.8,88.3
	L98.8,88.3z M98.3,80.5c-0.2-0.1-0.6-0.4-0.9-0.6c1.4-0.7,1.2-1.5,2.1-1.6C99.5,80.4,100,81.2,98.3,80.5L98.3,80.5z M120.5,33.2
	c0.4-1.1,1.3-2,2.7-1.5c-0.2,0.7-0.1,0.7-1.1,1.1C121.7,33,121,33.1,120.5,33.2z M90.6,27.3c-0.3-2.4,7.1-3.3,7.6-3.3
	c0.7,1.5,0.8,1.4,2.1,2.6C95.1,26.1,92.8,28.4,90.6,27.3z M102,22.5c0.4,0.8,0.4,2.1,0.3,3.2c-0.5-0.3-0.9-0.7-1.3-1.1
	c-0.8-0.8-0.7-0.5-0.9-1.4c0.3-0.1,0.6-0.1,0.9-0.3l0.7-0.3C101.8,22.5,101.9,22.5,102,22.5L102,22.5z M112.3,28.1
	c-0.1-2.6,1.7-5,4.1-3.5c0,1.3-0.8,1.8-1.6,2.3C113.9,27.4,113.3,27.8,112.3,28.1L112.3,28.1z"/>
<linearGradient id="SVGID_2_" gradientUnits="userSpaceOnUse" x1="27.1486" y1="79.9904" x2="27.2503" y2="65.0339" gradientTransform="matrix(2.5844 0 0 -2.5844 26.9344 250.4253)">
	<stop  offset="0" style="stop-color:#CDA742"/>
	<stop  offset="0.4784" style="stop-color:#F4CD7B"/>
	<stop  offset="1" style="stop-color:#C49940"/>
</linearGradient>
<path class="st1" d="M33.6,43.9c-1.4,1.1-2.5,2.3-3.5,3.7c-1,1.4-1.8,2.8-2.5,4.3c-0.7,1.5-1.3,3.1-1.9,4.7
	c-0.6,1.6-1.2,3.2-1.8,4.8c-0.6,1.6-1.3,3.1-2.1,4.5c-0.8,1.5-1.8,2.8-3,4.1L19,70c1.5-0.9,2.9-1.8,4.3-2.6s2.6-1.6,3.9-2.4
	c3.2-2.1,5.8-4.1,7.7-6c1.9-1.9,3.3-3.6,4.2-5.2c1-1.6,1.5-3,1.8-4.1c0.3-1.2,0.4-2.1,0.4-2.6c-0.3-0.1-0.6-0.3-0.7-0.5
	s-0.2-0.5-0.2-0.8c0-0.4,0.1-0.8,0.4-1.1c0.3-0.3,0.6-0.4,1.1-0.4c0.7,0,1.1,0.2,1.4,0.7c0.2,0.4,0.4,1.1,0.4,1.8
	c0,1-0.2,2.1-0.7,3.2c-0.5,1.1-1.1,2.2-2,3.4c-0.8,1.1-1.8,2.3-2.9,3.4c-1.1,1.1-2.3,2.3-3.5,3.3c-1.2,1.1-2.5,2.1-3.9,3.1
	c-1.3,1-2.7,1.9-3.9,2.6c-1.5,0.9-3,1.8-4.5,2.8c-1.5,0.9-3.1,1.9-4.7,2.8l-0.2-0.2c0.9-1.3,1.7-2.7,2.3-4.2c0.7-1.5,1.3-3,1.8-4.6
	c0.6-1.6,1.1-3.2,1.7-4.8c0.6-1.6,1.2-3.1,2-4.6c0.7-1.5,1.6-2.8,2.6-4.1c1-1.3,2.3-2.4,3.7-3.3l-0.1-0.1c-1.1,0.6-2.2,1-3.5,1.3
	c-1.2,0.3-2.5,0.6-3.8,1c-0.8,0.2-1.8,0.5-2.7,0.9c-1,0.4-1.9,0.9-2.7,1.5c-0.8,0.6-1.6,1.3-2.1,2.1c-0.6,0.8-0.9,1.7-0.9,2.8
	c0,0.9,0.3,1.6,0.8,2.1c0.6,0.5,1.2,0.7,2,0.7c0.5,0,0.9-0.1,1.4-0.3c0.4-0.2,0.8-0.4,1.2-0.8c0.3-0.3,0.6-0.7,0.8-1.2
	s0.3-1,0.3-1.5c0-0.3,0-0.5,0-0.7c0-0.2,0-0.4-0.1-0.7h0.4c0,0.2,0,0.4,0.1,0.7s0,0.5,0,0.8c0,0.5-0.1,1.1-0.3,1.5
	c-0.2,0.5-0.5,0.9-0.9,1.3c-0.4,0.4-0.8,0.7-1.4,0.9c-0.5,0.2-1.1,0.3-1.7,0.3c-1.1,0-2-0.3-2.7-0.9c-0.7-0.6-1.1-1.5-1.1-2.6
	c0-1.2,0.3-2.2,0.9-3.1c0.6-0.8,1.4-1.5,2.3-2.1c0.9-0.6,1.9-1.1,3-1.4c1.1-0.4,2-0.7,2.8-0.9c0.7-0.2,1.4-0.4,2.3-0.6
	c0.9-0.2,1.8-0.4,2.7-0.7s1.8-0.6,2.6-0.9c0.9-0.4,1.6-0.8,2.2-1.4L33.6,43.9L33.6,43.9z M43.2,57.8c-1.4,2-2.6,3.7-3.6,5.1
	c-1,1.4-1.8,2.5-2.4,3.5c-0.6,0.9-1,1.7-1.3,2.2c-0.3,0.5-0.4,1-0.4,1.3c0,0.7,0.3,1,0.8,1c0.5,0,1.1-0.2,1.8-0.6
	c0.7-0.4,1.4-0.9,2.1-1.4c0.7-0.6,1.5-1.2,2.2-2c0.7-0.7,1.4-1.5,2.1-2.2c0.7-0.7,1.2-1.4,1.7-2.1c0.5-0.7,0.9-1.2,1.1-1.7l0.3,0.2
	c-0.3,0.5-0.7,1.1-1.2,1.8c-0.5,0.7-1.1,1.5-1.8,2.2c-0.7,0.8-1.4,1.5-2.1,2.2c-0.7,0.7-1.5,1.4-2.3,2s-1.5,1.1-2.2,1.4
	c-0.7,0.4-1.4,0.5-2,0.5c-0.7,0-1.2-0.2-1.5-0.6C34.1,70.4,34,70,34,69.5c0-0.5,0.1-1.1,0.4-1.7c0.2-0.6,0.6-1.3,1.2-2.2
	c0.5-0.9,1.2-1.9,2.1-3.2s1.9-2.8,3.1-4.6L43.2,57.8L43.2,57.8z M45.4,50.7c0.4,0,0.7,0.1,0.9,0.4c0.2,0.2,0.3,0.5,0.3,0.9
	c0,0.4-0.1,0.7-0.3,0.9c-0.2,0.2-0.5,0.4-0.9,0.4c-0.4,0-0.7-0.1-0.9-0.4s-0.3-0.5-0.3-0.9c0-0.4,0.1-0.7,0.3-0.9
	C44.7,50.8,45,50.7,45.4,50.7z M51.2,57.8l-5.1,7l0.1,0.1c0.5-0.6,1.2-1.4,1.9-2.2c0.7-0.9,1.5-1.7,2.3-2.4c0.8-0.8,1.7-1.4,2.6-1.9
	c0.9-0.5,1.8-0.8,2.6-0.8c0.8,0,1.4,0.2,1.8,0.6c0.4,0.4,0.6,1,0.6,1.6c0,0.4-0.1,0.9-0.4,1.5c-0.3,0.6-0.7,1.2-1.1,1.8
	c-0.4,0.6-0.9,1.3-1.4,2c-0.5,0.7-1,1.3-1.4,1.9c-0.4,0.6-0.8,1.1-1.1,1.7c-0.3,0.5-0.4,0.9-0.4,1.2c0,0.7,0.4,1.1,1.1,1.1
	c0.8,0,1.7-0.3,2.6-0.8c0.9-0.6,2-1.5,3.3-2.8c0.5-0.5,1-1.1,1.6-1.7c0.5-0.6,1-1.2,1.5-1.8c0.5-0.6,0.9-1.2,1.3-1.7
	c0.4-0.5,0.7-1,0.9-1.3l0.3,0.1c-0.5,0.8-1.2,1.7-2,2.7c-0.8,1.1-1.7,2.1-2.6,3.1c-0.6,0.6-1.1,1.2-1.7,1.8
	c-0.6,0.6-1.2,1.1-1.8,1.5c-0.6,0.4-1.2,0.8-1.7,1s-1.1,0.4-1.7,0.4c-0.7,0-1.4-0.2-1.8-0.6c-0.5-0.4-0.7-1-0.7-1.7
	c0-0.8,0.3-1.6,0.9-2.5c0.6-0.9,1.3-1.8,2-2.7c0.7-0.9,1.4-1.8,2-2.6c0.6-0.8,0.9-1.6,0.9-2.2c0-0.3-0.1-0.5-0.3-0.7
	C56,58.1,55.7,58,55.4,58c-0.6,0-1.4,0.2-2.2,0.7c-0.8,0.5-1.6,1.1-2.4,1.9c-0.8,0.8-1.7,1.7-2.5,2.6c-0.8,1-1.6,1.9-2.3,2.9
	c-0.7,1-1.4,1.9-1.9,2.8c-0.6,0.9-1,1.6-1.3,2.2h-2.4c0.7-1.1,1.4-2.3,2.1-3.4c0.8-1.2,1.5-2.3,2.2-3.5c0.7-1.1,1.5-2.2,2.1-3.3
	s1.3-2,1.8-2.9L51.2,57.8L51.2,57.8z M81.7,61.3c-0.6,0.7-1.3,1.2-2.1,1.7c-0.8,0.4-1.5,0.6-2.3,0.6c-0.7,0-1.3-0.2-1.8-0.5
	c-0.5-0.3-0.9-0.7-1.2-1.1h-0.1c-0.3,1-0.7,2-1.4,3.1c-0.7,1.1-1.5,2.1-2.5,3c-1,0.9-2,1.7-3.2,2.3c-1.1,0.6-2.3,0.9-3.5,0.9
	c-1.1,0-1.9-0.3-2.5-1c-0.6-0.6-0.8-1.5-0.8-2.6c0-0.6,0.1-1.2,0.4-2c0.3-0.7,0.7-1.5,1.2-2.2c0.5-0.8,1.1-1.5,1.8-2.2
	c0.7-0.7,1.4-1.4,2.2-2c0.8-0.6,1.6-1,2.5-1.4c0.9-0.3,1.8-0.5,2.7-0.5c1.1,0,1.9,0.3,2.4,0.9c0.6,0.6,0.9,1.4,0.9,2.4
	c0,0.6,0.3,1.1,0.8,1.6c0.5,0.5,1.2,0.8,2.1,0.8c0.8,0,1.5-0.2,2.2-0.6c0.7-0.4,1.3-0.9,1.9-1.5L81.7,61.3L81.7,61.3z M62.4,68.7
	c0,0.7,0.1,1.2,0.4,1.6c0.3,0.4,0.6,0.6,1.1,0.6c0.7,0,1.4-0.2,2.1-0.6c0.7-0.4,1.3-0.9,2-1.5c0.6-0.6,1.2-1.3,1.7-2.1
	c0.5-0.8,1-1.6,1.4-2.4c0.4-0.8,0.7-1.6,0.9-2.4c0.2-0.8,0.3-1.5,0.3-2.1c0-0.5-0.1-1-0.4-1.4c-0.3-0.4-0.7-0.6-1.2-0.6
	c-0.5,0-1.1,0.2-1.7,0.5s-1.2,0.8-1.9,1.4c-0.6,0.6-1.2,1.2-1.8,2c-0.6,0.7-1.1,1.5-1.5,2.3c-0.4,0.8-0.8,1.6-1.1,2.4
	C62.5,67.3,62.4,68.1,62.4,68.7L62.4,68.7z M94.5,57.8c-1.5,2.1-3,4.2-4.4,6.3c-1.4,2.2-2.8,4.3-4.2,6.4c1.3-0.3,2.5-0.7,3.8-1.4
	c1.2-0.6,2.4-1.4,3.5-2.3c1.1-0.9,2.1-1.9,3.1-3s1.7-2.2,2.4-3.3l0.1,0.2c-1.1,1.9-2.4,3.5-3.7,4.8c-1.3,1.3-2.6,2.3-3.9,3.1
	c-1.2,0.8-2.4,1.3-3.4,1.7c-1,0.3-1.7,0.5-2.2,0.6c-0.1,0.1-0.4,0.4-0.8,1c-0.4,0.6-0.9,1.3-1.5,2.2c-0.6,0.8-1.4,1.7-2.3,2.7
	c-0.9,1-1.9,1.8-3,2.6c-1.1,0.8-2.3,1.5-3.7,2s-2.8,0.8-4.4,0.8c-0.9,0-1.8-0.1-2.6-0.3c-0.8-0.2-1.5-0.5-2.1-0.9
	c-0.6-0.4-1-0.8-1.3-1.4c-0.3-0.5-0.5-1.1-0.5-1.8c0-1.1,0.4-2,1.2-2.7c0.8-0.7,1.8-1.1,3-1.1c0.3,0,0.5,0,0.6,0
	c0.2,0,0.3,0.1,0.5,0.1v0.3h-0.3c-1,0-1.7,0.3-2.2,0.9c-0.5,0.6-0.7,1.5-0.7,2.5c0,0.7,0.1,1.3,0.4,1.8c0.2,0.5,0.6,0.9,1,1.2
	c0.4,0.3,0.9,0.5,1.5,0.7c0.6,0.1,1.2,0.2,1.8,0.2c1.1,0,2.2-0.3,3.3-0.8c1.1-0.5,2.1-1.2,3.1-2.1s2-1.8,2.9-2.9
	c0.9-1.1,1.8-2.2,2.6-3.3c0.8-1.1,1.5-2.1,2.2-3.2c0.7-1,1.2-1.9,1.8-2.6L86.1,67c-0.4,0.5-0.9,1-1.4,1.5c-0.5,0.5-1,1-1.6,1.4
	c-0.6,0.4-1.1,0.8-1.8,1c-0.6,0.3-1.2,0.4-1.9,0.4c-0.5,0-0.9-0.1-1.3-0.3c-0.4-0.2-0.7-0.4-0.9-0.7s-0.4-0.6-0.5-1
	c-0.1-0.4-0.1-0.7-0.1-1c0-0.8,0.2-1.6,0.5-2.5c0.3-0.8,0.8-1.7,1.4-2.5c0.6-0.8,1.2-1.6,2-2.3c0.7-0.7,1.5-1.3,2.3-1.9
	c0.8-0.5,1.6-1,2.4-1.3c0.8-0.3,1.6-0.5,2.3-0.5c1,0,1.7,0.2,2.2,0.8c0.4,0.5,0.7,1.1,0.7,1.7h0.1l1.4-2.2L94.5,57.8L94.5,57.8z
	 M87.4,58c-0.8,0-1.8,0.3-2.7,1.1c-1,0.7-1.9,1.6-2.8,2.6s-1.6,2.2-2.1,3.4c-0.6,1.2-0.8,2.4-0.8,3.5c0,0.6,0.1,1,0.4,1.4
	c0.3,0.3,0.7,0.5,1.1,0.5c0.4,0,0.8-0.1,1.4-0.4c0.6-0.3,1.2-0.7,1.8-1.2c0.6-0.5,1.3-1.1,1.9-1.8c0.6-0.7,1.2-1.5,1.7-2.2
	c0.5-0.8,0.9-1.6,1.2-2.5c0.3-0.9,0.5-1.7,0.5-2.6c0-0.4-0.1-0.8-0.4-1.1C88.4,58.1,88,58,87.4,58L87.4,58z M102.5,57.8l-4.9,7.1
	l0.1,0.1c0.4-0.4,0.8-0.9,1.4-1.5c0.6-0.6,1.1-1.2,1.8-1.8s1.3-1.2,2.1-1.8c0.7-0.6,1.4-1.1,2.1-1.6c0.1-0.3,0.3-0.5,0.4-0.6
	c0.1-0.1,0.5-0.2,0.9-0.2c0.3,0,0.5,0,0.8,0c0.2,0,0.4,0,0.7,0.1c-0.4,0.4-0.9,1-1.3,1.6c-0.4,0.6-0.6,1.3-0.6,2.1
	c0,0.6,0.1,1.1,0.4,1.4s0.7,0.5,1.1,0.5c0.4,0,0.8-0.1,1.1-0.2c0.4-0.1,0.7-0.3,1.1-0.6s0.7-0.5,1-0.7c0.3-0.3,0.6-0.5,0.8-0.7
	l0.2,0.1c-0.3,0.3-0.6,0.5-0.9,0.8c-0.3,0.3-0.7,0.6-1.1,0.8c-0.4,0.3-0.8,0.5-1.2,0.6c-0.4,0.2-0.9,0.2-1.3,0.2
	c-0.8,0-1.5-0.2-2-0.8c-0.5-0.5-0.8-1.2-0.8-2.1c0-0.6,0.1-1.2,0.4-1.7l-0.1-0.1c-1.1,0.7-2.2,1.7-3.5,2.8c-1.2,1.2-2.6,2.5-4,4.1
	c-0.5,0.6-1.1,1.3-1.6,2.2c-0.6,0.9-1,1.9-1.4,2.8h-2.5c1.4-2.2,2.8-4.4,4.2-6.6c1.4-2.2,2.8-4.4,4.3-6.7L102.5,57.8L102.5,57.8z
	 M121.6,57.8h2.5c-1,1.3-1.9,2.6-2.7,3.9c-0.9,1.2-1.6,2.4-2.3,3.5c-0.7,1.1-1.2,2-1.6,2.8c-0.4,0.8-0.6,1.4-0.6,1.9
	c0,0.7,0.3,1,1,1c0.5,0,1.2-0.3,2.1-0.8s1.7-1.2,2.7-2.2c1-0.9,2-2,3-3.2c1-1.2,2-2.5,2.9-3.9l0.2,0.1c-0.7,1.1-1.5,2.2-2.4,3.4
	c-0.9,1.2-1.9,2.3-2.9,3.4c-1,1.1-2.1,1.9-3.1,2.6c-1,0.7-2,1.1-2.9,1.1c-0.7,0-1.3-0.2-1.6-0.6c-0.3-0.4-0.5-0.8-0.5-1.3
	c0-0.4,0.1-0.7,0.2-1.1c0.1-0.3,0.2-0.7,0.4-1.1l-0.1,0c-0.3,0.4-0.8,0.8-1.2,1.2s-1,0.9-1.6,1.3c-0.6,0.4-1.2,0.8-1.8,1
	c-0.6,0.3-1.2,0.4-1.8,0.4c-1,0-1.6-0.3-2-0.9c-0.4-0.6-0.6-1.2-0.6-2c0-1.1,0.3-2.2,1-3.5c0.7-1.3,1.5-2.5,2.5-3.6
	c1-1.1,2.1-2,3.3-2.8c1.2-0.7,2.3-1.1,3.4-1.1c0.5,0,1,0.1,1.3,0.2c0.4,0.1,0.7,0.3,1,0.6c0.3,0.2,0.5,0.5,0.6,0.8
	c0.1,0.3,0.2,0.6,0.3,1h0.1L121.6,57.8L121.6,57.8z M109,68.6c0,0.6,0.1,1.1,0.4,1.4c0.2,0.3,0.6,0.5,1,0.5c0.4,0,1-0.2,1.5-0.5
	c0.6-0.3,1.2-0.8,1.8-1.3c0.6-0.5,1.3-1.2,1.9-1.9c0.6-0.7,1.2-1.5,1.7-2.2c0.5-0.8,0.9-1.6,1.2-2.4c0.3-0.8,0.5-1.6,0.5-2.3
	c0-0.6-0.2-1-0.5-1.3c-0.3-0.3-0.7-0.5-1.2-0.5c-0.8,0-1.6,0.3-2.6,1c-1,0.7-1.8,1.5-2.7,2.6c-0.8,1-1.6,2.2-2.1,3.4
	C109.3,66.2,109,67.5,109,68.6L109,68.6z M149.8,44.5c-1,1.6-2.1,3.3-3.3,5c-1.2,1.8-2.3,3.5-3.5,5.3s-2.3,3.4-3.4,5.1
	c-1.1,1.6-2.1,3.1-2.9,4.5c-0.8,1.4-1.5,2.5-2,3.5c-0.5,1-0.8,1.7-0.8,2.2c0,0.3,0.1,0.5,0.2,0.7c0.1,0.2,0.3,0.2,0.6,0.2
	c0.6,0,1.4-0.3,2.2-0.8c0.8-0.5,1.8-1.3,3-2.4c1-1,2-2.1,2.9-3.3c1-1.2,1.8-2.4,2.5-3.5l0.3,0.1c-0.2,0.4-0.5,0.9-0.9,1.4
	c-0.4,0.6-0.8,1.1-1.2,1.7c-0.4,0.6-0.9,1.2-1.4,1.8c-0.5,0.6-1,1.2-1.6,1.7c-1,1.1-2,1.9-3,2.6c-1,0.7-1.9,1-2.8,1
	c-0.8,0-1.4-0.2-1.8-0.5c-0.4-0.3-0.6-0.8-0.6-1.3c0-0.5,0.1-1,0.3-1.4c0.2-0.5,0.4-0.9,0.6-1.2l-0.1,0c-0.4,0.5-0.9,1-1.4,1.5
	s-1,1-1.6,1.5c-0.6,0.5-1.2,0.8-1.8,1.1s-1.3,0.4-1.9,0.4c-0.9,0-1.6-0.3-2.1-0.8c-0.5-0.6-0.8-1.2-0.8-2c0-1.1,0.4-2.2,1.1-3.5
	c0.7-1.3,1.7-2.5,2.8-3.6c1.1-1.1,2.3-2,3.6-2.8s2.5-1.1,3.6-1.1c0.8,0,1.5,0.3,2,0.8c0.5,0.5,0.7,1.2,0.7,2h0.1l9.9-15.8
	L149.8,44.5L149.8,44.5z M136.2,60.3c0-0.6-0.1-1.1-0.3-1.6c-0.2-0.5-0.7-0.7-1.4-0.7c-0.5,0-1.1,0.2-1.7,0.5
	c-0.6,0.4-1.3,0.8-1.9,1.4c-0.6,0.6-1.3,1.3-1.9,2c-0.6,0.8-1.1,1.5-1.6,2.3c-0.5,0.8-0.8,1.5-1.1,2.3c-0.3,0.7-0.4,1.4-0.4,2
	c0,0.5,0.1,1,0.3,1.3c0.2,0.4,0.6,0.5,1.1,0.5c0.5,0,1-0.2,1.6-0.5c0.6-0.4,1.2-0.8,1.9-1.4c0.7-0.6,1.3-1.2,2-2
	c0.6-0.7,1.2-1.5,1.7-2.2c0.5-0.7,0.9-1.5,1.2-2.2C136,61.5,136.2,60.8,136.2,60.3L136.2,60.3z M162.7,61.3
	c-0.6,0.7-1.3,1.2-2.1,1.7c-0.8,0.4-1.5,0.6-2.3,0.6c-0.7,0-1.3-0.2-1.8-0.5c-0.5-0.3-0.9-0.7-1.2-1.1h-0.1c-0.3,1-0.7,2-1.4,3.1
	c-0.7,1.1-1.5,2.1-2.5,3c-1,0.9-2,1.7-3.2,2.3c-1.1,0.6-2.3,0.9-3.5,0.9c-1.1,0-1.9-0.3-2.5-1c-0.6-0.6-0.8-1.5-0.8-2.6
	c0-0.6,0.1-1.2,0.4-2c0.3-0.7,0.7-1.5,1.2-2.2c0.5-0.8,1.1-1.5,1.8-2.2c0.7-0.7,1.4-1.4,2.2-2c0.8-0.6,1.6-1,2.5-1.4
	c0.9-0.3,1.8-0.5,2.7-0.5c1.1,0,1.9,0.3,2.4,0.9c0.6,0.6,0.9,1.4,0.9,2.4c0,0.6,0.3,1.1,0.8,1.6c0.5,0.5,1.2,0.8,2.1,0.8
	c0.8,0,1.5-0.2,2.2-0.6c0.7-0.4,1.3-0.9,1.9-1.5L162.7,61.3L162.7,61.3z M143.4,68.7c0,0.7,0.1,1.2,0.4,1.6c0.3,0.4,0.6,0.6,1.1,0.6
	c0.7,0,1.4-0.2,2.1-0.6c0.7-0.4,1.3-0.9,2-1.5s1.2-1.3,1.7-2.1c0.5-0.8,1-1.6,1.4-2.4c0.4-0.8,0.7-1.6,0.9-2.4
	c0.2-0.8,0.3-1.5,0.3-2.1c0-0.5-0.1-1-0.4-1.4c-0.3-0.4-0.7-0.6-1.2-0.6c-0.5,0-1.1,0.2-1.7,0.5c-0.6,0.3-1.2,0.8-1.9,1.4
	c-0.6,0.6-1.2,1.2-1.8,2c-0.6,0.7-1.1,1.5-1.5,2.3c-0.4,0.8-0.8,1.6-1.1,2.4C143.5,67.3,143.4,68.1,143.4,68.7L143.4,68.7z
	 M166.8,57.8c-0.5,0.6-1.1,1.4-1.8,2.4c-0.7,1-1.5,2-2.2,3.1c-0.7,1.1-1.3,2.1-1.8,3.2c-0.5,1.1-0.8,2-0.8,2.7
	c0,0.5,0.1,0.9,0.4,1.2c0.3,0.3,0.8,0.5,1.4,0.5c1,0,2-0.4,3.1-1.2c1.1-0.8,2-1.8,2.9-2.9c0.9-1.1,1.6-2.3,2.2-3.5
	c0.6-1.2,0.8-2.2,0.8-3.1c0-0.2,0-0.4-0.1-0.7c-0.1-0.2-0.1-0.5-0.1-0.8c0-0.3,0.1-0.6,0.3-0.8c0.2-0.3,0.4-0.4,0.8-0.4
	c0.4,0,0.7,0.2,0.9,0.6c0.3,0.4,0.4,1.1,0.4,2.1c0,0.3,0,0.5-0.1,0.8c0,0.2-0.1,0.5-0.1,0.7c0.3,0.4,0.7,0.7,1.2,0.9
	c0.5,0.2,1.1,0.4,1.6,0.4c0.7,0,1.4-0.2,2.1-0.5s1.4-0.9,1.9-1.7L180,61c-0.2,0.4-0.4,0.7-0.8,1c-0.3,0.3-0.7,0.6-1.1,0.8
	c-0.4,0.2-0.8,0.4-1.2,0.5c-0.4,0.1-0.9,0.2-1.3,0.2c-0.6,0-1.1-0.1-1.6-0.4c-0.5-0.2-1-0.5-1.3-0.8c-0.3,1-0.9,2-1.6,3.1
	c-0.8,1.1-1.7,2-2.7,2.9c-1,0.9-2.1,1.6-3.3,2.2c-1.2,0.6-2.3,0.8-3.4,0.8c-1.1,0-1.9-0.2-2.5-0.8c-0.6-0.5-0.9-1.3-0.9-2.5
	c0-0.8,0.2-1.6,0.7-2.5c0.5-0.9,1-1.8,1.7-2.8c0.6-0.9,1.3-1.8,2-2.7c0.7-0.9,1.2-1.6,1.6-2.3L166.8,57.8L166.8,57.8z"/>
<path class="st2" d="M135.3,78.1c0.1-0.5,0.2-0.9,0.5-1.3c0.2-0.4,0.5-0.7,0.9-0.9s0.7-0.4,1.1-0.5c0.4-0.1,0.7-0.2,1.1-0.2
	c0.6,0,1.2,0.1,1.7,0.4l-0.1,0.7c-0.4-0.3-0.9-0.4-1.5-0.4c-0.3,0-0.6,0-0.9,0.1s-0.6,0.2-0.9,0.4c-0.3,0.2-0.5,0.4-0.7,0.7
	c-0.2,0.3-0.3,0.7-0.4,1.1c0,0.3,0,0.6,0,0.9c0,0.3,0.1,0.5,0.3,0.7c0.1,0.2,0.3,0.3,0.5,0.4c0.2,0.1,0.4,0.2,0.6,0.3
	c0.2,0,0.4,0.1,0.7,0.1c0.4,0,0.8-0.1,1.1-0.2l0.4-2.3h0.7l-0.4,2.8c-0.6,0.2-1.2,0.4-1.9,0.4c-0.4,0-0.7-0.1-1.1-0.2
	c-0.3-0.1-0.7-0.3-0.9-0.5c-0.3-0.2-0.5-0.6-0.6-1C135.2,79.1,135.2,78.6,135.3,78.1L135.3,78.1z M144,77.8c0.4-0.6,1-0.8,1.8-0.8
	l-0.1,0.7c-0.4-0.1-0.7,0-1,0.2c-0.3,0.2-0.6,0.4-0.7,0.8l-0.4,2.4h-0.7l0.6-3.9h0.6L144,77.8L144,77.8z M152,79.2
	c-0.1,0.6-0.4,1.1-0.9,1.5c-0.5,0.4-1,0.5-1.6,0.5c-0.6,0-1-0.2-1.4-0.6c-0.4-0.4-0.5-0.9-0.4-1.5c0.1-0.6,0.4-1.1,0.9-1.5
	c0.5-0.4,1-0.5,1.5-0.5c0.6,0,1,0.2,1.4,0.6C152,78,152.1,78.5,152,79.2L152,79.2z M148.5,79.2c-0.1,0.4,0,0.8,0.2,1
	c0.2,0.2,0.5,0.4,1,0.4c0.4,0,0.8-0.1,1.1-0.4c0.3-0.3,0.5-0.6,0.6-1.1c0.1-0.4,0-0.8-0.2-1c-0.2-0.2-0.5-0.4-1-0.4
	c-0.4,0-0.8,0.1-1.1,0.4C148.8,78.4,148.6,78.7,148.5,79.2z M158.3,77.2h0.7l-0.6,3.9h-0.6l0.1-0.6c-0.2,0.2-0.4,0.4-0.7,0.5
	c-0.3,0.1-0.6,0.2-0.9,0.2c-0.5,0-0.9-0.1-1.1-0.5c-0.3-0.3-0.3-0.7-0.3-1.2l0.4-2.4h0.7l-0.4,2.4c-0.1,0.7,0.2,1.1,0.9,1.1
	c0.6,0,1-0.3,1.4-0.8L158.3,77.2L158.3,77.2z M162.7,77.9c0.5-0.5,1-0.8,1.7-0.8c0.6,0,1,0.2,1.3,0.6c0.3,0.4,0.4,0.9,0.3,1.5
	c-0.1,0.6-0.3,1.1-0.8,1.4c-0.4,0.4-0.9,0.6-1.5,0.6c-0.7,0-1.1-0.3-1.4-0.8l-0.4,2.5h-0.7l0.9-5.7h0.6L162.7,77.9L162.7,77.9z
	 M165.4,79.2c0.1-0.4,0-0.8-0.2-1.1c-0.2-0.3-0.5-0.4-0.9-0.4c-0.3,0-0.7,0.1-1,0.3c-0.3,0.2-0.5,0.4-0.7,0.7l-0.1,1
	c0.1,0.3,0.2,0.5,0.4,0.7c0.2,0.2,0.5,0.3,0.8,0.3c0.4,0,0.8-0.1,1.1-0.4C165.2,80,165.4,79.6,165.4,79.2L165.4,79.2z"/>
</svg>
